<svg width="20" height="16" viewBox="0 0 20 16" fill="none" xmlns="http://www.w3.org/2000/svg">
<mask id="mask0_3232_1636" style="mask-type:alpha" maskUnits="userSpaceOnUse" x="0" y="-2" width="20" height="20">
<rect x="0.400024" y="-1.6" width="19.2" height="19.2" fill="#D9D9D9"/>
</mask>
<g mask="url(#mask0_3232_1636)">
<path d="M4.40005 8.8H9.20005V5.6H4.40005V8.8ZM4.40005 4H15.6V2.4H4.40005V4ZM4.40005 15.2C3.96005 15.2 3.58338 15.0433 3.27005 14.73C2.95672 14.4167 2.80005 14.04 2.80005 13.6V2.4C2.80005 1.96 2.95672 1.58333 3.27005 1.27C3.58338 0.956666 3.96005 0.799999 4.40005 0.799999H15.6C16.04 0.799999 16.4167 0.956666 16.73 1.27C17.0434 1.58333 17.2 1.96 17.2 2.4V7.44C16.9467 7.33333 16.6834 7.26333 16.41 7.23C16.1367 7.19667 15.8667 7.2 15.6 7.24C15.32 7.29333 15.05 7.38333 14.79 7.51C14.53 7.63667 14.2934 7.80667 14.08 8.02L13.3 8.8L9.20005 12.88V15.2H4.40005ZM4.40005 13.6H9.20005V10.4H4.40005V13.6ZM10.8 8.8H13.3L14.08 8.02C14.2934 7.80667 14.53 7.63667 14.79 7.51C15.05 7.38333 15.32 7.29333 15.6 7.24V5.6H10.8V8.8ZM10.8 16V13.54L15.22 9.14C15.34 9.02 15.4734 8.93333 15.62 8.88C15.7667 8.82667 15.9134 8.8 16.0601 8.8C16.22 8.8 16.3734 8.83 16.52 8.89C16.6667 8.95 16.8 9.04 16.92 9.16L17.66 9.9C17.7667 10.02 17.85 10.1533 17.91 10.3C17.97 10.4467 18 10.5933 18 10.74C18 10.8867 17.9734 11.0367 17.92 11.19C17.8667 11.3433 17.78 11.48 17.66 11.6L13.26 16H10.8ZM12 14.8H12.76L15.18 12.36L14.44 11.62L12 14.04V14.8ZM14.82 11.98L14.44 11.62L15.18 12.36L14.82 11.98Z" fill="#1C1B1F"/>
</g>
</svg>
