<?xml version="1.0" encoding="UTF-8"?>
<svg width="170px" height="47px" viewBox="0 0 152 42" version="1.1" xmlns="http://www.w3.org/2000/svg" xmlns:xlink="http://www.w3.org/1999/xlink">
    <!-- Generator: Sketch 52.2 (67145) - http://www.bohemiancoding.com/sketch -->
    <title>ImunifyAV+</title>
    <desc>Created with Sketch.</desc>
    <g stroke="none" stroke-width="1" fill="none" fill-rule="evenodd">
        <g transform="translate(-45.000000, -42.000000)">
            <g transform="translate(45.000000, 42.000000)">
                <g>
                    <g transform="translate(47.793814, 9.402062)" fill="#3BA763">
                        <path d="M2.27216495,3.29072165 L0.705154639,3.29072165 L0.705154639,0.548453608 L2.27216495,0.548453608 L2.27216495,3.29072165 Z M2.27216495,16.5319588 L0.705154639,16.5319588 L0.705154639,4.70103093 L2.27216495,4.70103093 L2.27216495,16.5319588 Z" fill-rule="nonzero"></path>
                        <path d="M20.9195876,16.5319588 L19.2742268,16.5319588 L19.2742268,9.32371134 C19.2742268,8.38350515 19.0391753,7.6 18.4907216,6.97319588 C17.942268,6.34639175 17.3154639,6.03298969 16.4536082,6.03298969 C15.5917526,6.03298969 14.8082474,6.34639175 14.1814433,6.89484536 C13.5546392,7.44329897 13.2412371,8.14845361 13.2412371,9.01030928 L13.2412371,16.6103093 L11.5958763,16.6103093 L11.5958763,9.01030928 C11.5958763,8.14845361 11.2824742,7.44329897 10.6556701,6.89484536 C10.028866,6.34639175 9.24536082,6.03298969 8.38350515,6.03298969 C7.52164948,6.03298969 6.81649485,6.34639175 6.34639175,6.97319588 C5.79793814,7.6 5.5628866,8.38350515 5.5628866,9.32371134 L5.5628866,16.5319588 L3.91752577,16.5319588 L3.91752577,9.48041237 C3.91752577,7.99175258 4.30927835,6.81649485 5.17113402,5.95463918 C5.95463918,5.09278351 6.97319588,4.62268041 8.30515464,4.5443299 C10.028866,4.38762887 11.3608247,5.17113402 12.3793814,6.73814433 C13.3979381,5.17113402 14.7298969,4.38762887 16.4536082,4.5443299 C17.7072165,4.62268041 18.8041237,5.09278351 19.5876289,5.95463918 C20.4494845,6.81649485 20.8412371,8.07010309 20.8412371,9.48041237 L20.8412371,16.5319588 L20.9195876,16.5319588 Z"></path>
                        <path d="M33.0639175,11.4391753 C33.0639175,13.0061856 32.5938144,14.2597938 31.5752577,15.2783505 C30.556701,16.2969072 29.3814433,16.8453608 27.814433,16.8453608 C26.3257732,16.8453608 25.0721649,16.2969072 24.0536082,15.2783505 C23.0350515,14.2597938 22.5649485,13.0061856 22.5649485,11.4391753 L22.5649485,4.70103093 L24.1319588,4.70103093 L24.1319588,11.5958763 C24.1319588,12.614433 24.5237113,13.4762887 25.228866,14.1814433 C25.9340206,14.8865979 26.7958763,15.2783505 27.814433,15.2783505 C28.7546392,15.2783505 29.6164948,14.8865979 30.4,14.1814433 C31.1051546,13.4762887 31.4969072,12.614433 31.4969072,11.5958763 L31.4969072,4.70103093 L33.0639175,4.70103093 L33.0639175,11.4391753 Z"></path>
                        <path d="M45.2082474,16.5319588 L43.6412371,16.5319588 L43.6412371,9.6371134 C43.6412371,8.6185567 43.2494845,7.75670103 42.5443299,7.05154639 C41.8391753,6.34639175 40.9773196,5.95463918 39.9587629,5.95463918 C38.9402062,5.95463918 38.0783505,6.34639175 37.3731959,7.05154639 C36.6680412,7.75670103 36.2762887,8.6185567 36.2762887,9.6371134 L36.2762887,16.5319588 L34.7092784,16.5319588 L34.7092784,9.79381443 C34.7092784,8.22680412 35.1793814,6.97319588 36.1979381,5.95463918 C37.2164948,4.93608247 38.4701031,4.46597938 39.9587629,4.46597938 C41.4474227,4.46597938 42.7010309,4.93608247 43.7195876,5.95463918 C44.7381443,6.97319588 45.2082474,8.22680412 45.2082474,9.79381443 L45.2082474,16.5319588 Z"></path>
                        <path d="M48.4206186,3.29072165 L46.8536082,3.29072165 L46.8536082,0.548453608 L48.4206186,0.548453608 L48.4206186,3.29072165 Z M48.4206186,16.5319588 L46.8536082,16.5319588 L46.8536082,4.70103093 L48.4206186,4.70103093 L48.4206186,16.5319588 Z" fill-rule="nonzero"></path>
                        <path d="M54.6886598,6.18969072 L51.7113402,6.18969072 L51.7113402,16.5319588 L50.1443299,16.5319588 L50.1443299,4.46597938 C50.1443299,3.21237113 50.5360825,2.27216495 51.3195876,1.56701031 C52.1030928,0.86185567 53.1216495,0.548453608 54.2969072,0.548453608 L54.6886598,0.548453608 L54.6886598,1.95876289 L54.2969072,1.95876289 C53.4350515,2.0371134 52.8865979,2.19381443 52.4948454,2.50721649 C51.9463918,3.0556701 51.7113402,3.60412371 51.7113402,4.15257732 L51.7113402,4.70103093 L54.6886598,4.70103093 L54.6886598,6.18969072 Z"></path>
                        <polygon points="66.5979381 4.70103093 59.9381443 20.6061856 58.2927835 20.6061856 60.0948454 16.1402062 55.4721649 4.70103093 57.1958763 4.70103093 60.956701 14.1030928 64.9525773 4.70103093"></polygon>
                    </g>
                    <g fill="#467C45">
                        <path d="M20.1360825,4.15257732 C20.6061856,2.89896907 20.9979381,1.56701031 21.5463918,0.313402062 C22.4082474,2.11546392 22.956701,4.0742268 23.8185567,5.87628866 C25.8556701,6.65979381 28.1278351,7.05154639 30.243299,7.83505155 C25.6989691,10.1072165 21.1546392,12.3010309 16.5319588,14.4164948 C17.628866,10.8907216 18.8824742,7.52164948 20.1360825,4.15257732 Z"></path>
                        <path d="M12.3793814,7.99175258 C14.4948454,6.89484536 16.4536082,5.64123711 18.5690722,4.5443299 C16.9237113,9.6371134 15.043299,14.6515464 13.3195876,19.7443299 C11.4391753,16.2185567 9.87216495,12.614433 8.07010309,9.08865979 C7.52164948,7.91340206 6.89484536,6.73814433 6.42474227,5.5628866 C8.46185567,6.26804124 10.342268,7.36494845 12.3793814,7.99175258 Z"></path>
                        <path d="M21.5463918,13.3979381 C26.1690722,11.1257732 30.7917526,8.85360825 35.414433,6.65979381 C34.6309278,8.6185567 33.7690722,10.4206186 32.985567,12.3793814 C34.0824742,14.4164948 35.414433,16.2969072 36.3546392,18.4123711 C31.3402062,16.7670103 26.4041237,15.1216495 21.5463918,13.3979381 Z"></path>
                        <path d="M7.6,10.9690722 C9.01030928,13.5546392 10.185567,16.2969072 11.4391753,18.9608247 C12.3010309,20.7628866 13.2412371,22.5649485 14.0247423,24.4453608 C9.40206186,22.8 4.85773196,21.1546392 0.235051546,19.4309278 C2.0371134,18.5690722 3.91752577,18.0206186 5.79793814,17.2371134 C6.34639175,15.1216495 6.97319588,13.0845361 7.6,10.9690722 Z"></path>
                        <path d="M25.8556701,15.9835052 C29.6948454,17.2371134 33.5340206,18.6474227 37.3731959,19.9793814 C38.6268041,20.4494845 39.8804124,20.7628866 41.0556701,21.3896907 C39.0185567,22.1731959 36.9814433,22.956701 35.0226804,23.7402062 C34.3175258,26.0123711 33.7690722,28.4412371 32.985567,30.7134021 C31.4185567,27.814433 30.0865979,24.8371134 28.5979381,21.8597938 C27.7360825,19.9010309 26.7175258,17.942268 25.8556701,15.9835052 Z"></path>
                        <path d="M25.6989691,25.9340206 C26.2474227,24.4453608 26.6391753,23.0350515 27.2659794,21.5463918 C27.971134,22.7216495 28.5195876,24.0536082 29.1463918,25.3072165 C30.7134021,28.6762887 32.4371134,31.9670103 34.0041237,35.3360825 C32.1237113,34.5525773 30.243299,33.6907216 28.2845361,32.9072165 C26.2474227,34.0041237 24.3670103,35.257732 22.3298969,36.2762887 C23.3484536,32.7505155 24.6020619,29.3030928 25.6989691,25.9340206 Z"></path>
                        <path d="M4.62268041,22.643299 C9.01030928,23.9752577 13.2412371,25.6206186 17.5505155,27.0309278 C18.1773196,27.2659794 18.8824742,27.5010309 19.4309278,27.814433 C14.7298969,29.9298969 10.185567,32.2804124 5.48453608,34.3958763 C6.26804124,32.5154639 7.20824742,30.7134021 7.91340206,28.7546392 C6.97319588,26.6391753 5.64123711,24.7587629 4.62268041,22.643299 Z"></path>
                        <path d="M13.7896907,31.6536082 C17.3154639,29.9298969 20.8412371,28.1278351 24.3670103,26.5608247 C23.4268041,29.6948454 22.1731959,32.828866 21.1546392,36.0412371 C20.5278351,37.6865979 20.057732,39.4886598 19.3525773,41.1340206 C18.4907216,39.2536082 17.8639175,37.3731959 17.0804124,35.4927835 C14.8865979,34.7092784 12.614433,34.2391753 10.342268,33.6123711 C11.3608247,32.6721649 12.6927835,32.2804124 13.7896907,31.6536082 Z"></path>
                    </g>
                    <g transform="translate(115.175258, 10.969072)" fill="#467C45">
                        <path d="M4.38762887,12.3010309 L3.44742268,15.2783505 C3.36907216,15.5134021 3.21237113,15.6701031 2.89896907,15.6701031 L0.940206186,15.6701031 C0.626804124,15.6701031 0.548453608,15.4350515 0.626804124,15.2 L5.32783505,1.48865979 C5.64123711,0.705154639 5.87628866,0.470103093 6.73814433,0.470103093 L7.67835052,0.470103093 C8.54020619,0.470103093 8.85360825,0.626804124 9.08865979,1.48865979 L13.7896907,15.2 C13.8680412,15.4350515 13.8680412,15.6701031 13.4762887,15.6701031 L11.5175258,15.6701031 C11.2041237,15.6701031 11.0474227,15.6701031 10.8907216,15.356701 L9.95051546,12.3793814 L4.38762887,12.3793814 L4.38762887,12.3010309 Z M9.16701031,10.028866 L8.07010309,6.42474227 L7.12989691,3.36907216 L7.05154639,3.36907216 L6.18969072,6.34639175 L5.09278351,10.028866 L9.16701031,10.028866 Z" fill-rule="nonzero"></path>
                        <path d="M18.1773196,12.5360825 L19.1958763,9.16701031 L22.0164948,0.548453608 C22.0948454,0.235051546 22.2515464,0.235051546 22.5649485,0.235051546 L24.6020619,0.235051546 C24.8371134,0.235051546 24.8371134,0.391752577 24.7587629,0.548453608 L19.9793814,14.4164948 C19.7443299,15.2 19.4309278,15.356701 18.7257732,15.4350515 L17.5505155,15.4350515 C16.7670103,15.4350515 16.4536082,15.2783505 16.1402062,14.4164948 L11.3608247,0.548453608 C11.2824742,0.391752577 11.3608247,0.235051546 11.5958763,0.235051546 L13.6329897,0.235051546 C13.9463918,0.235051546 14.0247423,0.313402062 14.1030928,0.548453608 L16.8453608,9.16701031 L18.0206186,12.5360825 L18.1773196,12.5360825 Z"></path>
                    </g>
                </g>
                <path d="M151.529897,20.5278351 L147.769072,20.5278351 L147.769072,24.4453608 C147.769072,24.7587629 147.690722,24.8371134 147.37732,24.8371134 L145.810309,24.8371134 C145.496907,24.8371134 145.418557,24.7587629 145.418557,24.4453608 L145.418557,20.5278351 L141.579381,20.5278351 C141.265979,20.5278351 141.187629,20.4494845 141.187629,20.1360825 L141.187629,18.7257732 C141.187629,18.4123711 141.265979,18.2556701 141.579381,18.2556701 L145.418557,18.2556701 L145.418557,14.3381443 C145.418557,14.0247423 145.575258,13.9463918 145.810309,13.9463918 L147.37732,13.9463918 C147.690722,13.9463918 147.769072,14.0247423 147.769072,14.3381443 L147.769072,18.2556701 L151.529897,18.2556701 C151.843299,18.2556701 151.921649,18.3340206 151.921649,18.7257732 L151.921649,20.1360825 C151.843299,20.4494845 151.843299,20.5278351 151.529897,20.5278351 Z" fill="#467C45"></path>
            </g>
        </g>
    </g>
</svg>