<?xml version="1.0" encoding="utf-8" ?>
<svg xmlns="http://www.w3.org/2000/svg" xmlns:xlink="http://www.w3.org/1999/xlink" viewBox="36 19 138 132" width="138" height="132">
	<path fill="#497A4A" d="M60.0602 53.649C61.3682 54.5224 79.5325 93.6781 80.6777 96.8822C76.7345 94.7187 68.0106 92.169 63.3134 90.5132C60.1171 88.9591 56.2873 87.929 52.9302 86.6974C47.4854 84.6999 42.0632 82.4452 36.5442 80.6758C41.9601 77.9322 48.3621 75.8431 54.1619 74.0409C56.3331 67.336 58.1 60.4244 60.0602 53.649Z"/>
	<path fill="#497A4A" d="M104.516 19.5908C104.641 19.6653 104.901 19.774 104.993 19.8742C105.626 20.562 110.73 34.7243 111.71 37.0235C115.51 38.5481 119.616 39.4959 123.562 40.5753C126.553 41.3937 129.525 42.3627 132.558 43.0107C129.744 44.6564 126.708 45.9555 123.787 47.4015Q115.77 51.4609 107.622 55.2512Q98.1627 59.9828 88.5018 64.2879C91.1374 55.4857 94.6656 46.8365 97.7684 38.183C99.9643 32.0586 101.765 25.4735 104.516 19.5908Z"/>
	<path fill="#497A4A" d="M148.348 39.7844C148.496 39.7959 148.562 39.8943 148.675 39.9869C146.349 46.0047 143.664 51.8784 140.993 57.7483C144.279 64.4529 148.577 70.6638 151.986 77.3305C148.973 76.1006 145.753 75.1938 142.662 74.1689L125.217 68.4147L104.412 61.3129Q126.274 50.3322 148.348 39.7844Z"/>
	<path fill="#497A4A" d="M50.629 91.1058C54.105 91.9272 57.5329 93.2203 60.91 94.3744L78.4912 100.521C84.951 102.786 92.0686 104.56 98.1556 107.651C92.2603 109.529 84.384 113.888 78.6369 116.71C70.455 121.153 61.6451 124.911 53.1546 128.733C56.1046 122.83 58.7534 116.57 61.2329 110.454C58.1045 103.783 53.8591 97.7242 50.629 91.1058Z"/>
	<path fill="#497A4A" d="M113.183 103.502L113.467 103.991C110.91 112.458 107.915 120.738 105.055 129.103C102.666 136.087 100.454 143.215 97.7004 150.063C95.1098 144.098 92.8732 137.988 90.419 131.967L88.6641 131.217C82.1836 128.912 75.2437 127.437 68.5853 125.701C73.3986 122.704 78.7215 120.416 83.8081 117.92L103.906 107.915C106.964 106.422 110.254 105.229 113.183 103.502Z"/>
	<path fill="#497A4A" d="M94.4123 33.2353C94.6178 33.3835 94.6274 33.4951 94.7165 33.7278C94.0751 36.5347 92.9922 39.3135 92.0572 42.0394Q89.5252 49.3848 86.9148 56.7026C84.1305 64.5732 81.7136 72.7383 78.6204 80.4766C78.4815 80.8239 78.3214 81.0455 78.0294 81.2819C76.7777 80.2088 70.0652 65.1126 68.7572 62.418Q65.2438 54.7956 61.5737 47.2474C59.7936 43.6281 57.7013 40.016 56.4746 36.1697C62.8494 38.3681 68.888 41.6053 75.2255 43.9763Q84.851 38.663 94.4123 33.2353Z"/>
	<path fill="#CF4A3F" d="M148.825 83.7638C149.92 83.5228 170.573 91.8151 173.742 92.9399C173.482 95.2601 173.581 97.6472 173.585 99.98C173.602 109.578 174.336 118.749 169.98 127.623C165.676 136.393 158.83 142.007 149.63 145.147C145.815 145.039 141.287 142.367 138.258 140.107C129.512 133.583 124.606 122.694 124.438 111.925C124.351 106.321 125.03 98.4582 124.257 93.107C132.222 89.6692 140.626 86.6117 148.825 83.7638Z"/>
	<path fill="#FEFEFE" d="M155.5 103.464C157.002 104.94 158.361 106.476 159.942 107.882C157.748 110.124 155.492 112.31 153.265 114.519C155.562 116.576 157.722 118.853 159.931 121.009C158.39 122.375 156.971 123.898 155.524 125.362C153.595 122.987 151.093 120.835 148.922 118.664C146.946 120.9 144.837 123 142.698 125.079C141.279 124.484 139.274 121.941 138.079 120.857C140.437 118.914 142.568 116.533 144.771 114.4C142.496 112.421 140.461 110.104 138.239 108.052C139.76 106.703 141.185 105.188 142.64 103.764C144.607 105.916 147.215 107.902 148.743 110.377C151.019 108.105 153.365 105.87 155.5 103.464Z"/>
</svg>
