<?xml version="1.0" encoding="utf-8" ?>
<svg xmlns="http://www.w3.org/2000/svg" xmlns:xlink="http://www.w3.org/1999/xlink" viewBox="32 17 138 129" width="138" height="129">
	<path fill="#497A4A" d="M56.2248 51.3682C57.6678 52.3676 75.2895 90.5307 76.9496 94.3652L59.554 88.2577C56.5105 86.9013 53.1721 85.918 50.0365 84.7534C44.3156 82.6285 38.6163 80.3988 32.8411 78.427C37.0604 75.8462 45.6378 73.3204 50.5545 71.5986C52.0671 64.8042 54.258 58.0479 56.2248 51.3682Z"/>
	<path fill="#497A4A" d="M100.839 17.1475C101.851 17.8902 106.958 32.3575 107.989 34.6793C113.794 37.2729 122.422 38.7923 128.777 40.8416C120.386 44.9405 112.043 49.2495 103.563 53.1499C97.4374 56.1448 91.1277 59.5039 84.7378 61.8672C87.9661 52.2917 91.4348 42.8453 94.8427 33.3346C96.7556 27.9958 98.3979 22.2662 100.839 17.1475Z"/>
	<path fill="#497A4A" d="M144.181 37.7499C144.5 37.7544 144.486 37.7654 144.724 37.9819C142.68 43.9378 139.942 49.9685 137.142 55.6061Q142.868 65.0637 148.128 74.7879C139.045 72.3776 130.009 68.9203 121.072 65.9747C117.839 64.6619 114.395 63.6466 111.087 62.5107C107.647 61.3297 104.066 59.83 100.494 59.1386C114.963 51.9095 129.394 44.3102 144.181 37.7499Z"/>
	<path fill="#497A4A" d="M46.9407 88.9945C50.0744 89.3587 91.5615 103.693 93.631 104.995C93.1181 106.022 76.7306 113.498 74.3383 114.644C66.2859 118.902 57.8365 122.787 49.425 126.292C52.4046 120.464 54.5248 114.181 57.4403 108.317C54.2261 101.733 49.9552 95.6315 46.9407 88.9945Z"/>
	<path fill="#497A4A" d="M109.395 101.245L109.557 101.354C110.106 102.799 95.7216 143.043 93.8067 147.922C93.1666 145.58 91.9939 143.275 91.0997 141.005C89.8035 137.714 88.6638 134.258 87.1728 131.059C86.4575 129.524 85.8557 129.201 84.3153 128.644C77.9248 126.692 71.4127 125.129 64.9346 123.497C69.5648 120.278 75.0244 118.158 80.0675 115.635C89.814 110.758 99.4968 105.813 109.395 101.245Z"/>
	<path fill="#497A4A" d="M90.6139 30.7209L90.768 30.8395C91.0076 31.4726 90.7379 32.1494 90.5509 32.7925C89.2376 37.3071 87.5052 41.7703 85.9548 46.2134C82.0625 57.3683 77.9363 68.5028 74.54 79.819C71.9225 73.0959 67.991 66.7622 65.0403 60.1483C63.065 56.0744 61.1749 51.9583 59.1597 47.9041C56.8481 43.2536 54.3861 38.6864 52.5813 33.8066C58.9648 36.2214 65.0788 39.2371 71.4611 41.673L84.088 34.6075C86.2266 33.4108 88.7304 32.2908 90.6139 30.7209Z"/>
	<path fill="#6AAE6F" d="M144.547 84.7325C146.5 84.3377 166.757 92.5564 169.96 93.7378C168.97 106.839 172.173 118.348 165.153 130.418C160.931 137.677 154.292 143.61 146.052 145.781Q145.766 145.807 145.478 145.811C140.874 145.873 134.497 141.284 131.284 138.123C118.295 125.346 120.674 110.399 120.495 93.8043L144.547 84.7325Z"/>
	<path fill="#FEFEFE" d="M154.861 104.439C155.739 104.523 158.62 107.813 159.467 108.56C153.821 114.589 147.754 120.294 141.973 126.203C140.003 123.964 137.763 121.895 135.658 119.78C134.161 118.274 132.672 116.776 131.076 115.373C132.519 113.861 134.037 112.416 135.528 110.952Q138.744 114.177 141.899 117.461C146.408 113.386 150.606 108.788 154.861 104.439Z"/>
</svg>
