<svg xmlns="http://www.w3.org/2000/svg" width="227" height="297" viewBox="0 0 227 297">
    <g fill="none" fill-rule="evenodd">
        <g fill-rule="nonzero" opacity=".609">
            <path fill="#FFF" stroke="#5BCF9C" stroke-width="2" d="M42 40h178.008a3 3 0 0 1 3 3v250a3 3 0 0 1-3 3H42a3 3 0 0 1-3-3V43a3 3 0 0 1 3-3z"/>
            <path fill="#91D8B8" d="M50.968 99.883h172.04V296H50.968z"/>
            <path fill="#D0F4DC" d="M49.472 99.883h142.12V296H49.472z"/>
            <path fill="#97EBC6" stroke="#86DAB5" stroke-width="2" d="M56.96 48.982H223a3 3 0 0 1 3 3V98.38a3 3 0 0 1-3 3H56.96a3 3 0 0 1-3-3V51.982a3 3 0 0 1 3-3zM56.96 113.357H223a3 3 0 0 1 3 3v46.397a3 3 0 0 1-3 3H56.96a3 3 0 0 1-3-3v-46.397a3 3 0 0 1 3-3zM56.96 180.725H223a3 3 0 0 1 3 3v46.398a3 3 0 0 1-3 3H56.96a3 3 0 0 1-3-3v-46.398a3 3 0 0 1 3-3zM56.96 243.602H223a3 3 0 0 1 3 3V293a3 3 0 0 1-3 3H56.96a3 3 0 0 1-3-3v-46.398a3 3 0 0 1 3-3z"/>
            <g transform="translate(50.968 48.982)">
                <path fill="#D0F4DC" stroke="#5BCF9C" stroke-width="2" d="M0 63.914h152.584a3 3 0 0 1 3 3v45.821a3 3 0 0 1-3 3H0V63.914z"/>
                <ellipse cx="127.06" cy="90.688" fill="#FFF" stroke="#5BCF9C" stroke-width="2" rx="11.237" ry="11.228"/>
                <path fill="#5BCF9C" d="M20.745 89.825h81.249v3.454h-81.25z"/>
                <path fill="#D0F4DC" stroke="#5BCF9C" stroke-width="2" d="M0 0h152.584a3 3 0 0 1 3 3v45.822a3 3 0 0 1-3 3H0V0z"/>
                <ellipse cx="127.06" cy="26.775" fill="#FFF" stroke="#5BCF9C" stroke-width="2" rx="11.237" ry="11.228"/>
                <path fill="#5BCF9C" d="M20.745 25.91h81.249v3.456h-81.25z"/>
                <path fill="#D0F4DC" stroke="#5BCF9C" stroke-width="2" d="M0 195.196h152.584a3 3 0 0 1 3 3v45.822a3 3 0 0 1-3 3H0v-51.822z"/>
                <ellipse cx="127.06" cy="221.97" fill="#FFF" stroke="#5BCF9C" stroke-width="2" rx="11.237" ry="11.228"/>
                <path fill="#5BCF9C" d="M20.745 221.107h81.249v3.455H20.745z"/>
                <path fill="#D0F4DC" stroke="#5BCF9C" stroke-width="2" d="M0 131.282h152.584a3 3 0 0 1 3 3v45.822a3 3 0 0 1-3 3H0v-51.822z"/>
                <ellipse cx="127.06" cy="158.057" fill="#FFF" stroke="#5BCF9C" stroke-width="2" rx="11.237" ry="11.228"/>
                <path fill="#5BCF9C" d="M20.745 157.193h81.249v3.455h-81.25z"/>
            </g>
        </g>
        <circle cx="60" cy="60" r="60" fill="#69F0AE"/>
        <g fill="#FFF">
            <path d="M36.674 24.05a3.072 3.072 0 0 0-3.08 3.08c0 1.74 1.339 3.08 3.08 3.08 28.594 0 51.897 23.236 51.897 51.83 0 1.674 1.34 3.08 3.08 3.08 1.675 0 3.081-1.339 3.081-3.08-.067-32.009-26.116-57.99-58.058-57.99z"/>
            <path d="M36.674 41.527a3.072 3.072 0 0 0-3.08 3.08c0 1.741 1.339 3.08 3.08 3.08 19.018 0 34.42 15.402 34.42 34.353 0 1.674 1.339 3.08 3.08 3.08 1.674 0 3.08-1.339 3.08-3.08-.067-22.366-18.214-40.513-40.58-40.513z"/>
            <path d="M36.674 58.938a3.072 3.072 0 0 0-3.08 3.08c0 1.74 1.339 3.08 3.08 3.08 9.375 0 17.009 7.567 17.009 16.942 0 1.674 1.34 3.08 3.08 3.08 1.741 0 3.08-1.339 3.08-3.08-.066-12.723-10.446-23.103-23.169-23.103zM36.674 76.415c-3.08 0-5.625 2.545-5.625 5.625 0 3.147 2.545 5.692 5.625 5.692a5.687 5.687 0 0 0 5.692-5.692c-.067-3.147-2.612-5.625-5.692-5.625z"/>
        </g>
    </g>
</svg>
