<?xml version="1.0" encoding="UTF-8"?>
<svg width="27px" height="15px" viewBox="0 0 27 15" version="1.1" xmlns="http://www.w3.org/2000/svg" xmlns:xlink="http://www.w3.org/1999/xlink">
    <!-- Generator: Sketch 46.2 (44496) - http://www.bohemiancoding.com/sketch -->
    <title>Group 9</title>
    <desc>Created with Sketch.</desc>
    <defs></defs>
    <g stroke="none" stroke-width="1" fill="#535353" fill-rule="evenodd">
        <g transform="translate(-1148.000000, -758.000000)">
            <g transform="translate(1148.000000, 758.000000)">
                <path d="M13.0527344,15 L10.5917969,15 L10.5917969,0.78125 L13.0527344,0.78125 L13.0527344,15 Z M18.5605469,9.71679688 L18.5605469,15 L16.0898438,15 L16.0898438,0.78125 L21.5292969,0.78125 C23.1178465,0.78125 24.3792271,1.19465732 25.3134766,2.02148438 C26.247726,2.84831143 26.7148438,3.94205049 26.7148438,5.30273438 C26.7148438,6.69597051 26.2574916,7.77994404 25.3427734,8.5546875 C24.4280553,9.32943096 23.1471437,9.71679688 21.5,9.71679688 L18.5605469,9.71679688 Z M18.5605469,7.734375 L21.5292969,7.734375 C22.4082075,7.734375 23.0787737,7.52767134 23.5410156,7.11425781 C24.0032575,6.70084429 24.234375,6.10351953 24.234375,5.32226562 C24.234375,4.55403262 24.0000023,3.94043198 23.53125,3.48144531 C23.0624977,3.02245864 22.4179729,2.7864584 21.5976562,2.7734375 L18.5605469,2.7734375 L18.5605469,7.734375 Z"></path>
                <polygon points="5 7 5 4 3 4 3 7 0 7 0 9 3 9 3 12 5 12 5 9 8 9 8 7"></polygon>
            </g>
        </g>
    </g>
</svg>