<?xml version="1.0" encoding="utf-8"?>
<svg shape-rendering="geometricPrecision" text-rendering="geometricPrecision" image-rendering="optimizeQuality" fill-rule="evenodd" clip-rule="evenodd" viewBox="0 0 19 19" xmlns="http://www.w3.org/2000/svg">
  <path d="M 8.37 0 C 10.682 0 12.775 0.937 14.29 2.452 C 15.804 3.967 16.741 6.059 16.741 8.371 C 16.741 10.062 16.24 11.636 15.377 12.952 L 19 16.901 L 16.502 19 L 13.008 15.34 C 11.681 16.225 10.086 16.741 8.37 16.741 C 6.059 16.741 3.966 15.804 2.452 14.29 C 0.937 12.775 0 10.682 0 8.37 C 0 6.059 0.937 3.966 2.452 2.452 C 3.966 0.937 6.059 0 8.37 0 Z M 7.769 6.674 C 8.221 6.674 8.587 7.04 8.587 7.492 C 8.587 7.944 8.221 8.31 7.769 8.31 C 7.317 8.31 6.951 7.944 6.951 7.492 C 6.951 7.04 7.317 6.674 7.769 6.674 Z M 2.063 8.112 C 2.974 6.945 3.99 6.014 5.07 5.388 C 6.127 4.774 7.246 4.45 8.387 4.476 C 9.456 4.501 10.534 4.837 11.587 5.452 C 12.637 6.065 13.669 6.958 14.649 8.097 L 14.853 8.333 L 14.68 8.591 C 13.886 9.779 12.914 10.705 11.85 11.331 C 10.761 11.972 9.575 12.299 8.381 12.274 C 7.225 12.249 6.067 11.894 4.988 11.265 C 3.909 10.636 2.905 9.732 2.058 8.611 L 1.87 8.361 L 2.063 8.112 L 2.063 8.112 Z M 8.363 6.266 C 8.944 6.266 9.472 6.503 9.854 6.885 C 10.235 7.266 10.471 7.794 10.471 8.375 C 10.471 8.956 10.235 9.484 9.854 9.865 C 9.472 10.247 8.944 10.483 8.363 10.483 C 7.782 10.483 7.255 10.247 6.873 9.865 C 6.491 9.484 6.254 8.956 6.254 8.375 C 6.254 7.794 6.49 7.268 6.873 6.885 C 7.256 6.502 7.783 6.266 8.363 6.266 L 8.363 6.266 Z M 5.48 6.096 C 4.568 6.625 3.7 7.398 2.906 8.366 C 3.644 9.286 4.494 10.03 5.398 10.557 C 6.361 11.119 7.385 11.435 8.397 11.457 C 9.439 11.478 10.478 11.191 11.437 10.627 C 12.318 10.108 13.133 9.355 13.822 8.394 C 12.967 7.439 12.076 6.686 11.174 6.16 C 10.237 5.613 9.293 5.314 8.371 5.293 C 7.386 5.271 6.41 5.556 5.48 6.096 L 5.48 6.096 Z M 13.629 3.112 C 12.284 1.767 10.424 0.934 8.37 0.934 C 6.317 0.934 4.458 1.767 3.112 3.112 C 1.766 4.458 0.934 6.317 0.934 8.37 C 0.934 10.424 1.766 12.284 3.112 13.629 C 4.458 14.975 6.317 15.807 8.37 15.807 C 10.424 15.807 12.284 14.975 13.629 13.629 C 14.975 12.284 15.807 10.425 15.807 8.37 C 15.807 6.317 14.975 4.458 13.629 3.112 L 13.629 3.112 Z" style="fill: rgb(83, 83, 83);"/>
</svg>
