<svg xmlns="http://www.w3.org/2000/svg" width="25" height="22" viewBox="0 0 25 22">
    <g fill="#535353" fill-rule="evenodd">
        <path d="M15.938 9.359c-2.39-.484-1.088-1.614-3.357-2.475-1.154-.438-.463 1.428-.458 2.076.002.138-.058.279-.157.42-.695.325-1.317.748-1.821 1.321-.702-.936-5.517-2.61-4.253-.19 1.47 2.814 3.983 1.456 1.272 5.277 3.208.713 2.357-4.37 5.743-2.823-1.352.431-.82 5.06.932 1.773.624-1.17.244-1.534 1.682-1.853 1.007-.224 2.792-.69 2.653-1.997-.1-.949-1.453-1.371-2.236-1.53z"/>
        <path d="M21.412 2.285C21.37 1.419 20.43.857 18.38.467 16.798.166 14.707 0 12.493 0c-2.215 0-4.306.166-5.887.467-2.056.391-2.996.956-3.032 1.831C1.27 4.625 0 7.69 0 10.938 0 17.31 5.023 21.59 12.5 21.59S25 17.31 25 10.937c0-3.254-1.274-6.325-3.588-8.652zm-8.919-.68c3.581 0 5.822.424 6.802.742-.98.318-3.22.741-6.802.741-3.58 0-5.821-.423-6.801-.741.98-.318 3.22-.741 6.801-.741zm.007 18.38c-6.607 0-10.876-3.551-10.876-9.048 0-2.725 1.04-5.322 2.932-7.322.484.24 1.156.441 2.05.611 1.58.302 3.671.467 5.888.467s4.308-.165 5.887-.467c.901-.171 1.577-.374 2.061-.617 1.893 2 2.934 4.599 2.934 7.328 0 5.497-4.269 9.048-10.876 9.048z"/>
    </g>
</svg>
