<svg xmlns="http://www.w3.org/2000/svg" width="317" height="170" viewBox="0 0 317 170">
    <g fill="none" fill-rule="evenodd">
        <path fill="#CC66A1" d="M191.325 98.352a14.987 14.987 0 0 1-14.996 15.072c-8.435 0-14.996-6.83-14.996-15.072 0-8.242 6.795-15.07 14.996-15.07a14.987 14.987 0 0 1 14.996 15.07"/>
        <path fill="#D1D4D1" d="M176.095 32.415c-11.013 0-22.728 26.61-22.728 65.937s11.715 65.938 22.728 65.938c2.578 0 4.92-1.413 7.498-4.003-1.406-1.649-2.343-4.004-2.343-6.359 0-5.887 5.155-10.597 11.013-9.89 4.217-12.481 6.56-28.73 6.56-45.686.235-39.327-11.715-65.937-22.728-65.937m0 136.585c-15.465 0-27.415-31.085-27.415-70.648 0-39.562 12.185-70.647 27.415-70.647 15.465 0 27.649 31.085 27.649 70.647 0 18.604-2.812 36.03-7.732 49.454l-.703 2.12-2.11-.707c-.702-.236-1.17-.236-1.874-.236-2.812 0-5.155 2.355-5.155 5.181 0 1.648.703 3.297 2.11 4.239l1.874 1.413-1.406 1.884c-3.75 4.71-7.967 7.3-12.653 7.3"/>
        <path fill="#BCBCBC" d="M263.167 29.54c-21.139 4.725-45.41 14.489-68.506 27.718-38.364 21.733-66.55 47.876-70.073 65.515-.783 4.094 0 7.56 1.958 10.079 13.31 14.489 60.285 3.78 111.568-25.198 40.32-22.678 67.723-47.246 70.855-63.94.783-4.725 0-8.505-3.132-11.654-2.74-2.835-7.046-4.725-12.527-5.355-1.174 2.835-3.132 5.67-6.263 7.245-3.524 1.89-7.83 2.834-12.527 2.204-4.307-.63-8.221-2.52-10.57-5.354 0-.315-.391-.945-.783-1.26M146.902 145.45c-12.919 0-21.923-3.149-27.012-8.818-3.131-3.78-4.306-8.82-3.131-14.804 3.914-19.214 33.274-47.247 73.204-69.61 25.445-14.174 51.673-24.883 74.378-29.293l3.915-.63 1.174 3.15c.391.945.783 1.575 1.175 2.205 1.174 1.575 3.523 2.52 5.48 2.834 2.349.315 4.698 0 6.655-1.26 2.35-1.26 3.524-3.464 3.524-5.669v-3.15l3.914.315c10.178.315 17.616 3.15 21.922 8.19 4.307 4.41 5.872 10.08 4.307 16.378-3.524 18.584-31.318 44.097-74.379 68.35-40.713 22.364-73.204 31.813-95.126 31.813"/>
        <path fill="#AAA" d="M129.7 85.4c7.733 10.598 19.45 21.901 33.508 31.792 25.774 18.133 51.08 25.433 61.859 23.078 2.577-.47 4.217-1.648 5.154-3.061 7.03-12.481-8.904-35.088-41.004-57.696-29.993-20.959-59.282-29.436-66.78-18.84-1.406 2.12-1.875 4.946-.937 8.479 2.343-.236 4.452.47 6.56 1.648 2.11 1.413 3.515 3.768 3.984 6.358.469 2.59-.234 5.18-1.64 7.536-.235.235-.469.47-.703.707m90.68 60.05c-14.997 0-38.897-9.42-59.75-24.256-15.231-10.597-27.884-23.078-35.85-34.617l-1.407-1.884 1.875-1.413c.469-.471.937-.706 1.172-1.177.703-1.178 1.171-2.591.937-4.004-.234-1.413-.937-2.59-2.109-3.297-1.406-.942-3.046-1.177-4.686-.706l-2.343.706-.703-2.355c-1.875-6.123-1.406-11.068 1.171-14.6 10.544-14.6 44.989-2.12 73.34 17.897 35.147 24.727 50.846 48.747 41.943 63.818-1.64 2.59-4.218 4.474-8.201 5.18-1.64.472-3.515.708-5.39.708"/>
        <path fill="#E08686" d="M267.365 4.796c-9.69 6.663-12.239 20.5-5.1 30.24 3.06 4.612 8.16 7.687 13.77 8.712 1.02 0 2.55.512 3.569.512 4.59 0 8.669-1.537 12.239-4.1 4.59-3.075 7.649-8.2 8.669-13.838 1.53-5.638 0-11.276-3.06-16.4-6.629-9.738-20.398-12.301-30.087-5.126z"/>
        <path fill="#FFF" d="M278.216 26.32h2.77v2.77h-2.77v-2.77zm0-11.082h2.77v8.311h-2.77v-8.311zm1.371-6.927c-7.645 0-13.837 6.206-13.837 13.853 0 7.646 6.192 13.852 13.837 13.852 7.66 0 13.866-6.206 13.866-13.852 0-7.647-6.206-13.853-13.865-13.853zm.014 24.935c-6.122 0-11.08-4.96-11.08-11.082 0-6.123 4.958-11.082 11.08-11.082 6.123 0 11.081 4.96 11.081 11.082 0 6.123-4.958 11.082-11.08 11.082z"/>
        <path fill="#3EEC93" d="M127.826 70.8a10.027 10.027 0 0 0-13.824 2.355c-3.046 4.474-2.11 10.597 2.343 13.894 1.64 1.177 3.749 1.884 5.623 1.884.469 0 1.172 0 1.64-.236 2.578-.47 4.921-1.884 6.327-4.003 3.515-4.71 2.343-10.833-2.109-13.894"/>
        <path fill="#F29C1F" d="M191.325 144.038c-5.39 0-9.84 4.474-9.84 9.89 0 5.417 4.45 9.891 9.84 9.891s9.841-4.474 9.841-9.89c0-5.417-4.451-9.891-9.84-9.891"/>
        <text fill="#11BA64" font-family="Open Sans, Open Sans" font-size="13">
            <tspan x="59" y="79">Debian</tspan>
        </text>
        <text fill="#BCBCBC" font-family="Open Sans, Open Sans" font-size="13">
            <tspan x="111" y="34">CentOS</tspan>
        </text>
        <text fill="#BCBCBC" font-family="Open Sans, Open Sans" font-size="13">
            <tspan x="0" y="139">CloudLinux 64 bit</tspan>
        </text>
        <text fill="#CC66A1" font-family="Open Sans, Open Sans" font-size="13">
            <tspan x="211" y="82">Ubuntu</tspan>
        </text>
        <text fill="#F29C1F" font-family="Open Sans, Open Sans" font-size="13">
            <tspan x="206" y="169">RedHat</tspan>
        </text>
    </g>
</svg>
