<svg xmlns="http://www.w3.org/2000/svg" width="15" height="19" viewBox="0 0 15 19">
    <path fill="#535353" fill-rule="evenodd" d="M13.742.2a1.079 1.079 0 0 0-.937.563L10.1 5.387A4.264 4.264 0 0 0 8.35 5.21a3.064 3.064 0 0 0-1.323.469 2.458 2.458 0 0 0-.653.627c-.416.613-.85 1.224-1.355 1.767-.342.369-.72.704-1.122 1.007-.528.4-1.095.746-1.672 1.07a38.9 38.9 0 0 1-1.799.945.414.414 0 0 0-.171.152.425.425 0 0 0-.057.215.397.397 0 0 0 .203.348l1.944 1.375a.412.412 0 0 0 .216.076c.066.003.131-.015.196-.025.253-.045.506-.104.748-.19a3.893 3.893 0 0 1-.21.31.412.412 0 0 0-.075.215.428.428 0 0 0 .19.368c.458.325.921.65 1.38.975a.404.404 0 0 0 .216.07.391.391 0 0 0 .209-.044c.053-.03.104-.072.152-.108.199-.153.378-.333.538-.526.103-.123.2-.249.292-.38a2.342 2.342 0 0 1-.133.5 4.15 4.15 0 0 1-.336.697.424.424 0 0 0-.05.228.4.4 0 0 0 .075.222c.034.047.085.082.133.114.357.252.714.509 1.07.76a.398.398 0 0 0 .216.07.42.42 0 0 0 .235-.063c.059-.038.103-.09.152-.14.095-.1.184-.211.266-.323.013.09.009.187.012.279.004.11-.007.217-.031.323-.015.072-.047.141-.045.215 0 .072.021.141.057.203.034.057.085.11.14.146l1.159.817a.411.411 0 0 0 .59-.14.426.426 0 0 0 .05-.209c.011-.424.081-.848.177-1.26.15-.64.373-1.259.634-1.862.247-.572.53-1.127.842-1.666.253-.443.5-.892.76-1.33l.729-1.249c.038-.068.073-.138.107-.209.15-.336.22-.708.21-1.076a3.203 3.203 0 0 0-.425-1.47 4.275 4.275 0 0 0-.855-1.064l2.736-4.681c.114-.202.151-.437.114-.665a1.06 1.06 0 0 0-1.045-.894zm-.006.81a.258.258 0 0 1 .228.12c.041.07.04.165 0 .235l-2.825 4.827c-.033.058-.066.11-.095.17a.398.398 0 0 0 .108.469c.121.096.238.202.348.31.348.345.63.757.785 1.223.105.318.147.664.089.995-1.686-.96-3.369-1.921-5.055-2.882.062-.05.128-.098.196-.14.315-.192.674-.29 1.04-.323a3.496 3.496 0 0 1 1.469.203c.064.021.123.052.19.063a.41.41 0 0 0 .24-.031.417.417 0 0 0 .172-.159c.965-1.65 1.93-3.296 2.894-4.947a.25.25 0 0 1 .216-.133z"/>
</svg>
