<svg xmlns="http://www.w3.org/2000/svg" width="94" height="94" viewBox="0 0 94 94">
    <g fill="none" fill-rule="evenodd" transform="translate(2 2)">
        <circle cx="44.775" cy="44.775" r="44.775" fill="#FCFDFF" stroke="#00A7DF" stroke-width="3"/>
        <g fill="#00A7DF">
            <path d="M59.517 63.781H30.034c-1.882 0-3.294-1.568-3.294-3.293v-29.64c0-1.882 1.569-3.293 3.294-3.293h29.483c1.882 0 3.293 1.568 3.293 3.293V60.33c.157 1.882-1.411 3.45-3.293 3.45zM30.034 29.907c-.47 0-.941.47-.941.94v29.484c0 .47.47.941.94.941h29.484c.47 0 .94-.314.94-.94V30.847c0-.47-.47-.941-.94-.941H30.034z"/>
            <path d="M52.46 55.94H37.248a2.811 2.811 0 0 1-2.823-2.823V37.905a2.811 2.811 0 0 1 2.823-2.823H52.46a2.811 2.811 0 0 1 2.823 2.823v15.212c-.157 1.568-1.412 2.823-2.823 2.823zM37.09 37.748c-.156 0-.156 0-.156.157v15.212c0 .314 0 .314.157.314h15.212c.314 0 .314 0 .314-.157V38.062c0-.314 0-.314-.157-.314H37.09zM61.712 33.044h7.057v2.509h-7.057zM61.712 40.572h7.057v2.509h-7.057zM61.712 48.099h7.057v2.509h-7.057zM61.712 55.627h7.057v2.509h-7.057zM20.937 33.044h7.057v2.509h-7.057zM20.937 40.572h7.057v2.509h-7.057zM20.937 48.099h7.057v2.509h-7.057zM20.937 55.627h7.057v2.509h-7.057zM54.812 62.527h2.51v7.057h-2.51zM47.284 62.527h2.51v7.057h-2.51zM39.757 62.527h2.51v7.057h-2.51zM32.23 62.527h2.508v7.057H32.23zM54.812 21.596h2.51v7.057h-2.51zM47.284 21.596h2.51v7.057h-2.51zM39.757 21.596h2.51v7.057h-2.51zM32.23 21.596h2.508v7.057H32.23z"/>
        </g>
    </g>
</svg>
