<svg xmlns="http://www.w3.org/2000/svg" width="33" height="25" viewBox="0 0 33 25">
    <path fill="#535353" fill-rule="evenodd" d="M27.017 6.83C20.721 5.532 24.15 2.493 18.175.178 15.133-1 16.954 4.017 16.968 5.758c.004.371-.155.75-.414 1.132-1.83.87-3.47 2.008-4.798 3.55C9.908 7.922-2.777 3.421.555 9.927c3.873 7.568 10.49 3.917 3.348 14.191 8.451 1.916 6.211-11.75 15.129-7.592-3.561 1.16-2.158 13.604 2.456 4.767 1.644-3.143.643-4.125 4.43-4.982 2.653-.6 7.354-1.854 6.99-5.37-.264-2.55-3.83-3.685-5.89-4.11z"/>
</svg>
