<svg xmlns="http://www.w3.org/2000/svg" width="24" height="15" viewBox="0 0 24 15">
    <path fill="#B5BBC1" fill-rule="nonzero" d="M22.674 3.606a1.328 1.328 0 0 0-1.08 2.096l-5.93 4.349-3.15-7.497A1.33 1.33 0 0 0 12 0a1.329 1.329 0 1 0-.515 2.554L8.336 10.05l-5.93-4.35a1.328 1.328 0 0 0-1.08-2.096C.594 3.606 0 4.202 0 4.936c0 .734.594 1.329 1.326 1.329a1.3 1.3 0 0 0 .333-.048L3.902 15h16.196l2.243-8.784a1.3 1.3 0 0 0 .333.048c.732 0 1.326-.595 1.326-1.33 0-.733-.594-1.328-1.326-1.328z"/>
</svg>
