<svg xmlns="http://www.w3.org/2000/svg" width="17" height="20" viewBox="0 0 17 20">
    <g fill="none" fill-rule="evenodd">
        <path d="M-3-1h22v22H-3z"/>
        <path fill="#535353" d="M15.455 2.464a.73.73 0 0 1 .735.724c0 .4-.329.725-.735.725h-.01a.152.152 0 0 0-.154.146l-.53 14.086C14.724 19.173 13.85 20 12.806 20h-9.42c-1.045 0-1.918-.828-1.956-1.855L.899 4.059a.152.152 0 0 0-.153-.146h-.01A.73.73 0 0 1 0 3.188c0-.4.33-.724.736-.724h3.588c.08 0 .165-.064.186-.139l.24-.827C4.997.65 5.872 0 6.768 0h2.654c.897 0 1.772.65 2.018 1.498l.24.827a.204.204 0 0 0 .187.139h3.588zM7.506 6.522v9.855c0 .32.264.58.59.58.324 0 .588-.26.588-.58V6.522c0-.32-.264-.58-.589-.58a.584.584 0 0 0-.589.58zm-3.237.017l.294 9.855c.01.32.28.572.606.562a.584.584 0 0 0 .571-.596l-.294-9.855a.585.585 0 0 0-.606-.563.584.584 0 0 0-.571.597zm6.476-.034l-.295 9.855c-.01.32.247.587.572.596a.585.585 0 0 0 .605-.562l.295-9.855a.584.584 0 0 0-.571-.597.585.585 0 0 0-.606.563zM6.15 2.464h3.89c.084 0 .132-.062.11-.138l-.125-.43c-.066-.226-.363-.447-.603-.447H6.768c-.239 0-.537.221-.602.448l-.125.43c-.022.076.027.137.11.137z"/>
    </g>
</svg>
