<svg xmlns="http://www.w3.org/2000/svg" width="54" height="56" viewBox="0 0 54 56">
    <path fill="#D3D3D3" fill-rule="nonzero" d="M27 .403C12.089.403 0 12.672 0 27.806 0 42.94 12.089 55.209 27 55.209s27-12.27 27-27.403C54 12.672 41.917.403 27 .403zm.043 44.02c-1.491 0-2.7-1.228-2.7-2.741 0-1.514 1.209-2.74 2.7-2.74s2.7 1.226 2.7 2.74c0 1.513-1.209 2.74-2.7 2.74zm4.252-29.627v.012c-.006.38-.06.748-.153 1.096L28.724 32.9c0 .966-.767 1.744-1.718 1.744a1.728 1.728 0 0 1-1.718-1.744L22.87 15.904a4.294 4.294 0 0 1-.153-1.096v-.074c0-2.41 1.92-4.36 4.295-4.36s4.296 1.95 4.296 4.36c-.013.018-.013.037-.013.062z"/>
</svg>
