<svg width="22" height="22" viewBox="0 0 22 22" xmlns="http://www.w3.org/2000/svg">
 <g>
  <title>background</title>
  <rect x="-1" y="-1" width="24" height="24" id="canvas_background" fill="none"/>
 </g>

 <g>
  <title>Layer 1</title>
  <ellipse stroke="null" ry="10.968646" rx="10.968644" id="svg_2" cy="10.968646" cx="10.968644" stroke-opacity="null" stroke-width="null" fill="#ffffff"/>
  <path stroke="null" fill="#394A94" fill-rule="nonzero" d="m12.424899,15.0475l-5.917379,3.295042l0.141196,-2.306527c0.048481,-0.80684 0.01701,-2.15157 -0.255169,-2.903199l-1.815107,-4.527559c-0.27218,-0.75163 -0.01701,-1.801588 0.569879,-2.343933l1.00452,-0.929733a1.17463,1.229849 0 0 1 0.531604,-1.587857a1.17463,1.229849 0 0 1 1.554831,0.427463l1.297112,-0.352657c0.757852,-0.204823 1.731746,0.160301 2.174889,0.815748l2.570409,4.107218c0.442297,0.656337 1.48934,1.436465 2.156181,1.845228l1.905266,1.166619l-5.918231,3.295042l0,-0.000897zm-1.386418,1.428445c0.017863,0.040965 0.028069,0.083715 0.048481,0.12379c0.476318,0.937746 1.603313,1.284176 2.518519,0.774777c0.915207,-0.509393 1.271593,-1.682252 0.795282,-2.619998c-0.020412,-0.040075 -0.048481,-0.072138 -0.07145,-0.111324l-3.290832,1.832755z" id="svg_1"/>
 </g>
</svg>