<?xml version="1.0" encoding="UTF-8"?>
<svg width="26px" height="20px" viewBox="0 0 26 20" version="1.1" xmlns="http://www.w3.org/2000/svg" xmlns:xlink="http://www.w3.org/1999/xlink">
    <!-- Generator: Sketch 51.2 (57519) - http://www.bohemiancoding.com/sketch -->
    <title>Group</title>
    <desc>Created with Sketch.</desc>
    <defs></defs>
    <g stroke="none" stroke-width="1" fill="none" fill-rule="evenodd">
        <g transform="translate(0.000000, -2.000000)">
            <g transform="translate(0.000000, 3.000000)" fill="#2CB465" fill-rule="nonzero">
                <path d="M1,1.27 L3.28,3.55 L3.74,4.01 C2.08,5.3 0.78,7.02 0,9 C1.73,13.39 6,16.5 11,16.5 C12.55,16.5 14.03,16.2 15.38,15.66 L15.8,16.08 L18.73,19 L20,17.73 L2.27,0 L1,1.27 Z M6.53,6.8 L8.08,8.35 C8.03,8.56 8,8.78 8,9 C8,10.66 9.34,12 11,12 C11.22,12 11.44,11.97 11.65,11.92 L13.2,13.47 C12.53,13.8 11.79,14 11,14 C8.24,14 6,11.76 6,9 C6,8.21 6.2,7.47 6.53,6.8 Z"></path>
            </g>
            <g transform="translate(10.000000, 0.000000)">
                <path d="M0,0 L18,0 L18,18 L0,18 L0,0 Z M0,0 L18,0 L18,18 L0,18 L0,0 Z M0,0 L18,0 L18,18 L0,18 L0,0 Z M0,0 L18,0 L18,18 L0,18 L0,0 Z"></path>
                <path d="M8.00363802,4.94736842 C10.0118236,4.94736842 11.6416553,6.59789474 11.6416553,8.63157895 C11.6416553,9.11052632 11.5470668,9.56 11.3797181,9.98 L13.5043201,12.1315789 C14.6030014,11.2031579 15.4688495,10.0021053 16,8.63157895 C14.741246,5.39684211 11.6343793,3.10526316 7.99636198,3.10526316 C6.97771714,3.10526316 6.00272851,3.28947368 5.10050023,3.62105263 L6.67212369,5.21263158 C7.08685766,5.04315789 7.53069577,4.94736842 8.00363802,4.94736842 Z M0.727603456,2.93578947 L2.38653934,4.61578947 L2.72123693,4.95473684 C1.51341519,5.90526316 0.567530696,7.17263158 0,8.63157895 C1.25875398,11.8663158 4.36562074,14.1578947 8.00363802,14.1578947 C9.13142337,14.1578947 10.2082765,13.9368421 11.1905412,13.5389474 L11.4961346,13.8484211 L13.6280127,16 L14.5520691,15.0642105 L1.65165985,2 L0.727603456,2.93578947 Z M4.75125057,7.01052632 L5.87903593,8.15263158 C5.84265575,8.30736842 5.82082765,8.46947368 5.82082765,8.63157895 C5.82082765,9.85473684 6.79581628,10.8421053 8.00363802,10.8421053 C8.16371078,10.8421053 8.32378354,10.82 8.47658026,10.7831579 L9.60436562,11.9252632 C9.11687131,12.1684211 8.57844475,12.3157895 8.00363802,12.3157895 C5.99545248,12.3157895 4.36562074,10.6652632 4.36562074,8.63157895 C4.36562074,8.04947368 4.51114143,7.50421053 4.75125057,7.01052632 Z M7.88722146,6.43578947 L10.1791724,8.75684211 L10.1937244,8.63894737 C10.1937244,7.41578947 9.21873579,6.42842105 8.01091405,6.42842105 L7.88722146,6.43578947 Z" fill="#2CB465" fill-rule="nonzero"></path>
            </g>
        </g>
    </g>
</svg>