<svg xmlns="http://www.w3.org/2000/svg" xmlns:xlink="http://www.w3.org/1999/xlink" width="80" height="79" viewBox="0 0 80 79">
    <defs>
        <path d="M0 .64v26.127h26.726V.639H0z"/>
    </defs>
    <g fill="none" fill-rule="evenodd" opacity=".45">
        <path fill="#A6A8A6" d="M38.494 7.44c.917-2.498 1.682-4.994 2.752-7.44 1.631 3.516 2.701 7.287 4.332 10.752 4.025 1.58 8.407 2.242 12.484 3.77-8.764 4.384-17.682 8.614-26.6 12.741 2.19-6.675 4.688-13.199 7.032-19.823zM23.441 14.954c4.036-2.15 7.963-4.519 11.999-6.67-3.229 9.899-6.887 19.635-10.17 29.535-3.603-6.779-6.724-13.827-10.113-20.712-1.077-2.314-2.314-4.52-3.228-6.886 3.927 1.344 7.586 3.55 11.512 4.733M41.214 25.388c8.931-4.387 17.914-8.774 26.898-13.057-1.463 3.76-3.134 7.365-4.753 11.073 2.089 3.917 4.649 7.625 6.581 11.647-9.61-3.082-19.168-6.32-28.726-9.663"/>
        <g transform="translate(0 20.018)">
            <mask fill="#fff">
                <use xlink:href="#a"/>
            </mask>
            <path fill="#A6A8A6" d="M14.21.64c2.693 5.035 4.987 10.321 7.48 15.456 1.695 3.54 3.49 7.032 5.036 10.67C17.8 23.677 8.875 20.485 0 17.145c3.49-1.597 7.18-2.693 10.72-4.189C11.868 8.817 13.065 4.727 14.21.64" mask="url(#b)"/>
        </g>
        <path fill="#A6A8A6" d="M49.667 30.452c7.457 2.413 14.857 5.154 22.314 7.676 2.358.877 4.88 1.535 7.183 2.686-3.893 1.536-7.84 3.018-11.679 4.551-1.425 4.44-2.412 9.047-3.892 13.487-3.016-5.59-5.647-11.403-8.498-17.105-1.81-3.729-3.783-7.457-5.428-11.295M49.357 49.685c.99-2.815 1.823-5.68 2.97-8.443 1.355 2.345 2.45 4.846 3.7 7.244C59.1 55 62.435 61.356 65.457 67.87c-3.7-1.51-7.347-3.177-11.098-4.742-3.908 2.085-7.609 4.586-11.62 6.566 2.032-6.721 4.48-13.339 6.617-20.008M8.462 43.382c8.447 2.624 16.685 5.771 25.027 8.553 1.26.42 2.518.891 3.673 1.469-9.025 4.144-17.891 8.708-27.021 12.698 1.47-3.674 3.305-7.19 4.722-10.915-1.785-4.093-4.46-7.765-6.401-11.805M26.306 60.797c6.83-3.311 13.606-6.778 20.488-9.93-1.839 6.146-4.203 12.188-6.252 18.334-1.207 3.256-2.154 6.62-3.519 9.823-1.682-3.572-2.89-7.354-4.465-10.98-4.256-1.575-8.721-2.469-13.028-3.676 2.048-1.523 4.57-2.364 6.776-3.571"/>
    </g>
</svg>
