<svg width="179" height="168" viewBox="0 0 179 168" fill="none" xmlns="http://www.w3.org/2000/svg">
<path fill-rule="evenodd" clip-rule="evenodd" d="M111.745 32.6677C108.104 26.1047 104.094 19.759 99.6909 13.6881C98.994 12.7273 98.0114 11.5941 96.9429 11.1852C96.5285 9.47664 93.8107 8.95701 93.5043 10.9838C93.4431 11.386 93.3662 11.771 93.2739 12.1473C93.0256 12.2303 92.7953 12.3813 92.6058 12.6144C87.4675 18.9401 82.9712 25.7211 79.1984 32.9601C78.4493 34.3966 79.6793 35.9618 81.2306 35.6245C85.9158 34.6052 90.7649 34.9552 95.5221 35.0636C100.412 35.1747 105.302 35.2857 110.191 35.3968C111.584 35.4286 112.396 33.8407 111.745 32.6677Z" fill="#78BDA3"/>
<path fill-rule="evenodd" clip-rule="evenodd" d="M78.9925 34.3989H111.953C107.269 24.85 101.729 16.4982 95.4713 9.55206C89.213 16.4996 83.6744 24.8514 78.9925 34.3989ZM113.973 35.6708H76.9729L77.4119 34.7581C82.3537 24.4794 88.2737 15.5371 95.0064 8.1788L95.4713 7.67085L95.9362 8.1788C102.668 15.5352 108.589 24.4776 113.534 34.7576L113.973 35.6708Z" fill="#0A0B09"/>
<path fill-rule="evenodd" clip-rule="evenodd" d="M74.7594 141.408H115.186C116.173 136.839 118.261 132.264 120.466 127.431C123.544 120.688 126.727 113.714 126.727 106.682C126.727 80.9597 121.578 56.5066 111.833 35.9342H78.1163C68.3688 56.5066 63.2189 80.9593 63.2189 106.682C63.2189 113.714 66.4014 120.686 69.4784 127.429C71.6846 132.262 73.7732 136.838 74.7594 141.408ZM116.202 142.671H73.7428L73.6426 142.163C72.7347 137.571 70.6037 132.902 68.3478 127.959C65.2136 121.092 61.9729 113.991 61.9729 106.682C61.9729 80.6216 67.2257 55.8443 77.1642 35.0276L77.3341 34.6708H112.614L112.784 35.0276C122.721 55.8447 127.973 80.622 127.973 106.682C127.973 113.992 124.732 121.094 121.598 127.962C119.342 132.904 117.212 137.572 116.303 142.163L116.202 142.671Z" fill="#0A0B09"/>
<path fill-rule="evenodd" clip-rule="evenodd" d="M73.9534 142.524C74.0397 141.46 73.842 140.565 73.3094 139.704C72.6243 137.144 71.707 134.668 70.5643 132.287C70.8926 131.946 71.0321 131.41 70.7665 130.935C70.4016 130.284 70.0116 129.79 69.4472 129.294C69.3658 129.221 69.2714 129.164 69.1699 129.12C69.1927 129.01 69.2079 128.891 69.2124 128.763C69.2687 127.018 67.5635 124.821 66.7835 123.337C65.4682 120.834 64.284 118.33 64.1789 115.458C64.1641 115.057 63.9101 114.7 63.5756 114.497C63.5792 114.251 63.5769 114.004 63.564 113.75C63.4884 112.316 61.2518 112.307 61.3278 113.75C61.3556 114.274 61.3319 114.763 61.2737 115.243C60.818 116.004 60.4759 116.78 60.2384 117.584C59.7299 117.614 59.2415 117.969 59.1932 118.658C59.1548 119.206 59.0886 119.699 58.9956 120.186C58.9491 120.237 58.9057 120.292 58.869 120.355C57.0166 123.503 55.9379 126.837 55.5242 130.464C55.5215 130.488 55.5265 130.511 55.526 130.535C55.3722 130.666 55.255 130.834 55.2214 131.044C54.7179 134.174 55.102 137.285 55.306 140.403C55.1235 140.592 55.0045 140.842 55.0104 141.14C55.0381 142.546 55.149 143.898 55.327 145.219C55.3176 145.331 55.3118 145.443 55.3006 145.556C55.2697 145.856 55.348 146.089 55.4866 146.262C56.0117 149.415 56.9562 152.412 58.2952 155.524C59.2572 157.759 60.2156 160.01 61.4048 162.136C61.9709 163.149 62.5881 164.342 63.4495 165.219C63.4866 165.746 63.8408 166.247 64.5224 166.247C64.648 166.247 64.7585 166.225 64.8618 166.193C64.9199 166.217 64.9763 166.243 65.0362 166.263C66.296 166.694 68.1744 166.888 69.4168 166.312C70.9829 165.586 71.2079 163.971 71.2781 162.409C71.3479 160.862 71.1435 159.346 71.5272 157.821C71.7821 156.808 72.2526 155.861 72.4427 154.829C72.5952 153.998 72.4382 153.246 72.2021 152.521C72.5997 152.283 72.8702 151.83 72.7222 151.289C72.4829 150.417 73.3997 149.3 73.5894 148.444C73.7665 147.644 73.6135 146.857 73.5165 146.062C73.4114 145.203 73.3362 144.346 73.279 143.488C73.6327 143.31 73.9172 142.972 73.9534 142.524Z" fill="#78BDA3"/>
<path fill-rule="evenodd" clip-rule="evenodd" d="M74.8819 132.353C74.5697 130.277 73.4198 128.385 72.3347 126.567C72.3067 126.472 72.2681 126.376 72.2072 126.278C71.2957 124.818 70.5831 123.335 70.0352 121.698C69.8643 121.188 69.482 120.943 69.0838 120.916C68.9546 120.72 68.8254 120.525 68.6962 120.329C68.4742 119.576 68.2278 118.833 67.9605 118.097C68.0071 117.923 68.0142 117.738 67.9618 117.554C67.5649 116.157 66.9526 115.081 65.9776 114.009C65.7956 113.808 65.5474 113.713 65.2908 113.701C65.245 113.388 65.2104 113.071 65.1944 112.741C65.1265 111.318 62.9061 111.31 62.9744 112.741C63.0419 114.146 63.2901 115.394 63.8229 116.705C63.8593 116.794 63.909 116.878 63.9668 116.957C64.0445 117.25 64.1355 117.534 64.2336 117.814C64.3659 118.609 64.6123 119.318 65.0497 120.051C65.1145 120.159 65.1957 120.249 65.2885 120.323C65.3312 120.439 65.3711 120.558 65.4128 120.676C65.6304 121.547 65.9159 122.404 66.2675 123.26C66.2724 123.275 66.2777 123.291 66.2822 123.306C66.2835 123.305 66.2844 123.305 66.2857 123.305C66.3226 123.394 66.3563 123.482 66.3941 123.571C66.4527 123.707 66.5317 123.814 66.6227 123.897C66.4824 124.138 66.4176 124.42 66.4855 124.701C66.5814 125.098 66.6964 125.482 66.8216 125.86C66.1996 126.067 65.7512 126.72 66.2382 127.395L67.3202 128.898C67.7807 129.536 68.4933 129.543 68.9448 129.174C69.2552 129.978 69.5207 130.796 69.7404 131.646C69.815 131.934 69.9678 132.132 70.1569 132.259C70.4246 132.865 70.7225 133.461 71.0573 134.046C71.0995 134.119 71.1537 134.174 71.2056 134.231C71.1284 136.018 71.1275 137.805 71.2114 139.598C71.2726 140.902 72.9421 141.038 73.3918 139.893C74.3295 137.509 75.2739 134.96 74.8819 132.353Z" fill="#78BDA3"/>
<path fill-rule="evenodd" clip-rule="evenodd" d="M64.0808 165.422H70.0297L74.6845 131.883L63.6756 111.001C62.2719 113.054 58.6246 118.916 56.6182 127.011C54.3255 136.263 53.7737 150.414 64.0808 165.422ZM71.1131 166.671H63.4303L63.2449 166.404C58.4874 159.559 55.5264 152.304 54.4448 144.84C53.5776 138.865 53.9069 132.749 55.4223 126.66C58.0009 116.3 63.0501 109.708 63.2641 109.433L63.8552 108.671L75.9729 131.655L71.1131 166.671Z" fill="#0A0B09"/>
<path fill-rule="evenodd" clip-rule="evenodd" d="M115.992 142.524C115.906 141.46 116.104 140.565 116.636 139.704C117.322 137.144 118.239 134.668 119.381 132.287C119.053 131.946 118.913 131.41 119.179 130.935C119.544 130.284 119.934 129.79 120.498 129.294C120.58 129.221 120.674 129.164 120.775 129.12C120.753 129.01 120.737 128.891 120.733 128.763C120.677 127.018 122.382 124.821 123.162 123.337C124.478 120.834 125.661 118.33 125.767 115.458C125.782 115.057 126.035 114.7 126.37 114.497C126.366 114.251 126.368 114.004 126.382 113.75C126.457 112.316 128.694 112.307 128.618 113.75C128.59 114.274 128.614 114.763 128.672 115.243C129.127 116.004 129.47 116.78 129.707 117.584C130.216 117.614 130.704 117.969 130.753 118.658C130.791 119.206 130.856 119.699 130.95 120.186C130.996 120.237 131.04 120.293 131.076 120.355C132.929 123.503 134.008 126.837 134.422 130.464C134.424 130.488 134.419 130.511 134.419 130.535C134.574 130.666 134.691 130.834 134.724 131.044C135.228 134.174 134.843 137.285 134.64 140.403C134.822 140.592 134.941 140.842 134.935 141.14C134.908 142.546 134.797 143.898 134.618 145.219C134.628 145.331 134.634 145.443 134.645 145.556C134.676 145.856 134.598 146.089 134.459 146.262C133.934 149.416 132.99 152.412 131.651 155.524C130.688 157.759 129.73 160.01 128.541 162.136C127.975 163.149 127.358 164.342 126.496 165.219C126.459 165.746 126.104 166.247 125.424 166.247C125.298 166.247 125.187 166.225 125.083 166.193C125.025 166.217 124.969 166.243 124.91 166.263C123.65 166.694 121.771 166.888 120.529 166.312C118.963 165.586 118.737 163.971 118.667 162.409C118.597 160.862 118.802 159.346 118.418 157.821C118.164 156.808 117.693 155.861 117.503 154.829C117.35 153.998 117.507 153.246 117.744 152.521C117.346 152.283 117.076 151.83 117.224 151.289C117.462 150.417 116.546 149.3 116.356 148.444C116.179 147.644 116.332 146.857 116.429 146.062C116.534 145.203 116.61 144.346 116.667 143.488C116.313 143.31 116.029 142.972 115.992 142.524Z" fill="#78BDA3"/>
<path fill-rule="evenodd" clip-rule="evenodd" d="M126.037 110.981C124.995 111.906 124.689 113.041 124.517 114.229C124.288 114.724 124.059 115.219 123.83 115.715C123.623 116.161 123.679 116.569 123.873 116.873C123.815 116.922 123.762 116.98 123.714 117.045C123.412 117.087 123.11 117.248 122.877 117.559C122.063 118.643 121.541 119.747 121.18 121.057C121.178 121.063 121.178 121.069 121.177 121.076C121.151 121.108 121.123 121.135 121.098 121.17C120.866 121.502 120.635 121.833 120.404 122.165C120.199 122.243 120.013 122.376 119.877 122.574L118.213 125.005C117.991 125.33 117.999 125.682 118.138 125.986C117.879 126.693 117.61 127.396 117.313 128.092C117.217 128.319 117.188 128.549 117.211 128.764C116.161 130.205 115.413 131.602 115.111 133.574C114.782 135.715 115.052 137.832 115.793 139.854C116.171 140.886 117.654 140.999 117.989 139.854C118.446 138.289 118.867 136.717 119.255 135.134C119.291 135.057 119.321 134.973 119.342 134.879C119.633 133.589 119.988 132.333 120.401 131.09C120.913 131.37 121.599 131.124 121.914 130.643C122.897 129.147 123.389 127.616 123.56 125.838C123.791 125.592 124.007 125.31 124.217 124.975C124.426 124.641 124.434 124.315 124.327 124.039C124.485 123.987 124.639 123.896 124.779 123.753C127.086 121.389 127.976 118.418 127.525 115.158C127.488 114.891 127.336 114.687 127.13 114.547C127.474 113.771 127.741 112.959 127.939 112.097C128.201 110.953 126.889 110.223 126.037 110.981Z" fill="#78BDA3"/>
<path fill-rule="evenodd" clip-rule="evenodd" d="M119.914 165.422H125.866C136.172 150.414 135.62 136.263 133.328 127.011C131.322 118.916 127.675 113.054 126.271 111.001L115.262 131.883L119.914 165.422ZM126.516 166.671H118.831L113.973 131.655L114.067 131.477L126.092 108.671L126.683 109.434C126.897 109.708 131.945 116.3 134.524 126.66C136.039 132.749 136.368 138.865 135.501 144.84C134.419 152.304 131.458 159.559 126.702 166.404L126.516 166.671Z" fill="#0A0B09"/>
<path fill-rule="evenodd" clip-rule="evenodd" d="M94.9729 50.9487C87.3833 50.9487 81.2091 57.3288 81.2091 65.1702C81.2091 73.0129 87.3833 79.393 94.9729 79.393C102.563 79.393 108.737 73.0129 108.737 65.1702C108.737 57.3288 102.563 50.9487 94.9729 50.9487ZM94.9729 80.6709C86.7017 80.6709 79.9729 73.7172 79.9729 65.1702C79.9729 56.6245 86.7017 49.6709 94.9729 49.6709C103.244 49.6709 109.973 56.6245 109.973 65.1702C109.973 73.7172 103.244 80.6709 94.9729 80.6709Z" fill="#0A0B09"/>
<path fill-rule="evenodd" clip-rule="evenodd" d="M95.4727 54.92C89.8205 54.92 85.2222 59.518 85.2222 65.1697C85.2222 70.8228 89.8205 75.4212 95.4727 75.4212C101.125 75.4199 105.723 70.821 105.723 65.1697C105.723 59.518 101.125 54.92 95.4727 54.92ZM95.4727 76.6709C89.1318 76.6709 83.9729 71.5115 83.9729 65.1697C83.9729 58.8293 89.1318 53.6709 95.4727 53.6709C101.814 53.6709 106.973 58.8293 106.973 65.1697C106.973 71.5097 101.814 76.6686 95.4727 76.6709Z" fill="#0A0B09"/>
<path fill-rule="evenodd" clip-rule="evenodd" d="M92.9782 166.419H97.9676L101.68 115.679C101.67 113.055 99.8961 110.923 97.7156 110.923H93.233C91.0515 110.923 89.2757 113.055 89.266 115.679L92.9782 166.419ZM99.173 167.671H91.7737L87.9729 115.701C87.9729 112.376 90.3326 109.671 93.233 109.671H97.7156C100.615 109.671 102.973 112.376 102.973 115.701L102.972 115.745L99.173 167.671Z" fill="#0A0B09"/>
<path fill-rule="evenodd" clip-rule="evenodd" d="M87.5557 136.673C86.0478 136.833 83.3399 136.759 82.9815 139.026C82.8792 139.673 83.7183 139.951 83.821 139.299C84.0692 137.731 86.5237 137.812 87.5557 137.703C88.1091 137.644 88.1148 136.614 87.5557 136.673Z" fill="#154C82"/>
<path fill-rule="evenodd" clip-rule="evenodd" d="M108.599 140.069C108.7 140.009 108.779 139.916 108.8 139.8C109.358 136.708 105.109 136.613 102.403 136.921C102.326 136.834 102.222 136.769 102.097 136.755C100.308 136.562 98.6952 136.7 96.9711 137.172C96.0249 137.058 95.0796 136.944 94.1334 136.83C93.9092 136.804 93.7662 136.962 93.713 137.155C93.2541 137.154 92.7957 137.157 92.3377 137.165C92.2602 137.068 92.1515 136.997 92.0122 136.993C90.4306 136.948 88.8884 137.04 87.3274 137.245C87.2669 137.153 87.178 137.075 87.0716 137.03C86.4738 136.779 85.2549 136.957 84.5067 137.468C84.4255 137.503 84.3467 137.539 84.2697 137.579C84.266 137.58 84.2628 137.581 84.2591 137.582C84.2523 137.585 84.2472 137.59 84.2399 137.593C84.2041 137.612 84.1711 137.634 84.1367 137.654C84.0505 137.702 83.9703 137.755 83.8988 137.816C83.6815 137.986 83.5183 138.19 83.4468 138.425C83.4193 138.484 83.3936 138.542 83.3707 138.603C83.3391 138.648 83.3143 138.701 83.3038 138.765C83.3015 138.783 83.2996 138.8 83.2969 138.818C83.2034 139.141 83.1557 139.483 83.1263 139.803C83.1149 139.919 83.147 140.012 83.2015 140.084C83.2034 140.205 83.2084 140.325 83.218 140.445C83.2125 140.472 83.2011 140.494 83.1992 140.524C83.1928 140.646 83.1869 140.769 83.18 140.892C83.0626 140.963 82.9746 141.084 82.9737 141.267C82.9714 141.773 82.9696 141.862 83.0388 142.17C83.0521 142.273 83.064 142.377 83.0814 142.478C83.0722 142.633 83.0677 142.833 83.0562 143.166C83.0512 143.336 83.1419 143.461 83.2639 143.538C83.2634 143.572 83.2625 143.61 83.2625 143.64C83.1167 143.773 83.047 143.983 83.1818 144.195C83.6068 144.863 83.9772 145.089 84.7657 145.005C84.8239 144.999 84.878 144.98 84.9294 144.954C86.1616 145.37 87.6846 145.261 88.9109 145.376C89.0081 145.385 89.0865 145.353 89.1538 145.305C89.5408 145.31 89.9272 145.314 90.3137 145.318C90.3824 145.441 90.5026 145.535 90.6896 145.541C95.6425 145.672 100.852 145.875 105.771 145.155C106.765 145.009 108.256 144.834 108.745 143.758C109.184 142.791 108.906 141.303 108.599 140.069Z" fill="#78BDA3"/>
<path fill-rule="evenodd" clip-rule="evenodd" d="M86.4693 136.908C84.5488 136.908 83.21 137.787 83.21 138.575V142.768C83.21 143.556 84.5488 144.435 86.4693 144.435H104.479C106.398 144.435 107.735 143.556 107.735 142.768V138.575C107.735 137.787 106.398 136.908 104.479 136.908H86.4693ZM104.479 145.671H86.4693C83.9476 145.671 81.9729 144.395 81.9729 142.768V138.575C81.9729 136.947 83.9476 135.671 86.4693 135.671H104.479C106.998 135.671 108.973 136.947 108.973 138.575V142.768C108.973 144.395 106.998 145.671 104.479 145.671Z" fill="#0A0B09"/>
<mask id="mask0" mask-type="alpha" maskUnits="userSpaceOnUse" x="0" y="0" width="72" height="42">
<path fill-rule="evenodd" clip-rule="evenodd" d="M0 0H71.7623V41.4453H0V0Z" fill="white"/>
</mask>
<g mask="url(#mask0)">
<path fill-rule="evenodd" clip-rule="evenodd" d="M5.70294 26.5979C6.74807 26.5979 7.75652 26.9083 8.62052 27.4931L8.81117 27.6228L8.93026 27.4251C9.57147 26.3564 10.4549 25.4232 11.4815 24.7257L11.5834 24.6581L11.5766 24.4718C11.5739 24.4029 11.5725 24.334 11.5725 24.2641C11.5725 19.4999 15.4161 15.6249 20.1414 15.6249C21.0693 15.6249 21.9863 15.776 22.8675 16.0737L23.0146 16.1234L23.1097 15.9997C24.3668 14.3677 26.2596 13.4318 28.3051 13.4318L28.3757 13.4336L28.5623 13.4359L28.5931 13.2505C29.2995 9.08615 32.856 6.06307 37.0515 6.06307C37.5333 6.06307 38.0269 6.10689 38.5182 6.1918L38.6808 6.22011L38.7528 6.06854C40.4721 2.40587 44.1777 0.0392609 48.1943 0.0392609C52.2946 0.0392609 56.0323 2.47663 57.7159 6.24978L57.7598 6.34748L57.8631 6.37304C62.4177 7.52393 65.5997 11.6367 65.5997 16.3768C65.5997 16.7183 65.5829 17.0666 65.5476 17.4104L65.534 17.5432L65.6459 17.6172C69.168 19.9253 71.2705 23.8268 71.2705 28.0519C71.2705 34.912 65.7351 40.493 58.93 40.493C58.6094 40.493 58.2693 40.4775 57.8916 40.446L57.8672 40.4428L57.8423 40.4474C57.638 40.4775 57.432 40.493 57.2296 40.493H16.1574C16.0741 40.493 16.0003 40.4889 15.9256 40.4848C13.0424 40.3775 10.426 38.8249 8.93026 36.3323L8.81117 36.1337L8.62052 36.2638C7.75652 36.8482 6.74807 37.1581 5.70294 37.1581C2.81479 37.1581 0.4646 34.7902 0.4646 31.8785C0.4646 28.9663 2.81479 26.5979 5.70294 26.5979Z" fill="#78BDA3"/>
<path fill-rule="evenodd" clip-rule="evenodd" d="M57.8346 40.4035L57.9238 40.4072C58.3011 40.4392 58.6271 40.4538 58.93 40.4538C65.4635 40.4538 70.7788 35.0951 70.7788 28.5084C70.7788 24.4513 68.7596 20.706 65.3783 18.4891L65.0152 18.2499L65.0582 17.8171C65.0912 17.4962 65.108 17.1657 65.108 16.8333C65.108 12.322 62.0795 8.40639 57.7436 7.31028L57.4117 7.22857L57.2681 6.91174C55.6629 3.31435 52.1018 0.991565 48.1943 0.991565C44.3675 0.991565 40.8358 3.24678 39.1971 6.73735L38.9643 7.22902L38.4345 7.1368C37.969 7.056 37.5035 7.01537 37.0515 7.01537C33.097 7.01537 29.7433 9.86498 29.0777 13.7911L28.9771 14.3932L28.2929 14.3841C26.4137 14.3841 24.6617 15.2501 23.4979 16.7603L23.1895 17.1611L22.7118 17.0009C21.8804 16.7192 21.0164 16.5772 20.1415 16.5772C15.6879 16.5772 12.0644 20.2303 12.0644 24.7207C12.0644 24.7841 12.0657 24.8467 12.068 24.9087L12.0847 25.3758L11.7515 25.5963C10.786 26.2527 9.95464 27.1329 9.35101 28.1382L8.96339 28.781L8.34528 28.3605C7.56279 27.8305 6.64898 27.5502 5.70301 27.5502C3.08565 27.5502 0.956448 29.6967 0.956448 32.335C0.956448 34.9728 3.08565 37.1189 5.70301 37.1189C6.64898 37.1189 7.56324 36.8386 8.34618 36.3085L8.96339 35.8872L9.35101 36.5313C10.7607 38.8815 13.2254 40.3447 15.9438 40.446C16.0189 40.4501 16.0837 40.4538 16.1575 40.4538H57.2297C57.4058 40.4538 57.5878 40.4405 57.7712 40.4131L57.8346 40.4035ZM58.93 41.4453C58.6072 41.4453 58.2626 41.4303 57.8772 41.3988C57.6413 41.4312 57.433 41.4453 57.2297 41.4453H16.1575C16.0642 41.4453 15.9814 41.4412 15.898 41.4362C12.9492 41.3266 10.2603 39.7804 8.65773 37.2837C7.7652 37.8256 6.75041 38.1104 5.70301 38.1104C2.54362 38.1104 -0.0270996 35.5197 -0.0270996 32.335C-0.0270996 29.1498 2.54362 26.5586 5.70301 26.5586C6.75132 26.5586 7.76701 26.8439 8.65818 27.3863C9.29215 26.4011 10.1244 25.5323 11.0826 24.8572C11.0813 24.812 11.0808 24.7663 11.0808 24.7207C11.0808 19.6834 15.1454 15.5857 20.1415 15.5857C21.0585 15.5857 21.9655 15.7249 22.8413 16.0006C24.1586 14.3809 26.0763 13.4391 28.1507 13.3943C29.0722 8.67528 33.4733 5.38559 38.3974 6.12652C40.2345 2.39857 44.0573 0 48.1943 0C52.4441 0 56.3213 2.50037 58.1095 6.38172C62.8171 7.6335 66.0915 11.9116 66.0915 16.8333C66.0915 17.1415 66.078 17.4492 66.0526 17.75C69.6304 20.1605 71.7623 24.1696 71.7623 28.5084C71.7623 35.642 66.006 41.4453 58.93 41.4453Z" fill="#0A0B09"/>
</g>
<path fill-rule="evenodd" clip-rule="evenodd" d="M9.74603 45.7099C10.4989 45.7099 11.2253 45.9327 11.8472 46.3517L11.9844 46.4449L12.0709 46.3026C12.5324 45.5368 13.1687 44.8677 13.9081 44.3677L13.9812 44.3196L13.9767 44.1855C13.9749 44.1364 13.974 44.0868 13.974 44.0368C13.974 40.6216 16.742 37.8435 20.1454 37.8435C20.8136 37.8435 21.4746 37.9517 22.1091 38.1658L22.2148 38.2012L22.2838 38.1126C23.189 36.9422 24.5522 36.2718 26.0256 36.2718L26.0767 36.2731L26.2107 36.2745L26.2331 36.1418C26.7417 33.156 29.3036 30.9893 32.3252 30.9893C32.6725 30.9893 33.0279 31.0202 33.3819 31.0815L33.4993 31.1015L33.5508 30.9929C34.7894 28.3676 37.4584 26.6708 40.3514 26.6708C43.3045 26.6708 45.9972 28.418 47.2094 31.1229L47.2412 31.1929L47.3156 31.2115C50.5962 32.0365 52.8883 34.985 52.8883 38.3826C52.8883 38.6276 52.8753 38.8771 52.8502 39.1239L52.8408 39.2189L52.9215 39.2716C55.4583 40.927 56.9729 43.7232 56.9729 46.7522C56.9729 51.6701 52.9851 55.6708 48.0841 55.6708C47.8533 55.6708 47.6077 55.6595 47.3362 55.6368L47.3183 55.6349L47.3003 55.6381C47.1534 55.6595 47.005 55.6708 46.8594 55.6708H17.2762C17.2161 55.6708 17.1628 55.6681 17.109 55.6649C15.0324 55.5881 13.1481 54.475 12.0709 52.6878L11.9844 52.5455L11.8472 52.6392C11.2253 53.0578 10.4989 53.28 9.74603 53.28C7.66588 53.28 5.9729 51.5824 5.9729 49.4952C5.9729 47.4076 7.66588 45.7099 9.74603 45.7099Z" fill="#78BDA3"/>
<path fill-rule="evenodd" clip-rule="evenodd" d="M47.7972 54.6468L47.8735 54.65C48.1452 54.6727 48.3765 54.6832 48.5926 54.6832C53.2281 54.6832 56.9991 50.9022 56.9991 46.2546C56.9991 43.393 55.5675 40.7506 53.1689 39.186L52.8384 38.9695L52.8766 38.5748C52.9003 38.3429 52.9124 38.111 52.9124 37.8814C52.9124 34.7102 50.7716 31.9573 47.7062 31.1866L47.4058 31.1129L47.2754 30.826C46.1402 28.2932 43.6209 26.6585 40.856 26.6585C38.148 26.6585 35.6498 28.2455 34.4913 30.7018L34.2796 31.1461L33.8017 31.0643C30.5996 30.5118 27.7324 32.6599 27.2101 35.7237L27.1182 36.2708L26.5103 36.263C25.1997 36.2635 23.9749 36.8655 23.162 37.9159L22.8818 38.2774L22.4514 38.1333C21.8658 37.9359 21.2561 37.8359 20.6396 37.8359C17.5034 37.8359 14.9519 40.3941 14.9519 43.5381C14.9519 43.5822 14.9528 43.6258 14.9542 43.669L14.969 44.0824L14.6645 44.2829C13.9857 44.7422 13.4006 45.3583 12.9761 46.0627L12.6241 46.642L12.0668 46.2646C11.5243 45.899 10.8908 45.7057 10.2349 45.7057C8.42176 45.7057 6.94671 47.1831 6.94671 48.9988C6.94671 50.8145 8.42176 52.2914 10.2349 52.2914C10.8912 52.2914 11.5248 52.0981 12.0677 51.7325L12.6241 51.3551L12.9756 51.9344C13.9687 53.5814 15.7042 54.6068 17.6196 54.6777C17.6738 54.6805 17.7187 54.6832 17.7689 54.6832H47.3673C47.4879 54.6832 47.6125 54.6741 47.739 54.6555L47.7972 54.6468ZM48.5926 55.6708C48.3595 55.6708 48.1129 55.6599 47.8385 55.6381C47.6681 55.6604 47.5161 55.6708 47.3673 55.6708H17.7689C17.7003 55.6708 17.6388 55.6677 17.577 55.6645C15.4518 55.5854 13.5096 54.4954 12.3233 52.7302C11.6866 53.0903 10.972 53.279 10.2349 53.279C7.88509 53.279 5.9729 51.3588 5.9729 48.9988C5.9729 46.6383 7.88509 44.7181 10.2349 44.7181C10.972 44.7181 11.6871 44.9072 12.3237 45.2674C12.7671 44.6098 13.332 44.0269 13.9781 43.5635C13.9781 43.5549 13.9781 43.5467 13.9781 43.5381C13.9781 39.8494 16.9663 36.8483 20.6396 36.8483C21.2852 36.8483 21.9237 36.9419 22.5411 37.127C23.4902 36.0034 24.8402 35.3404 26.3036 35.2804C27.0209 31.9118 30.1786 29.5714 33.7223 30.053C35.084 27.3833 37.8574 25.6708 40.856 25.6708C43.9482 25.6708 46.771 27.4702 48.0932 30.2676C51.5136 31.2016 53.8862 34.3091 53.8862 37.8814C53.8862 38.076 53.8786 38.2724 53.8638 38.4675C56.4405 40.2268 57.9729 43.1225 57.9729 46.2546C57.9729 51.4465 53.7647 55.6708 48.5926 55.6708Z" fill="#0A0B09"/>
<path fill-rule="evenodd" clip-rule="evenodd" d="M174.199 43.7099C173.446 43.7099 172.72 43.9327 172.098 44.3517L171.961 44.4449L171.875 44.3026C171.413 43.5368 170.777 42.8677 170.038 42.3677L169.965 42.3196L169.969 42.1855C169.971 42.1364 169.972 42.0868 169.972 42.0368C169.972 38.6216 167.204 35.8435 163.8 35.8435C163.132 35.8435 162.471 35.9517 161.837 36.1658L161.731 36.2012L161.662 36.1126C160.757 34.9422 159.393 34.2718 157.92 34.2718L157.869 34.2731L157.735 34.2745L157.712 34.1418C157.204 31.156 154.642 28.9893 151.62 28.9893C151.273 28.9893 150.917 29.0202 150.564 29.0815L150.447 29.1015L150.395 28.9929C149.156 26.3676 146.487 24.6708 143.594 24.6708C140.641 24.6708 137.949 26.418 136.736 29.1229L136.704 29.1929L136.63 29.2115C133.35 30.0365 131.058 32.985 131.058 36.3826C131.058 36.6276 131.07 36.8771 131.096 37.1239L131.105 37.2189L131.024 37.2716C128.488 38.927 126.973 41.7232 126.973 44.7522C126.973 49.6701 130.961 53.6708 135.861 53.6708C136.092 53.6708 136.338 53.6595 136.609 53.6368L136.627 53.6349L136.645 53.6381C136.792 53.6595 136.94 53.6708 137.086 53.6708H166.669C166.73 53.6708 166.783 53.6681 166.836 53.6649C168.913 53.5881 170.798 52.475 171.875 50.6878L171.961 50.5455L172.098 50.6392C172.72 51.0578 173.446 51.28 174.199 51.28C176.28 51.28 177.973 49.5824 177.973 47.4952C177.973 45.4076 176.28 43.7099 174.199 43.7099Z" fill="#78BDA3"/>
<path fill-rule="evenodd" clip-rule="evenodd" d="M136.497 53.4725L136.573 53.4802C136.712 53.5005 136.838 53.5095 136.959 53.5095H166.761C166.813 53.5095 166.858 53.5068 166.903 53.5045C168.84 53.4337 170.588 52.4165 171.587 50.7835L171.94 50.2069L172.503 50.5832C173.048 50.945 173.686 51.1367 174.347 51.1367C176.173 51.1367 177.658 49.6715 177.658 47.8702C177.658 46.069 176.173 44.6033 174.347 44.6033C173.686 44.6033 173.048 44.795 172.502 45.1582L171.94 45.5326L171.587 44.9574C171.159 44.2591 170.57 43.6474 169.882 43.1887L169.581 42.9933L169.595 42.5842C169.597 42.5368 169.598 42.4953 169.598 42.4529C169.598 39.334 167.029 36.7961 163.87 36.7961C163.25 36.7961 162.637 36.8953 162.047 37.0911L161.613 37.2341L161.331 36.8755C160.513 35.8334 159.279 35.2362 157.947 35.2362L157.349 35.2434L157.255 34.7011C156.73 31.6607 153.834 29.5315 150.619 30.0778L150.137 30.1594L149.925 29.7205C148.757 27.2818 146.241 25.7075 143.515 25.7075C140.731 25.7075 138.195 27.3292 137.053 29.8391L136.92 30.126L136.615 30.2C133.532 30.9642 131.376 33.6952 131.376 36.8412C131.376 37.0717 131.388 37.3018 131.412 37.526L131.452 37.9207L131.117 38.1354C128.703 39.6876 127.261 42.309 127.261 45.1478C127.261 49.7585 131.058 53.5095 135.725 53.5095C135.943 53.5095 136.176 53.4991 136.438 53.4774L136.497 53.4725ZM166.761 54.4893H136.959C136.803 54.4893 136.642 54.478 136.481 54.4568C136.194 54.4789 135.953 54.4893 135.725 54.4893C130.517 54.4893 126.281 50.2985 126.281 45.1478C126.281 42.0411 127.823 39.1684 130.418 37.4227C130.403 37.2309 130.396 37.0361 130.396 36.8412C130.396 33.2964 132.786 30.2131 136.228 29.2883C137.558 26.5136 140.401 24.7277 143.515 24.7277C146.534 24.7277 149.326 26.4261 150.698 29.075C154.264 28.5959 157.446 30.9195 158.168 34.2613C159.647 34.324 161.003 34.9808 161.956 36.0928C162.578 35.9092 163.22 35.8163 163.87 35.8163C167.569 35.8163 170.578 38.7936 170.578 42.4529C170.578 42.4615 170.578 42.4701 170.578 42.4782C171.23 42.9401 171.797 43.5171 172.244 44.1689C172.885 43.8112 173.605 43.6235 174.347 43.6235C176.713 43.6235 178.638 45.5285 178.638 47.8702C178.638 50.2115 176.713 52.1165 174.347 52.1165C173.604 52.1165 172.884 51.9293 172.244 51.5724C171.05 53.3232 169.094 54.4045 166.947 54.483C166.893 54.4861 166.831 54.4893 166.761 54.4893Z" fill="#0A0B09"/>
<path fill-rule="evenodd" clip-rule="evenodd" d="M100.069 167.644H102.778V63.9169H100.069V167.644Z" fill="#0A0B09"/>
<path fill-rule="evenodd" clip-rule="evenodd" d="M123.543 167.644H126.252V63.4658H123.543V167.644Z" fill="#0A0B09"/>
<path fill-rule="evenodd" clip-rule="evenodd" d="M101.973 69.6708H123.973V68.6708H101.973V69.6708Z" fill="#0A0B09"/>
<path fill-rule="evenodd" clip-rule="evenodd" d="M101.973 83.6708H123.973V82.6708H101.973V83.6708Z" fill="#0A0B09"/>
<path fill-rule="evenodd" clip-rule="evenodd" d="M101.973 97.6708H123.973V96.6708H101.973V97.6708Z" fill="#0A0B09"/>
<path fill-rule="evenodd" clip-rule="evenodd" d="M101.973 110.671H123.973V109.671H101.973V110.671Z" fill="#0A0B09"/>
<path fill-rule="evenodd" clip-rule="evenodd" d="M101.973 123.671H123.973V122.671H101.973V123.671Z" fill="#0A0B09"/>
<path fill-rule="evenodd" clip-rule="evenodd" d="M101.973 137.671H123.973V136.671H101.973V137.671Z" fill="#0A0B09"/>
<path fill-rule="evenodd" clip-rule="evenodd" d="M101.973 150.671H123.973V149.671H101.973V150.671Z" fill="#0A0B09"/>
</svg>
