<svg xmlns="http://www.w3.org/2000/svg" width="51" height="52" viewBox="0 0 51 52">
    <g fill="#EF5870" fill-rule="evenodd" opacity=".9">
        <path d="M33 43.964L25 42s-.075 10.58 6.944 9.975c2.943-1.285-3.8-.509 1.056-8.011zM39.37 18.745c2.838-.074 15.463-13.96 10.477-18.65-2.355-.679-2.335 2.525-8.686 2.148-6.35-.377-14.966.678-16.635.753-1.666.076-4.207 2.26-8.465 7.912C13.521 10.381 2.615 5.935 0 17.313c.298 1.13 11.579-3.013 9.936 2.788-1.643 5.802-1.943 12.508 6.873 18.235 2.839 1.884 9.937 3.392 13.896 4.371 3.958.98 1.196-.754.672-1.432 1.643-1.583 3.436-4.898 8.815-3.39 1.42-.679-7.77-10.473-13.746-1.734 0 0-9.264-16.351 12.923-17.406zm3.163-10.094c3.244-.328 6.093-.517 5.986-.152-.244.835-6.586 9.678-9.125 9.636-.05 0-.103-.025-.155-.033l3.294-9.451zm-7.293.853c1.57-.202 3.991-.503 6.341-.753l-6.34 4.243v-3.49zm0 3.863l6.944-4.645-3.248 9.318c-1.258-.466-2.64-2.615-3.696-4.613v-.06zm-.306-3.824v3.29c-.846-1.676-1.42-3.104-1.42-3.104l1.42-.186zm-2.512-5.097c.556 0 1.009.455 1.009 1.017 0 .562-.452 1.017-1.009 1.017-.557 0-1.009-.455-1.009-1.017 0-.562.452-1.017 1.01-1.017z"/>
    </g>
</svg>
