<?xml version="1.0" encoding="utf-8"?>
<!-- Generator: Adobe Illustrator 21.1.0, SVG Export Plug-In . SVG Version: 6.00 Build 0)  -->
<svg version="1.1" id="Слой_1" xmlns="http://www.w3.org/2000/svg" xmlns:xlink="http://www.w3.org/1999/xlink" x="0px" y="0px"
	 viewBox="0 0 1000 1000" style="enable-background:new 0 0 1000 1000;" xml:space="preserve">
<style type="text/css">
	.st0{opacity:0.75;}
	.st1{display:none;fill:#072111;}
	.st2{display:none;}
	.st3{display:inline;fill:#7D0200;}
	.st4{display:none;fill:url(#SVGID_1_);}
	.st5{display:none;fill:url(#SVGID_2_);}
	.st6{fill:#007755;}
	.st7{opacity:0.62;}
	.st8{fill:#FFFFFF;}
</style>
<g>
	<g class="st0">
		
			<ellipse transform="matrix(0.5325 -0.8464 0.8464 0.5325 -534.8345 -53.145)" class="st1" cx="-315.5" cy="457.6" rx="25.3" ry="9.5"/>
		
			<ellipse transform="matrix(0.4643 -0.8857 0.8857 0.4643 -631.5676 -40.6293)" class="st1" cx="-349.4" cy="501.8" rx="27" ry="14.9"/>
	</g>
	<g>
		<g>
			<g>
				<g class="st2">
					<path class="st3" d="M-318.8,522.5c1.5-0.9,2.7-2.1,3.5-3.5c0.8-1.2,1.2-2.7,1-4.1c-0.7-6.7-4.6-12.3-9.5-16.8
						c-2.4-2.2-5.1-4.3-8.4-4.1c-2.1,0.1-3.9,1.7-5.3,3.3c-0.7,0.8-1.3,1.7-1.9,2.6c-1.7,2.9-2.6,6.3-3.2,9.3
						c-0.2,1.1-0.4,2.1-0.5,3.2c-0.5,4.2-0.3,8.5,0.7,12.7c0.4,1.3,1.2,2.5,2.1,3.5c1,0.9,2.2,1.6,3.6,1.8c6.1,0.9,11.3-3,16-6.3
						C-320.1,523.5-319.4,523-318.8,522.5z"/>
				</g>
				
					<radialGradient id="SVGID_1_" cx="-1756.0155" cy="-4044.8552" r="19.0738" gradientTransform="matrix(-0.7292 1.1589 -0.4327 -0.2722 -3348.1772 1389.7648)" gradientUnits="userSpaceOnUse">
					<stop  offset="0" style="stop-color:#945214"/>
					<stop  offset="0.1552" style="stop-color:#AF7D4F"/>
					<stop  offset="0.315" style="stop-color:#C7A484"/>
					<stop  offset="0.4718" style="stop-color:#DBC5B0"/>
					<stop  offset="0.6218" style="stop-color:#EBDED2"/>
					<stop  offset="0.7634" style="stop-color:#F6F0EB"/>
					<stop  offset="0.8931" style="stop-color:#FDFBFA"/>
					<stop  offset="1" style="stop-color:#FFFFFF"/>
				</radialGradient>
				<path class="st4" d="M-331,477.1c-4.4-2.8-2-14.6,5.5-26.5c7.5-11.8,17.1-19.2,21.5-16.4c4.4,2.8,2,14.6-5.5,26.5
					C-317,472.5-326.6,479.9-331,477.1z"/>
				
					<radialGradient id="SVGID_2_" cx="-1506.1952" cy="-3394.2556" r="19.0748" gradientTransform="matrix(-0.6761 1.2897 -0.7109 -0.3726 -3782.7966 1177.5234)" gradientUnits="userSpaceOnUse">
					<stop  offset="0" style="stop-color:#945214"/>
					<stop  offset="0.1552" style="stop-color:#AF7D4F"/>
					<stop  offset="0.315" style="stop-color:#C7A484"/>
					<stop  offset="0.4718" style="stop-color:#DBC5B0"/>
					<stop  offset="0.6218" style="stop-color:#EBDED2"/>
					<stop  offset="0.7634" style="stop-color:#F6F0EB"/>
					<stop  offset="0.8931" style="stop-color:#FDFBFA"/>
					<stop  offset="1" style="stop-color:#FFFFFF"/>
				</radialGradient>
				<path class="st5" d="M-363.9,523.6c-7.3-3.8-7.6-17.6-0.6-30.8c6.9-13.2,18.4-20.8,25.7-17c7.3,3.8,7.6,17.6,0.6,30.8
					C-345.1,519.8-356.6,527.5-363.9,523.6z"/>
			</g>
		</g>
	</g>
</g>
<g>
	<g>
		<g class="st0">
			<path d="M809.2,756.1c-8.4,10.8-17.1,21.3-26.5,31.1c-12.5,12.9-25.1,25.6-38.9,37.2c-7.2,6.1-14.3,12.1-21.7,18
				c-10.3,8.2-20.9,16.1-31.7,23.7c-4.1,2.9-8.2,5.6-12.3,8.6c-10.2,7.4-20.9,13.9-31.4,20.6c-5.6,3.6-11.3,6.9-17.1,10.3
				c-7.3,4.2-14.6,8.5-21.9,12.6c-6.9,3.8-13.9,7.5-20.9,11.3c-12.5,6.8-25.3,13-38.2,19c-10.2,4.8-20.4,9.6-30.8,14
				c-1,0.4-2.5,0.4-2.8,1.9c-2.1,0-4.2,0-6.3,0c-0.2-1.3-1.5-1.4-2.4-1.8c-11.2-5.1-22.5-10.2-33.5-15.6
				c-12.5-6.1-25-12.2-37.4-18.7c-13.8-7.2-27.4-14.7-40.8-22.6c-8.5-5-16.9-10.1-25.3-15.4c-6.8-4.3-13.3-8.9-20-13.2
				c-9.4-6.1-18.4-12.7-27.4-19.3c-14.6-10.8-28.7-22.2-42.3-34.2c-8.6-7.5-16.9-15.4-25.2-23.3c-7.9-7.6-15.3-15.7-22.7-23.9
				c-5.1-5.6-10-11.3-14.7-17.2c-4.7-5.9-9.3-12-13.7-18.2c-4-5.8-8-11.7-11.8-17.7c-4.3-7-8.3-14.1-12.1-21.4
				c-5-9.6-9.2-19.6-13.2-29.6c-3-7.7-5.5-15.6-7.7-23.6c-2.2-7.9-4.3-15.8-4.8-24c0-0.6-0.1-1.2-0.9-1.3c0-162,0-324,0-486
				c0.5-0.1,0.7-0.3,0.9-0.8c1.2-3.2,3.4-5.4,6.7-6.3c5.4-1.4,10.9-2.3,16.4-3.4c11.6-2.1,23.1-4.4,34.7-6.6
				c15.4-2.9,30.9-5.8,46.3-8.7c10-1.9,19.9-3.8,29.8-5.7c11.3-2.1,22.7-4.2,34-6.4c9.5-1.8,19-3.8,28.5-5.7
				c13.1-2.5,26.2-4.9,39.3-7.4c11.1-2.1,22.2-4.4,33.3-6.5c15.4-3,30.8-6.1,46.3-9.1c7.9-1.6,15.7-3.3,23.7-4.5
				c1.4-0.2,3.4,0.6,4.4-1.2c9.6,0,19.2,0,28.8,0c0.1,0.8,0.7,0.9,1.3,0.9c4.5,0.3,8.9,1.1,13.2,1.9c13.6,2.6,27.2,5.3,40.8,8
				c21.5,4.3,43,8.5,64.5,12.6c13.9,2.6,27.8,5.4,41.7,8c14.9,2.9,29.8,5.7,44.8,8.6c13.3,2.5,26.6,5.1,39.9,7.6
				c14.3,2.7,28.5,5.4,42.8,8.1c14.1,2.7,28.2,5.3,42.4,8c6.2,1.2,11.8,3.3,13,10.6c0.1,0.4,0.5,0.5,0.8,0.6c0,22.5,0,44.9,0,67.4
				c-1.6,0.5-0.9,1.9-0.9,2.9c0,118,0,236,0,354c0,0.6,0,1.2,0,1.8c0,0.6,0.3,1,0.9,1.1c0,14.7,0,29.3,0,44
				c-0.8,0.1-0.9,0.6-0.9,1.3c-0.3,7.1-1.5,14-2.6,21c-2.1,12.6-5.6,24.8-9.9,36.8c-4.3,12-9.6,23.6-15.6,34.9 M815,504.5
				c-0.4-0.7-1.2-0.9-1.9-1.2c-6.6-3.3-13.5-6-20.4-8.4c-19.2-6.6-38.4-13.2-57.7-19.8c-9.7-3.4-19.5-6.8-29.2-10.2
				c-7-2.5-14-4.8-21-7.5c-4-1.6-8.3-2.8-12.4-4.2c-21.9-7.5-43.7-15-65.6-22.4c-5.9-2-11.8-3.9-18-5.9c0.1,0.7,0.2,1,0.3,1.2
				c1.9,4.2,3.7,8.5,5.7,12.7c2.7,6,5.4,12,8.3,17.9c4.5,9.1,9.1,18.2,13.5,27.4c7.1,14.9,14.9,29.4,22,44.3
				c4.8,10.2,9.9,20.3,14.8,30.4c5,10.4,10.1,20.8,15.2,31.2c6.9,13.9,13.9,27.8,21.1,41.6c1.9,3.6,3.4,7.3,6,10.8
				c1.8-3.9,2.9-7.8,4.2-11.6c1-3.2,1.9-6.5,2.8-9.7c1-3.9,2.4-7.8,3.5-11.6c1.5-5.2,3-10.5,4.1-15.8c1.1-5.5,3.1-10.9,4.5-16.3
				c1-4.2,2.2-8.3,3.4-12.5c1.1-3.9,2.3-7.8,3.5-11.8c1-3.2,1.8-6.5,2.9-9.6c0.6-1.8,0.4-4,2.9-4.9c5.1-1.8,10.1-3.9,15.2-5.9
				c9.5-3.6,18.9-7.3,28.4-10.9c6.6-2.5,13.1-5,19.7-7.6C798.8,510.9,806.9,507.7,815,504.5z M299.1,269.8
				c2.4,7.3,5.5,13.9,8.7,20.4c6.3,12.8,12.6,25.6,18.8,38.4c4.2,8.8,8.5,17.5,12.7,26.2c4.3,9,8.7,18,12.9,27.1
				c4.3,9.3,8.7,18.5,13.1,27.7c4.5,9.4,9.1,18.8,13.7,28.2c6.9,13.9,14,27.7,21.3,41.4c0.3,0.6,0.4,1.7,1.3,1.6
				c0.8-0.1,0.7-1.1,0.9-1.7c3.8-11.3,7.5-22.6,11.4-33.8c5.9-17.1,11.9-34.1,17.9-51.1c8.6-24.7,17.2-49.4,25.9-74
				c7.4-20.9,14.3-41.9,21.3-62.8c0.2-0.6,0.9-1.4,0.3-2.1c-0.5-0.5-1.1,0.2-1.5,0.4c-11.7,6.5-23.5,13-35.2,19.5
				c-8.4,4.7-16.8,9.5-25.2,14.2c-9.5,5.3-19.1,10.6-28.6,15.8c-0.9,0.5-1.8,0.6-2.8,0.3c-5-1.6-9.9-3.3-14.7-5.2
				c-16.9-6.6-33.1-14.6-49.7-21.8C314.2,275.5,306.9,272.5,299.1,269.8z M491.8,797.3c2.5-7,5.7-13,7.6-19.5
				c1.4-4.9,3.4-9.7,5.1-14.5c5.1-14.8,10.2-29.6,15.3-44.5c2.3-6.7,4.5-13.5,7-20.2c3.4-9.3,6.3-18.7,10.1-27.8
				c1.2-2.9,2.2-6.2,3.1-9.4c2.2-7.5,5.2-14.7,7.7-22.1c4.4-12.6,8.9-25.2,12.8-38c1.4-4.6,3-9.1,4.4-13.7c0.5-1.7,1.6-3.3,1.6-5.3
				c0-0.4,0.1-0.7-0.2-1c-0.4-0.3-0.7-0.1-1,0.1c-6.6,3.5-13.6,6.4-20.4,9.6c-9.7,4.6-19.5,9.2-29.2,13.9c-14.5,7-29,14.2-43.5,21.2
				c-10.9,5.3-21.6,11.2-32.7,16.1c-7.8,3.5-15.3,7.8-23.1,11.4c-6.7,3-13.2,6.5-19.8,9.8c-1,0.5-2.4,0.6-3.1,1.1
				c-2,1.5-4.3,2.5-6.5,3.5c-7.4,3.4-14.7,7.1-21.8,11.3c-2.7,1.6-5.4,3.3-8.2,5.3c3.7,1.1,7,2.4,10.5,3.1
				c8.9,1.9,17.5,4.4,26.3,6.6c8,2,16,4.2,24,6.4c6.5,1.8,12.9,3.6,19.3,5.5c5.8,1.7,11.5,3.8,17.3,5.7c1.3,0.4,2.8,1,3.3,2.1
				c0.9,2.5,2.2,4.8,3.2,7.2c3.5,8.6,6.8,17.2,10.1,25.8c2.1,5.4,4.1,10.8,6.3,16.1c3.1,7.7,5.9,15.5,9.3,23
				C488.2,789.8,489.8,793.3,491.8,797.3z M285.4,697.9c2.6,0.3,4.6-1.5,6.7-2.4c3.3-1.5,6.6-3,9.9-4.5c4-1.8,8-3.6,12-5.3
				c4.4-1.9,8.8-4.1,13.1-6.2c11-5.2,22.1-10.3,33.1-15.5c11.2-5.3,22.3-10.7,33.5-16.1c11.1-5.3,22.2-10.6,33.3-15.9
				c11-5.2,21.9-10.5,32.9-15.7c6.8-3.2,13.7-6.4,20.6-9.4c3.8-1.7,7.3-3.9,11.3-5.1c0.8-0.2,1-1,0.1-1.4c-2.2-1-4.2-2.5-6.3-3.1
				c-4.5-1.3-8.7-3.6-13.2-5c-8.2-2.5-16.3-5.5-24.5-8.3c-18.4-6.4-36.7-12.7-55-19.1c-19.5-6.8-39.1-13.6-58.6-20.5
				c-19.7-7-39.8-12.9-59.5-20c-0.6-0.2-1.5-0.3-1.9,0.1c-0.5,0.5,0.1,1.1,0.4,1.6c3.4,6.6,6.7,13.2,10.3,19.7
				c3.1,5.6,6.5,11.1,9.7,16.6c4.5,7.7,8.9,15.5,13.4,23.2c4.8,8.3,9.3,16.7,13.1,25.5c0.6,1.4,2,2.8,1.3,4.4
				c-2.8,6.8-5.6,13.7-8.4,20.5c-1.5,3.6-3.3,7.1-4.9,10.8c-0.8,1.9-1.3,4-2.5,5.7c-1.4,2-1.9,4.4-3.1,6.5c-1.4,2.5-2.2,5.4-3.5,7.9
				c-2.4,4.4-4.4,9.1-6.3,13.7C290.1,686.2,287.1,691.7,285.4,697.9z M730.3,286.8c-0.2-0.2-0.3-0.4-0.5-0.6
				c-68.9,32.7-137.2,66.5-206,99.9c4.5,2.3,9.1,3.4,13.5,5c11.2,4.1,22.5,7.8,33.7,11.7c12.2,4.2,24.4,8.3,36.6,12.4
				c12.9,4.3,25.7,8.9,38.6,13c14.8,4.7,29.4,10.1,44.3,14.6c8.6,2.6,17.1,5.7,25.7,8.4c8.6,2.8,17.4,5.2,25.9,8.5
				c0.5,0.2,1.3,0.9,1.8,0.4c0.7-0.7-0.2-1.4-0.5-2c-4.1-8.2-8.1-16.3-12.8-24.2c-3.5-5.9-6.9-11.9-10.4-17.8
				c-5.5-9.4-11.3-18.7-16.6-28.2c-2.2-3.9-4.2-8.1-6.7-11.8c-2.6-3.8-2.1-6.8-0.6-10.3c1.9-4.3,3.9-8.6,5.7-13
				c6.9-15.9,13.9-31.7,20.7-47.6C725.4,299.1,727.8,292.9,730.3,286.8z M609.1,507.8c-3.2,7.6-6.2,15-8.7,22.5
				c-5.8,17.5-11.6,35-17.5,52.6c-4,11.9-8,23.7-12,35.6c-4.6,13.6-9.3,27.3-14,40.9c-4.1,12.2-8.3,24.3-12.1,36.6
				c-2.9,9.1-5.9,18.1-8.6,27.2c-0.2,0.7-0.6,1.4-0.2,1.9c0.5,0.5,1.2-0.3,1.7-0.5c7.3-3.7,14.5-7.4,21.7-11.3
				c4.6-2.5,9-5.3,13.6-7.9c11.6-6.6,23-13.5,34.5-20.3c2.6-1.5,5.5-2.6,8-4.2c2.3-1.5,4.8-2.7,7.2-4.1c1.2-0.7,2.7-1.1,4.4-0.1
				c1.1,0.6,2.4,1.1,3.6,1.6c4.5,1.8,9,3.6,13.4,5.5c3.9,1.7,7.7,3.7,11.6,5.2c5.5,2.1,10.8,4.7,16.2,6.9c5.7,2.3,11.2,5.1,16.9,7.5
				c5.6,2.4,11.2,4.7,16.9,6.9c1.3,0.5,2.5,1.6,4.2,1.1c-4-8.4-7.8-16.8-11.9-25.1c-7.2-14.8-14.4-29.5-21.8-44.3
				c-10-20.2-20.2-40.4-30-60.7c-6.9-14.3-13.9-28.5-20.9-42.7c-4.1-8.3-8.1-16.6-12.5-24.7C611.9,511.8,611.3,509.3,609.1,507.8z
				 M524.3,191.5c-0.5,0.6-0.8,0.8-0.9,1.1c-3.5,9.1-7.1,18.1-10.5,27.2c-2.7,7.5-5.1,15.1-7.8,22.6c-3.8,10.6-7.8,21.2-11.6,31.8
				c-3.5,9.9-7.1,19.8-10.8,29.7c-3.8,10.4-7.6,20.8-11.3,31.2c-3.9,10.9-7.7,21.9-11.5,32.8c-3.7,10.6-7.3,21.3-10.9,31.9
				c0.1,0.2,0.3,0.3,0.4,0.5c68.3-31.5,136.3-63.7,203.9-97.4c-0.9-0.4-1.4-0.6-1.9-0.8c-13.7-5.1-27.9-8.8-42.1-12.5
				c-16.8-4.4-33.7-8.7-50-14.9c-1.3-0.5-2.1-1.1-2.7-2.4c-1.8-4.2-3.9-8.4-5.6-12.6c-7.4-18.2-13.7-36.9-21.2-55.1
				C528.1,200.3,526.3,196,524.3,191.5z M316.8,350c-0.3,0.1-0.4,0.1-0.4,0.1c-1.7,7.3-4.3,14.4-6.2,21.6c-1,3.7-2.3,7.4-3.4,11.1
				c-1.1,3.6-2,7.3-2.9,11c-1.1,4.3-2.5,8.6-3.7,13c-1.8,6.8-3.5,13.6-5.7,20.2c-1.4,4.2-2.7,8.6-3.7,12.9c-0.9,3.9-3,4.9-5.8,6.1
				c-5.2,2.2-10.6,4-15.9,6c-4.9,1.9-9.8,3.8-14.8,5.5c-3.7,1.2-7.2,2.8-10.9,4c-3.3,1-6.4,2.4-9.6,3.7c-3.4,1.3-6.8,2.7-10.2,4.1
				c-5,2.1-10,4.2-15,6.3c-0.4,0.2-1-0.1-1.1,0.5c0,0.6,0.6,0.7,1.1,0.9c3.3,1.2,6.5,2.4,9.7,3.6c6.4,2.5,12.8,5.2,19.3,7.3
				c5,1.6,9.8,3.6,14.7,5.4c5.2,1.9,10.5,3.7,15.7,5.8c5.1,2,10.4,3.7,15.7,5.5c11.9,4.2,23.8,8.4,35.6,12.7
				c12,4.4,24.2,8.6,36.2,13c8.1,3,16.2,5.8,24.4,8.5c7.2,2.4,14.2,5.3,21.4,7.5c3.8,1.1,7.3,3,11.4,3.7c-0.3-0.9,0-1.6-0.5-2.4
				c-1-1.6-2-3.4-2.6-5.2c-1-3.4-2.6-6.6-4.1-9.7c-1.3-2.8-2.7-5.7-4.1-8.6c-5.7-11.4-11.2-23-16.7-34.5
				c-6.1-12.7-12.3-25.3-18.4-38c-8.2-17.3-16.2-34.6-24.5-51.9c-6.6-13.8-13.5-27.4-20.3-41C319.9,355.6,318.3,352.8,316.8,350z"/>
		</g>
		<g>
			<g>
				<g>
					<path class="st6" d="M796.8,749.3c-8.4,10.8-17.1,21.3-26.5,31.1c-12.5,12.9-25.1,25.6-38.9,37.2c-7.2,6.1-14.3,12.1-21.7,18
						c-10.3,8.2-20.9,16.1-31.7,23.7c-4.1,2.9-8.2,5.6-12.3,8.6c-10.2,7.4-20.9,13.9-31.4,20.6c-5.6,3.6-11.3,6.9-17.1,10.3
						c-7.3,4.2-14.6,8.5-21.9,12.6c-6.9,3.8-13.9,7.5-20.9,11.3c-12.5,6.8-25.3,13-38.2,19c-10.2,4.8-20.4,9.6-30.8,14
						c-1,0.4-2.5,0.4-2.8,1.9c-2.1,0-4.2,0-6.3,0c-0.2-1.3-1.5-1.4-2.4-1.8c-11.2-5.1-22.5-10.2-33.5-15.6
						c-12.5-6.1-25-12.2-37.4-18.7c-13.8-7.2-27.4-14.7-40.8-22.6c-8.5-5-16.9-10.1-25.3-15.4c-6.8-4.3-13.3-8.9-20-13.2
						c-9.4-6.1-18.4-12.7-27.4-19.3c-14.6-10.8-28.7-22.2-42.3-34.2c-8.6-7.5-16.9-15.4-25.2-23.3c-7.9-7.6-15.3-15.7-22.7-23.9
						c-5.1-5.6-10-11.3-14.7-17.2c-4.7-5.9-9.3-12-13.7-18.2c-4-5.8-8-11.7-11.8-17.7c-4.3-7-8.3-14.1-12.1-21.4
						c-5-9.6-9.2-19.6-13.2-29.6c-3-7.7-5.5-15.6-7.7-23.6c-2.2-7.9-4.3-15.8-4.8-24c0-0.6-0.1-1.2-0.9-1.3c0-162,0-324,0-486
						c0.5-0.1,0.7-0.3,0.9-0.8c1.2-3.2,3.4-5.4,6.7-6.3c5.4-1.4,10.9-2.3,16.4-3.4c11.6-2.1,23.1-4.4,34.7-6.6
						c15.4-2.9,30.9-5.8,46.3-8.7c10-1.9,19.9-3.8,29.8-5.7c11.3-2.1,22.7-4.2,34-6.4c9.5-1.8,19-3.8,28.5-5.7
						c13.1-2.5,26.2-4.9,39.3-7.4c11.1-2.1,22.2-4.4,33.3-6.5c15.4-3,30.8-6.1,46.3-9.1c7.9-1.6,15.7-3.3,23.7-4.5
						c1.4-0.2,3.4,0.6,4.4-1.2c9.6,0,19.2,0,28.8,0c0.1,0.8,0.7,0.9,1.3,0.9c4.5,0.3,8.9,1.1,13.2,1.9c13.6,2.6,27.2,5.3,40.8,8
						c21.5,4.3,43,8.5,64.5,12.6c13.9,2.6,27.8,5.4,41.7,8c14.9,2.9,29.8,5.7,44.8,8.6c13.3,2.5,26.6,5.1,39.9,7.6
						c14.3,2.7,28.5,5.4,42.8,8.1c14.1,2.7,28.2,5.3,42.4,8c6.2,1.2,11.8,3.3,13,10.6c0.1,0.4,0.5,0.5,0.8,0.6c0,22.5,0,44.9,0,67.4
						c-1.6,0.5-0.9,1.9-0.9,2.9c0,118,0,236,0,354c0,0.6,0,1.2,0,1.8c0,0.6,0.3,1,0.9,1.1c0,14.7,0,29.3,0,44
						c-0.8,0.1-0.9,0.6-0.9,1.3c-0.3,7.1-1.5,14-2.6,21c-2.1,12.6-5.6,24.8-9.9,36.8c-4.3,12-9.6,23.6-15.6,34.9 M802.6,497.7
						c-0.4-0.7-1.2-0.9-1.9-1.2c-6.6-3.3-13.5-6-20.4-8.4c-19.2-6.6-38.4-13.2-57.7-19.8c-9.7-3.4-19.5-6.8-29.2-10.2
						c-7-2.5-14-4.8-21-7.5c-4-1.6-8.3-2.8-12.4-4.2c-21.9-7.5-43.7-15-65.6-22.4c-5.9-2-11.8-3.9-18-5.9c0.1,0.7,0.2,1,0.3,1.2
						c1.9,4.2,3.7,8.5,5.7,12.7c2.7,6,5.4,12,8.3,17.9c4.5,9.1,9.1,18.2,13.5,27.4c7.1,14.9,14.9,29.4,22,44.3
						c4.8,10.2,9.9,20.3,14.8,30.4c5,10.4,10.1,20.8,15.2,31.2c6.9,13.9,13.9,27.8,21.1,41.6c1.9,3.6,3.4,7.3,6,10.8
						c1.8-3.9,2.9-7.8,4.2-11.6c1-3.2,1.9-6.5,2.8-9.7c1-3.9,2.4-7.8,3.5-11.6c1.5-5.2,3-10.5,4.1-15.8c1.1-5.5,3.1-10.9,4.5-16.3
						c1-4.2,2.2-8.3,3.4-12.5c1.1-3.9,2.3-7.8,3.5-11.8c1-3.2,1.8-6.5,2.9-9.6c0.6-1.8,0.4-4,2.9-4.9c5.1-1.8,10.1-3.9,15.2-5.9
						c9.5-3.6,18.9-7.3,28.4-10.9c6.6-2.5,13.1-5,19.7-7.6C786.4,504.2,794.5,501,802.6,497.7z M286.7,263.1
						c2.4,7.3,5.5,13.9,8.7,20.4c6.3,12.8,12.6,25.6,18.8,38.4c4.2,8.8,8.5,17.5,12.7,26.2c4.3,9,8.7,18,12.9,27.1
						c4.3,9.3,8.7,18.5,13.1,27.7c4.5,9.4,9.1,18.8,13.7,28.2c6.9,13.9,14,27.7,21.3,41.4c0.3,0.6,0.4,1.7,1.3,1.6
						c0.8-0.1,0.7-1.1,0.9-1.7c3.8-11.3,7.5-22.6,11.4-33.8c5.9-17.1,11.9-34.1,17.9-51.1c8.6-24.7,17.2-49.4,25.9-74
						c7.4-20.9,14.3-41.9,21.3-62.8c0.2-0.6,0.9-1.4,0.3-2.1c-0.5-0.5-1.1,0.2-1.5,0.4c-11.7,6.5-23.5,13-35.2,19.5
						c-8.4,4.7-16.8,9.5-25.2,14.2c-9.5,5.3-19.1,10.6-28.6,15.8c-0.9,0.5-1.8,0.6-2.8,0.3c-5-1.6-9.9-3.3-14.7-5.2
						c-16.9-6.6-33.1-14.6-49.7-21.8C301.9,268.7,294.6,265.8,286.7,263.1z M479.5,790.6c2.5-7,5.7-13,7.6-19.5
						c1.4-4.9,3.4-9.7,5.1-14.5c5.1-14.8,10.2-29.6,15.3-44.5c2.3-6.7,4.5-13.5,7-20.2c3.4-9.3,6.3-18.7,10.1-27.8
						c1.2-2.9,2.2-6.2,3.1-9.4c2.2-7.5,5.2-14.7,7.7-22.1c4.4-12.6,8.9-25.2,12.8-38c1.4-4.6,3-9.1,4.4-13.7
						c0.5-1.7,1.6-3.3,1.6-5.3c0-0.4,0.1-0.7-0.2-1c-0.4-0.3-0.7-0.1-1,0.1c-6.6,3.5-13.6,6.4-20.4,9.6c-9.7,4.6-19.5,9.2-29.2,13.9
						c-14.5,7-29,14.2-43.5,21.2c-10.9,5.3-21.6,11.2-32.7,16.1c-7.8,3.5-15.3,7.8-23.1,11.4c-6.7,3-13.2,6.5-19.8,9.8
						c-1,0.5-2.4,0.6-3.1,1.1c-2,1.5-4.3,2.5-6.5,3.5c-7.4,3.4-14.7,7.1-21.8,11.3c-2.7,1.6-5.4,3.3-8.2,5.3c3.7,1.1,7,2.4,10.5,3.1
						c8.9,1.9,17.5,4.4,26.3,6.6c8,2,16,4.2,24,6.4c6.5,1.8,12.9,3.6,19.3,5.5c5.8,1.7,11.5,3.8,17.3,5.7c1.3,0.4,2.8,1,3.3,2.1
						c0.9,2.5,2.2,4.8,3.2,7.2c3.5,8.6,6.8,17.2,10.1,25.8c2.1,5.4,4.1,10.8,6.3,16.1c3.1,7.7,5.9,15.5,9.3,23
						C475.8,783.1,477.4,786.5,479.5,790.6z M273.1,691.1c2.6,0.3,4.6-1.5,6.7-2.4c3.3-1.5,6.6-3,9.9-4.5c4-1.8,8-3.6,12-5.3
						c4.4-1.9,8.8-4.1,13.1-6.2c11-5.2,22.1-10.3,33.1-15.5c11.2-5.3,22.3-10.7,33.5-16.1c11.1-5.3,22.2-10.6,33.3-15.9
						c11-5.2,21.9-10.5,32.9-15.7c6.8-3.2,13.7-6.4,20.6-9.4c3.8-1.7,7.3-3.9,11.3-5.1c0.8-0.2,1-1,0.1-1.4c-2.2-1-4.2-2.5-6.3-3.1
						c-4.5-1.3-8.7-3.6-13.2-5c-8.2-2.5-16.3-5.5-24.5-8.3c-18.4-6.4-36.7-12.7-55-19.1c-19.5-6.8-39.1-13.6-58.6-20.5
						c-19.7-7-39.8-12.9-59.5-20c-0.6-0.2-1.5-0.3-1.9,0.1c-0.5,0.5,0.1,1.1,0.4,1.6c3.4,6.6,6.7,13.2,10.3,19.7
						c3.1,5.6,6.5,11.1,9.7,16.6c4.5,7.7,8.9,15.5,13.4,23.2c4.8,8.3,9.3,16.7,13.1,25.5c0.6,1.4,2,2.8,1.3,4.4
						c-2.8,6.8-5.6,13.7-8.4,20.5c-1.5,3.6-3.3,7.1-4.9,10.8c-0.8,1.9-1.3,4-2.5,5.7c-1.4,2-1.9,4.4-3.1,6.5
						c-1.4,2.5-2.2,5.4-3.5,7.9c-2.4,4.4-4.4,9.1-6.3,13.7C277.7,679.5,274.7,684.9,273.1,691.1z M717.9,280
						c-0.2-0.2-0.3-0.4-0.5-0.6c-68.9,32.7-137.2,66.5-206,99.9c4.5,2.3,9.1,3.4,13.5,5c11.2,4.1,22.5,7.8,33.7,11.7
						c12.2,4.2,24.4,8.3,36.6,12.4c12.9,4.3,25.7,8.9,38.6,13c14.8,4.7,29.4,10.1,44.3,14.6c8.6,2.6,17.1,5.7,25.7,8.4
						c8.6,2.8,17.4,5.2,25.9,8.5c0.5,0.2,1.3,0.9,1.8,0.4c0.7-0.7-0.2-1.4-0.5-2c-4.1-8.2-8.1-16.3-12.8-24.2
						c-3.5-5.9-6.9-11.9-10.4-17.8c-5.5-9.4-11.3-18.7-16.6-28.2c-2.2-3.9-4.2-8.1-6.7-11.8c-2.6-3.8-2.1-6.8-0.6-10.3
						c1.9-4.3,3.9-8.6,5.7-13c6.9-15.9,13.9-31.7,20.7-47.6C713.1,292.3,715.4,286.1,717.9,280z M596.7,501.1
						c-3.2,7.6-6.2,15-8.7,22.5c-5.8,17.5-11.6,35-17.5,52.6c-4,11.9-8,23.7-12,35.6c-4.6,13.6-9.3,27.3-14,40.9
						c-4.1,12.2-8.3,24.3-12.1,36.6c-2.9,9.1-5.9,18.1-8.6,27.2c-0.2,0.7-0.6,1.4-0.2,1.9c0.5,0.5,1.2-0.3,1.7-0.5
						c7.3-3.7,14.5-7.4,21.7-11.3c4.6-2.5,9-5.3,13.6-7.9c11.6-6.6,23-13.5,34.5-20.3c2.6-1.5,5.5-2.6,8-4.2
						c2.3-1.5,4.8-2.7,7.2-4.1c1.2-0.7,2.7-1.1,4.4-0.1c1.1,0.6,2.4,1.1,3.6,1.6c4.5,1.8,9,3.6,13.4,5.5c3.9,1.7,7.7,3.7,11.6,5.2
						c5.5,2.1,10.8,4.7,16.2,6.9c5.7,2.3,11.2,5.1,16.9,7.5c5.6,2.4,11.2,4.7,16.9,6.9c1.3,0.5,2.5,1.6,4.2,1.1
						c-4-8.4-7.8-16.8-11.9-25.1c-7.2-14.8-14.4-29.5-21.8-44.3c-10-20.2-20.2-40.4-30-60.7c-6.9-14.3-13.9-28.5-20.9-42.7
						c-4.1-8.3-8.1-16.6-12.5-24.7C599.5,505,599,502.6,596.7,501.1z M511.9,184.8c-0.5,0.6-0.8,0.8-0.9,1.1
						c-3.5,9.1-7.1,18.1-10.5,27.2c-2.7,7.5-5.1,15.1-7.8,22.6c-3.8,10.6-7.8,21.2-11.6,31.8c-3.5,9.9-7.1,19.8-10.8,29.7
						c-3.8,10.4-7.6,20.8-11.3,31.2c-3.9,10.9-7.7,21.9-11.5,32.8c-3.7,10.6-7.3,21.3-10.9,31.9c0.1,0.2,0.3,0.3,0.4,0.5
						c68.3-31.5,136.3-63.7,203.9-97.4c-0.9-0.4-1.4-0.6-1.9-0.8c-13.7-5.1-27.9-8.8-42.1-12.5c-16.8-4.4-33.7-8.7-50-14.9
						c-1.3-0.5-2.1-1.1-2.7-2.4c-1.8-4.2-3.9-8.4-5.6-12.6c-7.4-18.2-13.7-36.9-21.2-55.1C515.8,193.6,513.9,189.3,511.9,184.8z
						 M304.4,343.2c-0.3,0.1-0.4,0.1-0.4,0.1c-1.7,7.3-4.3,14.4-6.2,21.6c-1,3.7-2.3,7.4-3.4,11.1c-1.1,3.6-2,7.3-2.9,11
						c-1.1,4.3-2.5,8.6-3.7,13c-1.8,6.8-3.5,13.6-5.7,20.2c-1.4,4.2-2.7,8.6-3.7,12.9c-0.9,3.9-3,4.9-5.8,6.1
						c-5.2,2.2-10.6,4-15.9,6c-4.9,1.9-9.8,3.8-14.8,5.5c-3.7,1.2-7.2,2.8-10.9,4c-3.3,1-6.4,2.4-9.6,3.7c-3.4,1.3-6.8,2.7-10.2,4.1
						c-5,2.1-10,4.2-15,6.3c-0.4,0.2-1-0.1-1.1,0.5c0,0.6,0.6,0.7,1.1,0.9c3.3,1.2,6.5,2.4,9.7,3.6c6.4,2.5,12.8,5.2,19.3,7.3
						c5,1.6,9.8,3.6,14.7,5.4c5.2,1.9,10.5,3.7,15.7,5.8c5.1,2,10.4,3.7,15.7,5.5c11.9,4.2,23.8,8.4,35.6,12.7
						c12,4.4,24.2,8.6,36.2,13c8.1,3,16.2,5.8,24.4,8.5c7.2,2.4,14.2,5.3,21.4,7.5c3.8,1.1,7.3,3,11.4,3.7c-0.3-0.9,0-1.6-0.5-2.4
						c-1-1.6-2-3.4-2.6-5.2c-1-3.4-2.6-6.6-4.1-9.7c-1.3-2.8-2.7-5.7-4.1-8.6c-5.7-11.4-11.2-23-16.7-34.5
						c-6.1-12.7-12.3-25.3-18.4-38c-8.2-17.3-16.2-34.6-24.5-51.9c-6.6-13.8-13.5-27.4-20.3-41C307.5,348.9,305.9,346.1,304.4,343.2
						z"/>
				</g>
			</g>
		</g>
	</g>
	<rect x="183.9" y="177.9" class="st6" width="637.7" height="466.2"/>
	<rect x="267.3" y="597.8" class="st6" width="454.2" height="199.8"/>
</g>
<g>
	<g class="st7">
		<path d="M492.8,324c5.2-14.2,9.6-28.4,15.6-42.3c9.3,20,15.4,41.5,24.6,61.2c22.9,9,47.8,12.8,71,21.5
			c-49.8,24.9-100.5,49-151.2,72.5C465.3,398.8,479.5,361.7,492.8,324L492.8,324z"/>
		<path d="M407.3,366.8c22.9-12.2,45.3-25.7,68.2-38c-18.3,56.3-39.1,111.7-57.8,168c-20.5-38.6-38.2-78.7-57.5-117.8
			c-6.1-13.2-13.1-25.7-18.3-39.2C364.2,347.5,385,360,407.3,366.8L407.3,366.8z"/>
		<path d="M508.3,426.1c50.8-25,101.8-49.9,152.9-74.3c-8.3,21.4-17.8,41.9-27,63c11.9,22.3,26.4,43.4,37.4,66.3
			C617,463.6,562.6,445.2,508.3,426.1L508.3,426.1z"/>
		<path d="M354.8,399.2c15.3,28.7,28.3,58.7,42.5,87.9c9.6,20.1,19.8,40,28.6,60.7c-50.7-17.6-101.5-35.7-151.9-54.8
			c19.8-9.1,40.8-15.3,60.9-23.8C341.5,445.8,348.3,422.5,354.8,399.2L354.8,399.2z"/>
		<path d="M556.4,455c42.4,13.7,84.5,29.3,126.8,43.7c13.4,5,27.7,8.7,40.8,15.3c-22.1,8.7-44.6,17.2-66.4,25.9
			c-8.1,25.3-13.7,51.5-22.1,76.7c-17.1-31.8-32.1-64.9-48.3-97.3C576.9,498,565.7,476.8,556.4,455L556.4,455z"/>
		<path d="M554.6,564.4c5.6-16,10.4-32.3,16.9-48c7.7,13.3,13.9,27.6,21,41.2c17.5,37.1,36.4,73.2,53.6,110.3
			c-21-8.6-41.8-18.1-63.1-27c-22.2,11.9-43.2,26.1-66.1,37.4C528.5,640,542.4,602.3,554.6,564.4L554.6,564.4z"/>
		<path d="M322.1,528.5c48,14.9,94.8,32.8,142.3,48.7c7.2,2.4,14.3,5.1,20.9,8.4c-51.3,23.6-101.7,49.5-153.6,72.2
			c8.4-20.9,18.8-40.9,26.8-62.1C348.4,572.4,333.2,551.5,322.1,528.5L322.1,528.5z"/>
		<path d="M423.6,627.6c38.8-18.8,77.3-38.6,116.5-56.5c-10.5,35-23.9,69.3-35.5,104.3c-6.9,18.5-12.2,37.7-20,55.9
			c-9.6-20.3-16.4-41.8-25.4-62.5c-24.2-9-49.6-14-74.1-20.9C396.7,639.3,411,634.5,423.6,627.6L423.6,627.6z"/>
	</g>
	<g>
		<g>
			<g>
				<g>
					<g>
						<path class="st8" d="M488.8,318c5.2-14.2,9.6-28.4,15.6-42.3c9.3,20,15.4,41.5,24.6,61.2c22.9,9,47.8,12.8,71,21.5
							c-49.8,24.9-100.5,49-151.2,72.5C461.3,392.8,475.5,355.7,488.8,318L488.8,318z"/>
					</g>
					<g>
						<path class="st8" d="M403.3,360.8c22.9-12.2,45.3-25.7,68.2-38c-18.3,56.3-39.1,111.7-57.8,168
							c-20.5-38.6-38.2-78.7-57.5-117.8c-6.1-13.2-13.1-25.7-18.3-39.2C360.2,341.5,381,354,403.3,360.8L403.3,360.8z"/>
					</g>
					<g>
						<path class="st8" d="M504.3,420.1c50.8-25,101.8-49.9,152.9-74.3c-8.3,21.4-17.8,41.9-27,63c11.9,22.3,26.4,43.4,37.4,66.3
							C613,457.6,558.6,439.2,504.3,420.1L504.3,420.1z"/>
					</g>
					<g>
						<g>
							<path class="st8" d="M350.8,393.2c15.3,28.7,28.3,58.7,42.5,87.9c9.6,20.1,19.8,40,28.6,60.7
								c-50.7-17.6-101.5-35.7-151.9-54.8c19.8-9.1,40.8-15.3,60.9-23.8C337.5,439.8,344.3,416.5,350.8,393.2L350.8,393.2z"/>
						</g>
					</g>
					<g>
						<path class="st8" d="M552.4,449c42.4,13.7,84.5,29.3,126.8,43.7c13.4,5,27.7,8.7,40.8,15.3c-22.1,8.7-44.6,17.2-66.4,25.9
							c-8.1,25.3-13.7,51.5-22.1,76.7c-17.1-31.8-32.1-64.9-48.3-97.3C572.9,492,561.7,470.8,552.4,449L552.4,449z"/>
					</g>
					<g>
						<path class="st8" d="M550.6,558.4c5.6-16,10.4-32.3,16.9-48c7.7,13.3,13.9,27.6,21,41.2c17.5,37.1,36.4,73.2,53.6,110.3
							c-21-8.6-41.8-18.1-63.1-27c-22.2,11.9-43.2,26.1-66.1,37.4C524.5,634,538.4,596.3,550.6,558.4L550.6,558.4z"/>
					</g>
					<g>
						<path class="st8" d="M318.1,522.5c48,14.9,94.8,32.8,142.3,48.7c7.2,2.4,14.3,5.1,20.9,8.4c-51.3,23.6-101.7,49.5-153.6,72.2
							c8.4-20.9,18.8-40.9,26.8-62.1C344.4,566.4,329.2,545.5,318.1,522.5L318.1,522.5z"/>
					</g>
					<g>
						<path class="st8" d="M419.6,621.6c38.8-18.8,77.3-38.6,116.5-56.5c-10.5,35-23.9,69.3-35.5,104.3c-6.9,18.5-12.2,37.7-20,55.9
							c-9.6-20.3-16.4-41.8-25.4-62.5c-24.2-9-49.6-14-74.1-20.9C392.7,633.3,407,628.5,419.6,621.6L419.6,621.6z"/>
					</g>
				</g>
			</g>
		</g>
	</g>
</g>
</svg>
