<svg width="60" height="60" viewBox="0 0 60 60" fill="none" xmlns="http://www.w3.org/2000/svg">
    <path d="M29.5 59.375C22.6948 57.6615 17.0768 53.757 12.6461 47.6617C8.21536 41.5664 6 34.7979 6 27.3563V9.4375L29.5 0.625L53 9.4375V27.3563C53 34.7979 50.7846 41.5664 46.3539 47.6617C41.9232 53.757 36.3052 57.6615 29.5 59.375Z" fill="#CCCCCC"/>
    <path fill-rule="evenodd" clip-rule="evenodd" d="M29.3446 17.2075C29.6624 16.3406 29.9275 15.474 30.2985 14.625C30.8639 15.8455 31.2348 17.1543 31.7998 18.3575C33.195 18.9055 34.714 19.1354 36.1271 19.666C33.0892 21.1876 29.9982 22.6556 26.9072 24.0884C27.6667 21.7714 28.5324 19.5069 29.3446 17.2075Z" fill="white"/>
    <path fill-rule="evenodd" clip-rule="evenodd" d="M24.1278 19.8159C25.5264 19.0692 26.8877 18.2473 28.2863 17.5002C27.1674 20.9365 25.8994 24.3161 24.7618 27.7523C23.5127 25.3994 22.431 22.9531 21.2563 20.5629C20.8833 19.76 20.4545 18.994 20.1377 18.1728C21.4987 18.6394 22.7668 19.4051 24.1278 19.8159Z" fill="white"/>
    <path fill-rule="evenodd" clip-rule="evenodd" d="M30.2876 23.4376C33.383 21.9147 36.4966 20.3918 39.6103 18.9052C39.1037 20.2106 38.5241 21.4616 37.9628 22.7488C38.6868 24.1084 39.5741 25.3956 40.2439 26.7915C36.9129 25.7217 33.6004 24.5978 30.2876 23.4376Z" fill="white"/>
    <path fill-rule="evenodd" clip-rule="evenodd" d="M20.9284 21.7954C21.8616 23.5435 22.6566 25.3783 23.5206 27.1605C24.1083 28.3895 24.7305 29.6011 25.2661 30.8646C22.1727 29.7915 19.079 28.6838 16.0029 27.5242C17.2128 26.9702 18.4917 26.5896 19.7188 26.0704C20.1161 24.6339 20.531 23.2143 20.9284 21.7954Z" fill="white"/>
    <path fill-rule="evenodd" clip-rule="evenodd" d="M33.2178 25.1953C35.8022 26.0328 38.3674 26.9844 40.9522 27.8598C41.7691 28.1642 42.6432 28.3924 43.4413 28.792C42.0921 29.3251 40.7239 29.8395 39.3937 30.3718C38.8996 31.913 38.5578 33.5121 38.0445 35.0532C36.9993 33.1125 36.0873 31.0952 35.0992 29.1161C34.472 27.8215 33.7879 26.5275 33.2178 25.1953Z" fill="white"/>
    <path fill-rule="evenodd" clip-rule="evenodd" d="M33.11 31.8712C33.4533 30.8938 33.742 29.8993 34.1394 28.9406C34.609 29.7543 34.9884 30.6226 35.4216 31.455C36.4874 33.7158 37.6432 35.922 38.6908 38.1828C37.4082 37.6589 36.1442 37.0799 34.8441 36.537C33.4894 37.2607 32.2069 38.129 30.8164 38.8161C31.5208 36.4828 32.3695 34.1861 33.11 31.8712Z" fill="white"/>
    <path fill-rule="evenodd" clip-rule="evenodd" d="M18.936 29.6831C21.8637 30.5941 24.719 31.6865 27.6105 32.652C28.047 32.7976 28.4832 32.9615 28.8836 33.162C25.7554 34.6006 22.6823 36.1844 19.518 37.5691C20.0272 36.2944 20.6636 35.074 21.1546 33.781C20.5361 32.3601 19.6089 31.0854 18.936 29.6831Z" fill="white"/>
    <path fill-rule="evenodd" clip-rule="evenodd" d="M25.1209 35.7281C27.4879 34.5791 29.8367 33.3759 32.2219 32.2817C31.5845 34.4152 30.7652 36.5121 30.0551 38.6452C29.6365 39.7759 29.3085 40.9432 28.8351 42.055C28.2524 40.8149 27.8338 39.5023 27.2877 38.2442C25.8127 37.6973 24.265 37.3871 22.7725 36.9679C23.4822 36.4389 24.356 36.147 25.1209 35.7281Z" fill="white"/>
</svg>
