<svg width="14" height="14" viewBox="0 0 14 14" fill="none" xmlns="http://www.w3.org/2000/svg">
<path d="M11.2947 11.1833C9.8125 11.8124 8.04375 12.1577 6.5 12.1577C4.95625 12.1577 3.19156 11.8046 1.705 11.1833C0.218437 10.5621 0 10.0361 0 10.0361V11.2299C0 12.2033 0.5625 12.5936 2.10375 13.2408C3.28531 13.7371 4.84937 13.9999 6.5 13.9999C8.15063 13.9999 9.71469 13.7371 10.8962 13.2408C12.4375 12.5936 13 12.2033 13 11.2299V10.0361C13 10.0361 12.7769 10.5546 11.2947 11.1833Z" fill="#B5B5B5"/>
<path d="M0.490704 4.41313C0.841641 4.72062 1.36008 5.02219 1.9907 5.28562C3.3182 5.84062 5.00477 6.17219 6.50195 6.17219C7.99914 6.17219 9.6857 5.84062 11.0132 5.28562C11.6423 5.02219 12.1607 4.72062 12.5116 4.41313C12.701 4.24719 12.8507 4.09687 12.9326 4.01156C12.9772 3.96496 13.002 3.90293 13.002 3.83844V3.02094C12.9757 2.12125 12.2298 1.32062 10.9016 0.766562C9.71383 0.272187 8.15164 0 6.50039 0C4.84914 0 3.28695 0.272187 2.10227 0.766562C0.776954 1.31938 0.0316414 2.11812 0.00195387 3.01562V3.83844C0.00179695 3.90289 0.0265392 3.96491 0.0710163 4.01156C0.151641 4.09687 0.301016 4.24719 0.490704 4.41313Z" fill="#B5B5B5"/>
<path d="M11.2947 5.93479C9.90625 6.53135 8.04375 6.90916 6.5 6.90916C4.95625 6.90916 3.09781 6.52572 1.70531 5.93479C0.312812 5.34385 0 4.7876 0 4.7876V6.2676C0.0025 6.5026 0.171875 6.77385 0.490312 7.05291C0.841562 7.36041 1.35969 7.66228 1.99031 7.92541C3.31625 8.48072 5.00281 8.8126 6.5 8.8126C7.99719 8.8126 9.68375 8.48135 11.0112 7.92604C11.6403 7.66291 12.1587 7.36103 12.5097 7.05353C12.83 6.77228 12.9997 6.5001 13 6.26385V4.7876C13 4.7876 12.6834 5.33822 11.2947 5.93479Z" fill="#B5B5B5"/>
<path d="M11.2947 8.57443C9.8125 9.18756 8.04375 9.54881 6.5 9.54881C4.95625 9.54881 3.06656 9.14881 1.70531 8.57443C0.344062 8.00006 0 7.42725 0 7.42725V8.87256C0 9.1085 0.17 9.38131 0.490312 9.66193C0.84125 9.96943 1.35938 10.2713 1.99031 10.5344C3.31781 11.0897 5.00406 11.421 6.50156 11.421C7.99906 11.421 9.68531 11.0897 11.0128 10.5344C11.6419 10.271 12.1603 9.96943 12.5112 9.66193C12.8297 9.38287 12.9991 9.11162 13.0016 8.87662V7.42725C13.0016 7.42725 12.7772 7.96131 11.2947 8.57443Z" fill="#B5B5B5"/>
</svg>
