<svg xmlns="http://www.w3.org/2000/svg" width="94" height="94" viewBox="0 0 94 94">
    <g fill="none" fill-rule="evenodd" transform="translate(2 2)">
        <circle cx="44.775" cy="44.775" r="44.775" fill="#FCFDFF" stroke="#00A7DF" stroke-width="3"/>
        <path fill="#00A7DF" d="M46.083 30.99v6.718l8.959-8.958-8.959-8.958v6.718c-9.899 0-17.916 8.018-17.916 17.917 0 3.516 1.03 6.786 2.777 9.54l3.27-3.27a13.147 13.147 0 0 1-1.568-6.27c0-7.413 6.024-13.437 13.437-13.437zm15.14 3.896l-3.27 3.27c.986 1.882 1.568 4.01 1.568 6.271 0 7.413-6.025 13.438-13.438 13.438v-6.72l-8.958 8.96 8.958 8.958v-6.72c9.9 0 17.917-8.017 17.917-17.916 0-3.516-1.03-6.786-2.777-9.54z"/>
    </g>
</svg>
