<svg xmlns="http://www.w3.org/2000/svg" width="18" height="17" viewBox="0 0 18 17">
    <path fill="#394A94" fill-rule="nonzero" d="M10.13 13.114l-6.957 3.7.166-2.59c.057-.906.02-2.416-.3-3.26L.905 5.88c-.32-.844-.02-2.023.67-2.632l1.181-1.044A1.381 1.381 0 0 1 3.381.421a1.381 1.381 0 0 1 1.828.48L6.734.505c.891-.23 2.036.18 2.557.916l3.022 4.612c.52.737 1.751 1.613 2.535 2.072l2.24 1.31-6.958 3.7zM8.5 14.718c.021.046.033.094.057.139.56 1.053 1.885 1.442 2.961.87 1.076-.572 1.495-1.889.935-2.942-.024-.045-.057-.081-.084-.125l-3.869 2.058z"/>
</svg>
