<svg xmlns="http://www.w3.org/2000/svg" width="182" height="47" viewBox="0 0 182 47">
    <g fill="none" fill-rule="evenodd">
        <path fill="#00A85F" d="M54.836 29.483h1.79V16.04h-1.79v13.443zm0-15.047h1.79v-3.137h-1.79v3.137zM77.89 29.483h-1.86v-8.255c0-1.037-.297-1.926-.894-2.665-.597-.74-1.382-1.108-2.355-1.108-.99 0-1.841.322-2.555.967-.715.645-1.072 1.446-1.072 2.405v8.656H67.27v-8.656c0-.959-.357-1.76-1.072-2.405-.714-.645-1.565-.967-2.555-.967-.973 0-1.75.365-2.33 1.096-.582.732-.872 1.624-.872 2.677v8.255H58.58V21.44c0-1.683.479-3.035 1.437-4.057.895-.96 2.072-1.501 3.532-1.628 1.947-.157 3.5.677 4.663 2.5 1.162-1.823 2.716-2.657 4.663-2.5 1.46.127 2.645.669 3.556 1.628.973 1.022 1.46 2.374 1.46 4.057v8.042zM91.691 23.705c0 1.745-.561 3.2-1.683 4.363-1.123 1.164-2.54 1.745-4.251 1.745-1.712 0-3.128-.581-4.251-1.745-1.123-1.163-1.684-2.618-1.684-4.363V16.04h1.79v7.892c0 1.134.414 2.108 1.243 2.92.829.81 1.796 1.216 2.902 1.216 1.105 0 2.072-.406 2.901-1.217.829-.811 1.244-1.785 1.244-2.919V16.04h1.79v7.665zM105.539 29.483h-1.79v-7.854c0-1.132-.415-2.107-1.244-2.925-.828-.817-1.795-1.226-2.901-1.226-1.121 0-2.096.409-2.925 1.226-.83.818-1.243 1.793-1.243 2.925v7.854h-1.79v-7.665c0-1.746.565-3.196 1.696-4.352 1.13-1.155 2.551-1.733 4.262-1.733 1.696 0 3.11.578 4.239 1.733 1.13 1.156 1.696 2.606 1.696 4.352v7.665zM107.422 29.483h1.79V16.04h-1.79v13.443zm0-15.047h1.79v-3.137h-1.79v3.137zM116.348 17.69h-3.391v11.793h-1.79V15.78c0-1.43.44-2.536 1.318-3.314.88-.778 2.01-1.167 3.392-1.167h.47v1.604h-.473c-.949.047-1.62.269-2.016.665-.6.634-.901 1.267-.901 1.9v.572h3.39v1.65zM129.89 16.04l-7.607 18.136h-1.916l2.014-5.107-5.138-13.03h1.95l4.294 10.697 4.537-10.697z"/>
        <path fill="#007D3F" d="M144.804 26.205c.047 1.603-.51 2.99-1.672 4.162-1.162 1.172-2.551 1.75-4.168 1.734-1.555-.032-2.881-.61-3.98-1.734-1.1-1.124-1.649-2.464-1.649-4.02v-.26h1.79v.354c0 1.07.385 1.98 1.157 2.735.772.755 1.685 1.132 2.74 1.132 1.103 0 2.047-.404 2.834-1.214.789-.81 1.158-1.765 1.11-2.866-.046-1.241-.494-2.224-1.341-2.948-.8-.676-1.806-1.014-3.014-1.014h-.73V20.71h.686c.9.063 1.678-.178 2.334-.72.656-.543.967-1.285.936-2.229-.032-.723-.285-1.336-.76-1.84-.476-.502-1.07-.778-1.782-.825-.776-.047-1.46.213-2.054.778-.594.567-.891 1.243-.891 2.029v.283h-1.79v-.165c0-1.29.455-2.394 1.365-3.314.911-.92 1.994-1.372 3.25-1.356 1.24.016 2.305.471 3.191 1.368.887.896 1.308 1.957 1.26 3.184-.03 1.462-.667 2.618-1.907 3.467 1.963.99 2.99 2.602 3.085 4.835"/>
        <path fill="#007D3F" d="M133.792 26.542c.044 1.36.541 2.51 1.516 3.506 1.021 1.046 2.22 1.569 3.666 1.598 1.488.01 2.754-.509 3.836-1.6 1.08-1.088 1.584-2.34 1.54-3.825-.089-2.073-1.016-3.526-2.835-4.445l-.687-.347.635-.434c1.121-.769 1.68-1.783 1.71-3.102.042-1.113-.327-2.044-1.13-2.854-.806-.816-1.746-1.219-2.874-1.233-1.154-.03-2.093.385-2.92 1.221-.762.77-1.164 1.656-1.226 2.704h.877c.04-.84.386-1.575 1.028-2.186.686-.654 1.49-.96 2.395-.903.83.055 1.53.38 2.084.968.55.582.847 1.3.884 2.131.036 1.092-.334 1.965-1.1 2.6-.746.617-1.643.89-2.655.823h-.201v.647h.276c1.313 0 2.426.377 3.306 1.122.947.808 1.453 1.91 1.504 3.278.052 1.224-.364 2.302-1.24 3.2-.872.898-1.935 1.352-3.158 1.352-1.173 0-2.202-.424-3.058-1.26-.835-.816-1.269-1.812-1.293-2.961h-.88zm5.237 6.014h-.07c-1.675-.034-3.12-.664-4.3-1.87-1.18-1.207-1.778-2.667-1.778-4.34v-.714h2.699v.808c0 .951.333 1.74 1.02 2.41.69.676 1.482 1.004 2.423 1.004.983 0 1.803-.353 2.508-1.077.703-.723 1.024-1.55.982-2.53-.042-1.12-.429-1.977-1.183-2.62-.72-.61-1.61-.906-2.72-.906h-1.183v-2.466h1.14c.818.056 1.477-.146 2.045-.615.545-.453.797-1.062.771-1.864-.027-.61-.235-1.117-.636-1.542-.398-.42-.882-.644-1.482-.684-.647-.041-1.208.174-1.711.654-.505.48-.75 1.036-.75 1.698v.74h-2.698v-.622c0-1.407.503-2.63 1.497-3.633.997-1.006 2.192-1.506 3.578-1.49 1.358.016 2.539.522 3.508 1.502.975.984 1.444 2.17 1.391 3.521-.03 1.367-.548 2.505-1.544 3.39 1.716 1.083 2.63 2.72 2.722 4.875v.006c.051 1.726-.555 3.238-1.803 4.497-1.23 1.24-2.719 1.868-4.426 1.868zM157.053 28.587c.987-1.022 1.48-2.248 1.48-3.68 0-1.43-.493-2.641-1.48-3.632-.955-.943-2.114-1.415-3.477-1.415-1.41 0-2.64.495-3.69 1.486-1.095 1.07-1.644 2.374-1.644 3.915 0 1.478.525 2.697 1.574 3.656.94.865 2.068 1.297 3.384 1.297 1.519 0 2.804-.542 3.853-1.627m1.186 1.367c-1.39 1.385-3.05 2.076-4.98 2.076-1.806 0-3.36-.613-4.663-1.84-1.398-1.336-2.096-2.995-2.096-4.976 0-1.965.707-3.656 2.118-5.07l6.453-6.463h2.465l-4.47 4.477c1.995-.126 3.703.472 5.125 1.793 1.421 1.321 2.133 2.973 2.133 4.954 0 1.982-.696 3.665-2.085 5.05"/>
        <path fill="#007D3F" d="M153.576 20.315c-1.302 0-2.407.446-3.378 1.362-1.008.984-1.502 2.158-1.502 3.584 0 1.357.467 2.443 1.427 3.32.861.793 1.868 1.178 3.077 1.178 1.404 0 2.558-.487 3.527-1.489.91-.942 1.352-2.042 1.352-3.363 0-1.318-.44-2.4-1.347-3.31-.872-.861-1.906-1.282-3.156-1.282zM153.2 30.67c-1.427 0-2.67-.477-3.691-1.417-1.142-1.043-1.721-2.386-1.721-3.99 0-1.662.6-3.088 1.782-4.242 1.137-1.073 2.482-1.614 4.006-1.614 1.48 0 2.757.52 3.796 1.545 1.073 1.077 1.616 2.407 1.616 3.956 0 1.547-.541 2.891-1.608 3.996-1.134 1.172-2.54 1.766-4.18 1.766zm2.06-16.533l-6.32 6.328c-1.336 1.34-1.986 2.893-1.986 4.75 0 1.87.64 3.39 1.955 4.647 1.224 1.153 2.648 1.714 4.35 1.714 1.822 0 3.347-.636 4.66-1.943 1.312-1.308 1.95-2.854 1.95-4.727 0-1.866-.65-3.377-1.987-4.62-1.339-1.244-2.906-1.791-4.788-1.673l-1.2.076 4.545-4.552h-1.18zm-2.002 18.349c-1.916 0-3.59-.66-4.974-1.963-1.486-1.421-2.239-3.206-2.239-5.308 0-2.08.758-3.895 2.253-5.393l6.586-6.595h3.75l-4.477 4.482c1.65.12 3.106.76 4.343 1.91 1.512 1.404 2.278 3.183 2.278 5.287 0 2.098-.747 3.905-2.219 5.372-1.47 1.465-3.254 2.208-5.3 2.208zM179.305 22.69c-.016-2.106-.788-3.89-2.317-5.353-1.529-1.463-3.35-2.193-5.466-2.193-2.086 0-3.877.75-5.374 2.252-1.496 1.501-2.245 3.29-2.245 5.365s.752 3.86 2.257 5.354c1.505 1.494 3.3 2.249 5.385 2.264 2.132.016 3.966-.73 5.502-2.24 1.536-1.51 2.289-3.326 2.258-5.448m1.79-.119c0 2.626-.93 4.875-2.792 6.746-1.86 1.87-4.093 2.806-6.699 2.806-2.575 0-4.808-.9-6.7-2.7-1.892-1.8-2.838-3.974-2.838-6.521 0-2.61.922-4.847 2.767-6.71 1.845-1.863 4.062-2.795 6.653-2.795 2.606 0 4.851.88 6.735 2.641 1.916 1.809 2.874 3.986 2.874 6.533"/>
        <path fill="#007D3F" d="M171.522 15.598c-1.979 0-3.63.693-5.052 2.12-1.421 1.425-2.113 3.075-2.113 5.043s.695 3.614 2.123 5.031c1.43 1.42 3.088 2.117 5.068 2.132 2.016.008 3.72-.675 5.18-2.11 1.458-1.432 2.152-3.106 2.122-5.117v-.003c-.014-1.997-.726-3.642-2.176-5.028-1.434-1.372-3.167-2.068-5.152-2.068m.09 15.236h-.07c-2.198-.016-4.117-.822-5.702-2.396-1.587-1.575-2.391-3.484-2.391-5.677 0-2.19.8-4.104 2.378-5.687 1.578-1.583 3.494-2.385 5.695-2.385 2.226 0 4.171.78 5.78 2.32 1.613 1.542 2.44 3.452 2.457 5.677.032 2.24-.773 4.184-2.394 5.777-1.6 1.574-3.537 2.37-5.754 2.371m-.125-16.981c-2.453 0-4.583.895-6.33 2.66-1.749 1.766-2.635 3.915-2.635 6.39 0 2.406.907 4.489 2.696 6.191 1.795 1.709 3.944 2.576 6.387 2.576 2.47 0 4.615-.9 6.378-2.673 1.764-1.774 2.658-3.935 2.658-6.424 0-2.405-.918-4.492-2.73-6.203-1.787-1.67-3.95-2.517-6.424-2.517m.118 18.726c-2.684 0-5.044-.95-7.013-2.826-1.977-1.88-2.979-4.185-2.979-6.85 0-2.723.975-5.089 2.898-7.03 1.926-1.944 4.272-2.93 6.976-2.93 2.713 0 5.083.93 7.045 2.764 2.003 1.891 3.018 4.2 3.018 6.866 0 2.738-.984 5.116-2.924 7.066-1.94 1.95-4.301 2.94-7.02 2.94M22.582 4.64c.538-1.467.986-2.933 1.614-4.37.957 2.065 1.585 4.28 2.541 6.317 2.362.928 4.933 1.317 7.324 2.215-5.141 2.575-10.373 5.06-15.605 7.485 1.286-3.922 2.751-7.754 4.126-11.646M13.752 9.055c2.367-1.263 4.67-2.655 7.038-3.919-1.894 5.816-4.04 11.536-5.965 17.352-2.114-3.982-3.945-8.123-5.934-12.168-.63-1.36-1.357-2.656-1.893-4.046 2.304.79 4.45 2.086 6.754 2.781M24.178 15.185c5.239-2.577 10.509-5.155 15.779-7.671-.858 2.21-1.838 4.327-2.789 6.505 1.226 2.302 2.728 4.48 3.861 6.843a680.491 680.491 0 0 1-16.851-5.677M8.336 12.406c1.58 2.959 2.926 6.064 4.388 9.08.995 2.08 2.048 4.132 2.954 6.27A628.22 628.22 0 0 1 0 22.102c2.048-.937 4.212-1.582 6.29-2.46.672-2.432 1.374-4.834 2.046-7.236M29.136 18.16c4.375 1.418 8.716 3.028 13.091 4.51 1.383.515 2.862.902 4.213 1.578-2.283.902-4.6 1.773-6.85 2.674-.837 2.608-1.415 5.315-2.284 7.923-1.77-3.284-3.313-6.699-4.985-10.048-1.062-2.192-2.22-4.382-3.185-6.637M28.955 29.46c.58-1.654 1.07-3.338 1.742-4.96.795 1.377 1.437 2.846 2.17 4.255 1.804 3.827 3.76 7.561 5.533 11.387-2.17-.886-4.31-1.866-6.51-2.785-2.293 1.225-4.464 2.694-6.818 3.857 1.193-3.949 2.63-7.836 3.883-11.754M4.964 25.756c4.955 1.542 9.788 3.391 14.682 5.025.739.247 1.477.524 2.155.864-5.295 2.434-10.496 5.115-15.852 7.459.862-2.158 1.939-4.223 2.77-6.412-1.047-2.405-2.616-4.562-3.755-6.936M15.432 35.988c4.006-1.945 7.982-3.982 12.019-5.833-1.079 3.61-2.466 7.16-3.667 10.77-.709 1.914-1.264 3.89-2.065 5.771-.987-2.099-1.695-4.32-2.62-6.45-2.496-.925-5.115-1.45-7.642-2.16 1.202-.895 2.68-1.39 3.975-2.098"/>
    </g>
</svg>
