<svg width="99" height="27" viewBox="0 0 99 27" fill="none" xmlns="http://www.w3.org/2000/svg">
<g opacity="0.601167">
<path fill-rule="evenodd" clip-rule="evenodd" d="M30.4082 8.38182H31.8293V6.6123H30.4082V8.38182ZM30.4082 16.926H31.8293V9.29185H30.4082V16.926Z" fill="#5F5F5F"/>
<path fill-rule="evenodd" clip-rule="evenodd" d="M44.0323 16.5643H42.9706V11.913C42.9706 11.3063 42.8189 10.8007 42.465 10.3963C42.1111 9.99181 41.7066 9.78958 41.1505 9.78958C40.5944 9.78958 40.0888 9.99181 39.6843 10.3457C39.2799 10.6996 39.0776 11.1546 39.0776 11.7108V16.6148H38.0159V11.7108C38.0159 11.1546 37.8137 10.6996 37.4092 10.3457C37.0048 9.99181 36.4992 9.78958 35.9431 9.78958C35.3869 9.78958 34.9319 9.99181 34.6286 10.3963C34.2747 10.8007 34.123 11.3063 34.123 11.913V16.5643H33.0613V12.0141C33.0613 11.0535 33.3141 10.2952 33.8702 9.73902C34.3758 9.18289 35.033 8.87954 35.8925 8.82898C37.0048 8.72787 37.8642 9.23344 38.5215 10.2446C39.1787 9.23344 40.0382 8.72787 41.1505 8.82898C41.9594 8.87954 42.6672 9.18289 43.1728 9.73902C43.7289 10.2952 43.9817 11.1041 43.9817 12.0141V16.5643H44.0323Z" fill="#5F5F5F"/>
<path fill-rule="evenodd" clip-rule="evenodd" d="M51.9583 13.7153C51.9583 14.7264 51.655 15.5353 50.9977 16.1926C50.3405 16.8498 49.5821 17.2037 48.5709 17.2037C47.6104 17.2037 46.8014 16.8498 46.1442 16.1926C45.4869 15.5353 45.1836 14.7264 45.1836 13.7153V9.36731H46.1947V13.8164C46.1947 14.4736 46.4475 15.0298 46.9026 15.4848C47.3576 15.9398 47.9137 16.1926 48.5709 16.1926C49.1776 16.1926 49.7338 15.9398 50.2393 15.4848C50.6944 15.0298 50.9472 14.4736 50.9472 13.8164V9.36731H51.9583V13.7153Z" fill="#5F5F5F"/>
<path fill-rule="evenodd" clip-rule="evenodd" d="M59.6727 16.6021H58.6615V12.1531C58.6615 11.4958 58.4087 10.9397 57.9537 10.4847C57.4987 10.0297 56.9426 9.77688 56.2853 9.77688C55.6281 9.77688 55.0719 10.0297 54.6169 10.4847C54.1619 10.9397 53.9091 11.4958 53.9091 12.1531V16.6021H52.8979V12.2542C52.8979 11.243 53.2013 10.4341 53.8585 9.77688C54.5158 9.11963 55.3247 8.81628 56.2853 8.81628C57.2459 8.81628 58.0548 9.11963 58.7121 9.77688C59.3693 10.4341 59.6727 11.243 59.6727 12.2542V16.6021Z" fill="#5F5F5F"/>
<path fill-rule="evenodd" clip-rule="evenodd" d="M61.1633 8.38182H62.5844V6.6123H61.1633V8.38182ZM61.1633 16.926H62.5844V9.29185H61.1633V16.926Z" fill="#5F5F5F"/>
<path fill-rule="evenodd" clip-rule="evenodd" d="M67.2998 10.2524H65.3786V16.926H64.3674V9.14018C64.3674 8.33126 64.6202 7.72457 65.1258 7.26955C65.6314 6.81453 66.2886 6.6123 67.047 6.6123H67.2998V7.52234H67.047C66.4908 7.5729 66.1369 7.67401 65.8842 7.87624C65.5303 8.23015 65.3786 8.58405 65.3786 8.93795V9.29185H67.2998V10.2524Z" fill="#5F5F5F"/>
<path fill-rule="evenodd" clip-rule="evenodd" d="M74.8528 9.36731L70.5554 19.6305H69.4937L70.6565 16.7487L67.6736 9.36731H68.7858L71.2126 15.4342L73.791 9.36731H74.8528Z" fill="#5F5F5F"/>
<path fill-rule="evenodd" clip-rule="evenodd" d="M12.7951 2.47732C13.0985 1.6684 13.3513 0.808921 13.7052 0C14.2613 1.16282 14.6152 2.42676 15.1713 3.58959C16.4858 4.09516 17.952 4.34795 19.3171 4.85352C16.3847 6.31969 13.4524 7.7353 10.4695 9.10036C11.1773 6.82527 11.9862 4.65129 12.7951 2.47732Z" fill="#5F5F5F"/>
<path fill-rule="evenodd" clip-rule="evenodd" d="M7.69955 4.97966C9.0646 4.27185 10.3285 3.46293 11.6936 2.75513C10.6319 6.04137 9.41851 9.27705 8.30624 12.5633C7.09286 10.2882 6.08171 7.96255 4.91889 5.68746C4.56498 4.9291 4.16052 4.17074 3.85718 3.41238C5.17167 3.86739 6.38505 4.5752 7.69955 4.97966Z" fill="#5F5F5F"/>
<path fill-rule="evenodd" clip-rule="evenodd" d="M13.7754 8.75615C16.7583 7.28998 19.7412 5.82381 22.7241 4.4082C22.2185 5.67214 21.6624 6.83497 21.1568 8.0989C21.8646 9.4134 22.7241 10.6268 23.3308 11.9918C20.0951 10.9301 16.91 9.86842 13.7754 8.75615Z" fill="#5F5F5F"/>
<path fill-rule="evenodd" clip-rule="evenodd" d="M4.75241 7.16321C5.66244 8.83161 6.42081 10.6011 7.22973 12.3201C7.78586 13.4829 8.39255 14.6457 8.89813 15.8591C5.91523 14.7974 2.98289 13.7357 0 12.6234C1.16282 12.0673 2.3762 11.7134 3.58959 11.2078C3.94349 9.84276 4.34795 8.52826 4.75241 7.16321Z" fill="#5F5F5F"/>
<path fill-rule="evenodd" clip-rule="evenodd" d="M16.5305 10.4694C19.0078 11.2783 21.4852 12.1883 23.9625 13.0478C24.7714 13.3511 25.5803 13.5534 26.3387 13.9578C25.0242 14.4634 23.7097 14.969 22.4458 15.4746C21.9907 16.9407 21.6368 18.508 21.1313 19.9742C20.1201 18.1035 19.2606 16.1824 18.3 14.2612C17.7439 12.9972 17.0867 11.7333 16.5305 10.4694Z" fill="#5F5F5F"/>
<path fill-rule="evenodd" clip-rule="evenodd" d="M16.5004 16.6067C16.8543 15.6461 17.1071 14.7361 17.5115 13.7755C17.9666 14.5339 18.3205 15.3934 18.7249 16.2023C19.7361 18.3762 20.8483 20.4997 21.8595 22.6736C20.6461 22.1681 19.4327 21.6119 18.1688 21.1064C16.8543 21.8142 15.6409 22.6231 14.3264 23.2803C14.9837 21.0052 15.7926 18.7807 16.5004 16.6067Z" fill="#5F5F5F"/>
<path fill-rule="evenodd" clip-rule="evenodd" d="M2.75513 14.8776C5.58635 15.737 8.31646 16.7987 11.0971 17.7088C11.5016 17.8605 11.9566 18.0121 12.3105 18.2144C9.27705 19.5794 6.34471 21.0961 3.31126 22.4612C3.81684 21.2478 4.42353 20.085 4.87854 18.8211C4.27185 17.456 3.41238 16.2426 2.75513 14.8776Z" fill="#5F5F5F"/>
<path fill-rule="evenodd" clip-rule="evenodd" d="M8.83684 20.3679C11.1119 19.2556 13.387 18.0928 15.6621 17.0817C15.0554 19.104 14.2465 21.1263 13.5892 23.1991C13.1848 24.2608 12.8814 25.4237 12.4264 26.4854C11.8703 25.272 11.4658 24.0586 10.9603 22.8452C9.54464 22.3396 8.07847 22.0363 6.6123 21.6318C7.26955 21.0252 8.12903 20.7724 8.83684 20.3679Z" fill="#5F5F5F"/>
<path fill-rule="evenodd" clip-rule="evenodd" d="M77.226 16.7186L77.8327 14.7974V14.848H81.4223L82.029 16.7691C82.1301 16.9714 82.2312 16.9714 82.4334 16.9714H83.6974C83.9502 16.9714 83.9502 16.8197 83.8996 16.668L80.8661 7.82046C80.7145 7.26432 80.5122 7.16321 79.9561 7.16321H79.3494C78.7933 7.16321 78.6416 7.31488 78.4394 7.82046L75.4059 16.668C75.3554 16.8197 75.4059 16.9714 75.6082 16.9714H76.8721C77.0743 16.9714 77.1754 16.8703 77.226 16.7186ZM80.2089 11.0056L80.9167 13.3312H78.2877L78.9955 10.955L79.5516 9.03384H79.6022L80.2089 11.0056Z" fill="#5F5F5F"/>
<path fill-rule="evenodd" clip-rule="evenodd" d="M86.9685 15.1007L87.6257 12.9268L89.4458 7.36544C89.4964 7.16321 89.5975 7.16321 89.7997 7.16321H91.1142C91.2659 7.16321 91.2659 7.26432 91.2153 7.36544L88.1313 16.3141C87.9796 16.8197 87.7774 16.9208 87.3224 16.9714H86.564C86.0585 16.9714 85.8562 16.8703 85.654 16.3141L82.57 7.36544C82.5194 7.26432 82.57 7.16321 82.7217 7.16321H84.0362C84.2384 7.16321 84.2889 7.21377 84.3395 7.36544L86.109 12.9268L86.8674 15.1007H86.9685Z" fill="#5F5F5F"/>
<path fill-rule="evenodd" clip-rule="evenodd" d="M98.5921 13.0631H96.1653V15.591C96.1653 15.7932 96.1147 15.8438 95.9125 15.8438H94.9014C94.6991 15.8438 94.6486 15.7932 94.6486 15.591V13.0631H92.1712C91.969 13.0631 91.9185 13.0126 91.9185 12.8103V11.9003C91.9185 11.6981 91.969 11.5969 92.1712 11.5969H94.6486V9.06907C94.6486 8.86684 94.7497 8.81628 94.9014 8.81628H95.9125C96.1147 8.81628 96.1653 8.86684 96.1653 9.06907V11.5969H98.5921C98.7943 11.5969 98.8448 11.6475 98.8448 11.9003V12.8103C98.7943 13.0126 98.7943 13.0631 98.5921 13.0631Z" fill="#5F5F5F"/>
</g>
</svg>
