<?xml version="1.0" encoding="UTF-8"?>
<svg width="159px" height="47px" viewBox="0 0 152 45" version="1.1" xmlns="http://www.w3.org/2000/svg" xmlns:xlink="http://www.w3.org/1999/xlink">
    <!-- Generator: Sketch 52.2 (67145) - http://www.bohemiancoding.com/sketch -->
    <title>ImunifyAV</title>
    <desc>Created with Sketch.</desc>
    <g stroke="none" stroke-width="1" fill="none" fill-rule="evenodd">
        <g transform="translate(-48.000000, -36.000000)">
            <g transform="translate(48.000000, 36.000000)">
                <g transform="translate(52.363636, 10.636364)" fill="#3BA763">
                    <path d="M1.8,3.6 L0.0818181818,3.6 L0.0818181818,0.654545455 L1.8,0.654545455 L1.8,3.6 Z M1.8,17.9181818 L0.0818181818,17.9181818 L0.0818181818,5.07272727 L1.8,5.07272727 L1.8,17.9181818 Z" fill-rule="nonzero"></path>
                    <path d="M22.0090909,17.9181818 L20.2090909,17.9181818 L20.2090909,10.0636364 C20.2090909,9.08181818 19.9636364,8.26363636 19.3909091,7.52727273 C18.8181818,6.79090909 18.0818182,6.46363636 17.1818182,6.46363636 C16.2,6.46363636 15.4636364,6.79090909 14.7272727,7.36363636 C14.0727273,8.01818182 13.7454545,8.75454545 13.7454545,9.65454545 L13.7454545,17.9181818 L11.9454545,17.9181818 L11.9454545,9.65454545 C11.9454545,8.75454545 11.6181818,8.01818182 10.9636364,7.36363636 C10.3090909,6.79090909 9.49090909,6.46363636 8.50909091,6.46363636 C7.60909091,6.46363636 6.87272727,6.79090909 6.3,7.52727273 C5.72727273,8.26363636 5.48181818,9.08181818 5.48181818,10.0636364 L5.48181818,17.9181818 L3.68181818,17.9181818 L3.68181818,10.2272727 C3.68181818,8.59090909 4.17272727,7.36363636 5.07272727,6.38181818 C5.89090909,5.48181818 7.03636364,4.99090909 8.42727273,4.82727273 C10.3090909,4.66363636 11.7818182,5.48181818 12.8454545,7.2 C13.9909091,5.48181818 15.4636364,4.66363636 17.2636364,4.82727273 C18.6545455,4.90909091 19.8,5.48181818 20.6181818,6.38181818 C21.5181818,7.36363636 22.0090909,8.67272727 22.0090909,10.2272727 L22.0090909,17.9181818 Z"></path>
                    <path d="M35.1818182,12.3545455 C35.1818182,13.9909091 34.6090909,15.3818182 33.5454545,16.5272727 C32.4818182,17.6727273 31.0909091,18.1636364 29.4545455,18.1636364 C27.8181818,18.1636364 26.5090909,17.5909091 25.3636364,16.5272727 C24.3,15.3818182 23.7272727,14.0727273 23.7272727,12.3545455 L23.7272727,5.07272727 L25.4454545,5.07272727 L25.4454545,12.6 C25.4454545,13.6636364 25.8545455,14.6454545 26.5909091,15.3818182 C27.4090909,16.1181818 28.3090909,16.5272727 29.3727273,16.5272727 C30.4363636,16.5272727 31.3363636,16.1181818 32.1545455,15.3818182 C32.9727273,14.6454545 33.3,13.6636364 33.3,12.6 L33.3,5.07272727 L35.0181818,5.07272727 L35.0181818,12.3545455 L35.1818182,12.3545455 Z"></path>
                    <path d="M48.4363636,17.9181818 L46.7181818,17.9181818 L46.7181818,10.4727273 C46.7181818,9.40909091 46.3090909,8.42727273 45.5727273,7.69090909 C44.7545455,6.87272727 43.8545455,6.54545455 42.7909091,6.54545455 C41.7272727,6.54545455 40.8272727,6.95454545 40.0090909,7.69090909 C39.1909091,8.50909091 38.8636364,9.40909091 38.8636364,10.4727273 L38.8636364,17.9181818 L37.1454545,17.9181818 L37.1454545,10.6363636 C37.1454545,9 37.7181818,7.60909091 38.7818182,6.46363636 C39.8454545,5.4 41.2363636,4.82727273 42.8727273,4.82727273 C44.5090909,4.82727273 45.8181818,5.4 46.8818182,6.46363636 C47.9454545,7.52727273 48.5181818,8.91818182 48.5181818,10.6363636 L48.5181818,17.9181818 L48.4363636,17.9181818 Z"></path>
                    <path d="M51.8727273,3.6 L50.1545455,3.6 L50.1545455,0.654545455 L51.8727273,0.654545455 L51.8727273,3.6 Z M51.8727273,17.9181818 L50.1545455,17.9181818 L50.1545455,5.07272727 L51.8727273,5.07272727 L51.8727273,17.9181818 Z" fill-rule="nonzero"></path>
                    <path d="M58.6636364,6.62727273 L55.4727273,6.62727273 L55.4727273,17.8363636 L53.7545455,17.8363636 L53.7545455,4.82727273 C53.7545455,3.43636364 54.1636364,2.45454545 54.9818182,1.63636364 C55.8,0.9 56.8636364,0.490909091 58.2545455,0.490909091 L58.6636364,0.490909091 L58.6636364,2.04545455 L58.1727273,2.04545455 C57.2727273,2.12727273 56.6181818,2.29090909 56.2909091,2.7 C55.7181818,3.27272727 55.4727273,3.92727273 55.4727273,4.5 L55.4727273,5.07272727 L58.6636364,5.07272727 L58.6636364,6.62727273 Z"></path>
                    <polygon points="71.5909091 5.07272727 64.3090909 22.3363636 62.5090909 22.3363636 64.3909091 17.5090909 59.4818182 5.07272727 61.3636364 5.07272727 65.4545455 15.2181818 69.7909091 5.07272727"></polygon>
                </g>
                <g fill="#467C45">
                    <path d="M21.6818182,4.90909091 C22.1727273,3.51818182 22.5818182,2.12727273 23.2363636,0.736363636 C24.1363636,2.7 24.7090909,4.82727273 25.6909091,6.70909091 C27.9818182,7.60909091 30.3545455,7.93636364 32.6454545,8.83636364 C27.7363636,11.2909091 22.7454545,13.6636364 17.7545455,15.9545455 C18.9818182,12.1909091 20.3727273,8.59090909 21.6818182,4.90909091 Z"></path>
                    <path d="M13.2545455,9.08181818 C15.5454545,7.85454545 17.6727273,6.54545455 19.9636364,5.31818182 C18.1636364,10.8818182 16.1181818,16.2818182 14.3181818,21.8454545 C12.2727273,18.0818182 10.5545455,14.1545455 8.67272727,10.2272727 C8.1,8.91818182 7.36363636,7.69090909 6.87272727,6.38181818 C9.08181818,7.2 11.1272727,8.42727273 13.2545455,9.08181818 Z"></path>
                    <path d="M23.2363636,14.8909091 C28.2272727,12.4363636 33.2181818,9.98181818 38.2909091,7.60909091 C37.4727273,9.73636364 36.5727273,11.7 35.6727273,13.8272727 C36.8181818,16.0363636 38.2909091,18.0818182 39.3545455,20.3727273 C33.8727273,18.5727273 28.5545455,16.7727273 23.2363636,14.8909091 Z"></path>
                    <path d="M8.1,12.2727273 C9.57272727,15.0545455 10.8818182,18.0818182 12.2727273,20.9454545 C13.2545455,22.9090909 14.2363636,24.8727273 15.0545455,26.9181818 C10.0636364,25.2 5.07272727,23.4 0.0818181818,21.5181818 C2.04545455,20.6181818 4.09090909,20.0454545 6.05454545,19.1454545 C6.79090909,16.8545455 7.44545455,14.5636364 8.1,12.2727273 Z"></path>
                    <path d="M27.9818182,17.7545455 C32.1545455,19.0636364 36.3272727,20.6181818 40.4181818,22.0090909 C41.7272727,22.5 43.1181818,22.8272727 44.4272727,23.4818182 C42.2181818,24.3 40.0090909,25.2 37.8818182,26.0181818 C37.0636364,28.4727273 36.5727273,31.0909091 35.6727273,33.5454545 C33.9545455,30.4363636 32.4818182,27.1636364 30.9272727,23.9727273 C29.9454545,22.0090909 28.8818182,19.8818182 27.9818182,17.7545455 Z"></path>
                    <path d="M27.7363636,28.4727273 C28.3090909,26.9181818 28.7181818,25.2818182 29.3727273,23.7272727 C30.1090909,25.0363636 30.7636364,26.4272727 31.4181818,27.7363636 C33.1363636,31.4181818 35.0181818,34.9363636 36.6545455,38.5363636 C34.6090909,37.7181818 32.5636364,36.7363636 30.4363636,35.9181818 C28.2272727,37.0636364 26.1818182,38.4545455 23.9727273,39.6 C25.2,35.9181818 26.5909091,32.2363636 27.7363636,28.4727273 Z"></path>
                    <path d="M4.90909091,24.9545455 C9.65454545,26.4272727 14.2363636,28.1454545 18.9,29.7 C19.6363636,29.9454545 20.2909091,30.1909091 20.9454545,30.5181818 C15.8727273,32.8090909 10.9636364,35.4272727 5.80909091,37.6363636 C6.62727273,35.5909091 7.69090909,33.6272727 8.42727273,31.5 C7.52727273,29.2909091 5.97272727,27.2454545 4.90909091,24.9545455 Z"></path>
                    <path d="M14.8909091,34.6909091 C18.7363636,32.8090909 22.5,30.9272727 26.3454545,29.1272727 C25.2818182,32.5636364 23.9727273,35.9181818 22.8272727,39.3545455 C22.1727273,41.1545455 21.6,43.0363636 20.8636364,44.8363636 C19.9636364,42.8727273 19.2272727,40.7454545 18.3272727,38.7 C15.9545455,37.8 13.4181818,37.3090909 11.0454545,36.6545455 C12.2727273,35.8363636 13.6636364,35.3454545 14.8909091,34.6909091 Z"></path>
                </g>
                <g transform="translate(125.181818, 12.272727)" fill="#467C45">
                    <path d="M4.33636364,13.3363636 L3.27272727,16.5272727 C3.19090909,16.7727273 3.02727273,16.9363636 2.7,16.9363636 L0.572727273,16.9363636 C0.245454545,16.9363636 0.163636364,16.6909091 0.245454545,16.4454545 L5.31818182,1.63636364 C5.64545455,0.736363636 5.89090909,0.490909091 6.79090909,0.490909091 L7.77272727,0.490909091 C8.75454545,0.490909091 9,0.736363636 9.32727273,1.63636364 L14.4,16.4454545 C14.4818182,16.6909091 14.4818182,16.9363636 14.0727273,16.9363636 L11.9454545,16.9363636 C11.6181818,16.9363636 11.3727273,16.9363636 11.2909091,16.5272727 L10.2272727,13.3363636 L4.33636364,13.3363636 Z M9.57272727,10.8818182 L8.34545455,6.95454545 L7.36363636,3.6 L7.28181818,3.6 L6.3,6.87272727 L5.07272727,10.8818182 L9.57272727,10.8818182 Z" fill-rule="nonzero"></path>
                    <path d="M19.3090909,13.6636364 L20.3727273,9.98181818 L23.4818182,0.572727273 C23.5636364,0.245454545 23.7272727,0.245454545 24.0545455,0.245454545 L26.2636364,0.245454545 C26.5090909,0.245454545 26.5090909,0.409090909 26.5090909,0.572727273 L21.2727273,15.6272727 C21.0272727,16.4454545 20.7,16.6909091 19.8818182,16.6909091 L18.6545455,16.6909091 C17.8363636,16.6909091 17.5090909,16.5272727 17.1818182,15.6272727 L12.0272727,0.654545455 C11.9454545,0.490909091 12.0272727,0.327272727 12.2727273,0.327272727 L14.5636364,0.327272727 C14.8909091,0.327272727 14.9727273,0.409090909 15.0545455,0.654545455 L18.0818182,9.98181818 L19.2272727,13.7454545 L19.3090909,13.7454545 L19.3090909,13.6636364 Z"></path>
                </g>
            </g>
        </g>
    </g>
</svg>