<?xml version="1.0" encoding="UTF-8"?>
<svg xmlns="http://www.w3.org/2000/svg" xmlns:xlink="http://www.w3.org/1999/xlink" width="178px" height="48px" viewBox="0 0 178 48" version="1.1">
<g id="surface1">
<path style=" stroke:none;fill-rule:evenodd;fill:rgb(0%,49.019608%,24.705882%);fill-opacity:1;" d="M 23.632812 4.757812 C 24.191406 3.265625 24.652344 1.769531 25.300781 0.300781 C 26.285156 2.410156 26.933594 4.660156 27.929688 6.738281 C 30.367188 7.683594 33.03125 8.078125 35.5 9 C 30.1875 11.625 24.785156 14.160156 19.371094 16.628906 C 20.703125 12.632812 22.214844 8.722656 23.632812 4.757812 "/>
<path style=" stroke:none;fill-rule:evenodd;fill:rgb(0%,49.019608%,24.705882%);fill-opacity:1;" d="M 14.507812 9.257812 C 16.957031 7.972656 19.339844 6.550781 21.785156 5.257812 C 19.832031 11.1875 17.613281 17.019531 15.617188 22.945312 C 13.433594 18.882812 11.542969 14.667969 9.484375 10.539062 C 8.832031 9.167969 8.085938 7.84375 7.535156 6.421875 C 9.910156 7.230469 12.128906 8.554688 14.507812 9.257812 "/>
<path style=" stroke:none;fill-rule:evenodd;fill:rgb(0%,49.019608%,24.705882%);fill-opacity:1;" d="M 25.285156 15.507812 C 30.695312 12.882812 36.140625 10.25 41.585938 7.691406 C 40.699219 9.945312 39.691406 12.097656 38.703125 14.320312 C 39.96875 16.664062 41.523438 18.882812 42.695312 21.296875 C 36.875 19.449219 31.082031 17.511719 25.285156 15.507812 "/>
<path style=" stroke:none;fill-rule:evenodd;fill:rgb(0%,49.019608%,24.705882%);fill-opacity:1;" d="M 8.914062 12.671875 C 10.550781 15.683594 11.9375 18.851562 13.449219 21.925781 C 14.476562 24.050781 15.570312 26.136719 16.503906 28.316406 C 11.09375 26.464844 5.679688 24.558594 0.300781 22.558594 C 2.417969 21.605469 4.652344 20.941406 6.796875 20.046875 C 7.496094 17.574219 8.21875 15.121094 8.914062 12.671875 "/>
<path style=" stroke:none;fill-rule:evenodd;fill:rgb(0%,49.019608%,24.705882%);fill-opacity:1;" d="M 30.410156 18.542969 C 34.925781 19.988281 39.417969 21.628906 43.9375 23.140625 C 45.367188 23.664062 46.894531 24.058594 48.289062 24.746094 C 45.933594 25.667969 43.535156 26.554688 41.210938 27.46875 C 40.347656 30.125 39.746094 32.886719 38.851562 35.542969 C 37.019531 32.191406 35.429688 28.710938 33.703125 25.304688 C 32.601562 23.074219 31.410156 20.835938 30.410156 18.542969 "/>
<path style=" stroke:none;fill-rule:evenodd;fill:rgb(0%,49.019608%,24.705882%);fill-opacity:1;" d="M 30.21875 30.058594 C 30.820312 28.371094 31.328125 26.660156 32.019531 25.003906 C 32.839844 26.410156 33.507812 27.902344 34.261719 29.339844 C 36.125 33.242188 38.144531 37.046875 39.976562 40.945312 C 37.734375 40.042969 35.527344 39.039062 33.25 38.101562 C 30.886719 39.355469 28.636719 40.847656 26.203125 42.035156 C 27.445312 38.015625 28.929688 34.050781 30.21875 30.058594 "/>
<path style=" stroke:none;fill-rule:evenodd;fill:rgb(0%,49.019608%,24.705882%);fill-opacity:1;" d="M 5.433594 26.28125 C 10.558594 27.847656 15.550781 29.738281 20.601562 31.398438 C 21.367188 31.652344 22.128906 31.933594 22.828125 32.28125 C 17.359375 34.757812 11.980469 37.496094 6.445312 39.886719 C 7.332031 37.691406 8.449219 35.582031 9.308594 33.355469 C 8.226562 30.898438 6.609375 28.703125 5.433594 26.28125 "/>
<path style=" stroke:none;fill-rule:evenodd;fill:rgb(0%,49.019608%,24.705882%);fill-opacity:1;" d="M 16.25 36.714844 C 20.390625 34.734375 24.496094 32.660156 28.667969 30.769531 C 27.550781 34.453125 26.121094 38.070312 24.882812 41.746094 C 24.152344 43.691406 23.578125 45.710938 22.746094 47.625 C 21.726562 45.484375 20.996094 43.222656 20.035156 41.050781 C 17.457031 40.105469 14.746094 39.574219 12.144531 38.847656 C 13.382812 37.933594 14.910156 37.433594 16.25 36.714844 "/>
<path style=" stroke:none;fill-rule:evenodd;fill:rgb(0%,49.019608%,24.705882%);fill-opacity:1;" d="M 93.972656 27.226562 L 95.957031 27.226562 L 95.957031 12.21875 L 93.972656 12.21875 Z M 93.972656 10.421875 L 95.957031 10.421875 L 95.957031 6.921875 L 93.972656 6.921875 Z M 93.972656 10.421875 "/>
<path style=" stroke:none;fill-rule:evenodd;fill:rgb(0%,49.019608%,24.705882%);fill-opacity:1;" d="M 119.570312 27.226562 L 117.507812 27.226562 L 117.507812 18.011719 C 117.507812 16.847656 117.179688 15.863281 116.515625 15.039062 C 115.851562 14.214844 114.984375 13.796875 113.902344 13.796875 C 112.808594 13.796875 111.863281 14.160156 111.0625 14.882812 C 110.273438 15.605469 109.867188 16.496094 109.867188 17.570312 L 109.867188 27.238281 L 107.773438 27.238281 L 107.773438 17.570312 C 107.773438 16.496094 107.378906 15.605469 106.578125 14.882812 C 105.789062 14.160156 104.84375 13.796875 103.738281 13.796875 C 102.660156 13.796875 101.789062 14.203125 101.148438 15.019531 C 100.507812 15.832031 100.179688 16.835938 100.179688 18.011719 L 100.179688 27.226562 L 98.117188 27.226562 L 98.117188 18.246094 C 98.117188 16.375 98.648438 14.859375 99.71875 13.71875 C 100.710938 12.644531 102.015625 12.046875 103.636719 11.902344 C 105.800781 11.730469 107.523438 12.65625 108.820312 14.691406 C 110.105469 12.65625 111.839844 11.71875 114.003906 11.902344 C 115.625 12.035156 116.945312 12.644531 117.945312 13.71875 C 119.027344 14.859375 119.570312 16.375 119.570312 18.246094 Z M 119.570312 27.226562 "/>
<path style=" stroke:none;fill-rule:evenodd;fill:rgb(0%,65.490196%,37.254902%);fill-opacity:1;" d="M 72.152344 27.226562 L 72.152344 18.011719 C 72.152344 17.050781 71.890625 16.273438 71.363281 15.605469 C 70.867188 14.996094 70.257812 14.703125 69.445312 14.703125 C 68.566406 14.703125 67.847656 14.984375 67.214844 15.546875 C 66.617188 16.089844 66.324219 16.757812 66.324219 17.558594 L 66.324219 27.226562 L 62.429688 27.226562 L 62.429688 17.558594 C 62.429688 16.746094 62.136719 16.089844 61.539062 15.546875 C 60.90625 14.984375 60.1875 14.703125 59.308594 14.703125 C 58.496094 14.703125 57.898438 14.984375 57.425781 15.582031 C 56.90625 16.238281 56.648438 17.039062 56.648438 18.011719 L 56.648438 27.226562 L 52.785156 27.226562 L 52.785156 18.246094 C 52.785156 16.148438 53.402344 14.40625 54.621094 13.097656 C 55.769531 11.867188 57.28125 11.15625 59.128906 10.996094 C 59.328125 10.984375 59.523438 10.976562 59.714844 10.976562 C 61.5625 10.976562 63.125 11.707031 64.386719 13.175781 C 65.640625 11.71875 67.203125 10.976562 69.0625 10.976562 C 69.253906 10.976562 69.445312 10.984375 69.636719 10.996094 C 71.484375 11.15625 73.007812 11.867188 74.167969 13.097656 C 75.40625 14.40625 76.039062 16.136719 76.039062 18.246094 L 76.039062 27.226562 Z M 72.152344 27.226562 "/>
<path style=" stroke:none;fill-rule:evenodd;fill:rgb(0%,65.490196%,37.254902%);fill-opacity:1;" d="M 75.113281 27.226562 L 73.050781 27.226562 L 73.050781 18.011719 C 73.050781 16.847656 72.726562 15.863281 72.058594 15.039062 C 71.394531 14.214844 70.527344 13.796875 69.445312 13.796875 C 68.355469 13.796875 67.40625 14.160156 66.609375 14.882812 C 65.820312 15.605469 65.414062 16.496094 65.414062 17.570312 L 65.414062 27.238281 L 63.316406 27.238281 L 63.316406 17.570312 C 63.316406 16.496094 62.925781 15.605469 62.125 14.882812 C 61.335938 14.160156 60.390625 13.796875 59.285156 13.796875 C 58.203125 13.796875 57.335938 14.203125 56.695312 15.019531 C 56.050781 15.832031 55.726562 16.835938 55.726562 18.011719 L 55.726562 27.226562 L 53.664062 27.226562 L 53.664062 18.246094 C 53.664062 16.375 54.191406 14.859375 55.261719 13.71875 C 56.253906 12.644531 57.5625 12.046875 59.183594 11.902344 C 61.347656 11.730469 63.070312 12.65625 64.367188 14.691406 C 65.648438 12.65625 67.386719 11.71875 69.546875 11.902344 C 71.171875 12.035156 72.488281 12.644531 73.492188 13.71875 C 74.574219 14.859375 75.113281 16.375 75.113281 18.246094 Z M 75.113281 27.226562 "/>
<path style=" stroke:none;fill-rule:evenodd;fill:rgb(0%,49.019608%,24.705882%);fill-opacity:1;" d="M 134.890625 20.777344 C 134.890625 22.730469 134.269531 24.347656 133.019531 25.644531 C 131.769531 26.945312 130.203125 27.597656 128.300781 27.597656 C 126.394531 27.597656 124.828125 26.957031 123.578125 25.644531 C 122.328125 24.347656 121.707031 22.71875 121.707031 20.777344 L 121.707031 12.21875 L 123.691406 12.21875 L 123.691406 21.027344 C 123.691406 22.292969 124.152344 23.375 125.078125 24.289062 C 126 25.195312 127.070312 25.644531 128.300781 25.644531 C 129.527344 25.644531 130.597656 25.195312 131.519531 24.289062 C 132.445312 23.386719 132.90625 22.292969 132.90625 21.027344 L 132.90625 12.21875 L 134.890625 12.21875 Z M 134.890625 20.777344 "/>
<path style=" stroke:none;fill-rule:evenodd;fill:rgb(0%,49.019608%,24.705882%);fill-opacity:1;" d="M 150.269531 27.226562 L 148.285156 27.226562 L 148.285156 18.453125 C 148.285156 17.1875 147.824219 16.101562 146.898438 15.1875 C 145.976562 14.273438 144.90625 13.820312 143.675781 13.820312 C 142.4375 13.820312 141.34375 14.273438 140.433594 15.1875 C 139.507812 16.101562 139.046875 17.1875 139.046875 18.453125 L 139.046875 27.214844 L 137.0625 27.214844 L 137.0625 18.65625 C 137.0625 16.699219 137.695312 15.085938 138.945312 13.796875 C 140.195312 12.511719 141.773438 11.867188 143.675781 11.867188 C 145.558594 11.867188 147.125 12.511719 148.386719 13.796875 C 149.636719 15.085938 150.269531 16.710938 150.269531 18.65625 Z M 150.269531 27.226562 "/>
<path style=" stroke:none;fill-rule:evenodd;fill:rgb(0%,49.019608%,24.705882%);fill-opacity:1;" d="M 152.351562 27.226562 L 154.335938 27.226562 L 154.335938 12.21875 L 152.351562 12.21875 Z M 152.351562 10.421875 L 154.335938 10.421875 L 154.335938 6.921875 L 152.351562 6.921875 Z M 152.351562 10.421875 "/>
<path style=" stroke:none;fill-rule:evenodd;fill:rgb(0%,49.019608%,24.705882%);fill-opacity:1;" d="M 162.265625 14.058594 L 158.503906 14.058594 L 158.503906 27.226562 L 156.519531 27.226562 L 156.519531 11.921875 C 156.519531 10.320312 157.003906 9.089844 157.984375 8.21875 C 158.964844 7.347656 160.214844 6.921875 161.746094 6.921875 L 162.265625 6.921875 L 162.265625 8.714844 L 161.738281 8.714844 C 160.675781 8.773438 159.933594 9.019531 159.496094 9.460938 C 158.828125 10.171875 158.492188 10.871094 158.492188 11.585938 L 158.492188 12.21875 L 162.253906 12.21875 L 162.253906 14.058594 Z M 162.265625 14.058594 "/>
<path style=" stroke:none;fill-rule:evenodd;fill:rgb(0%,49.019608%,24.705882%);fill-opacity:1;" d="M 177.304688 12.21875 L 168.855469 32.46875 L 166.726562 32.46875 L 168.96875 26.765625 L 163.269531 12.21875 L 165.429688 12.21875 L 170.195312 24.167969 L 175.234375 12.21875 Z M 177.304688 12.21875 "/>
<path style=" stroke:none;fill-rule:evenodd;fill:rgb(0%,65.490196%,37.254902%);fill-opacity:1;" d="M 79.8125 32.46875 L 82.042969 26.765625 L 76.339844 12.21875 L 80.441406 12.21875 L 84.261719 21.78125 L 88.292969 12.21875 L 92.328125 12.21875 L 83.878906 32.46875 Z M 79.8125 32.46875 "/>
<path style=" stroke:none;fill-rule:evenodd;fill:rgb(0%,65.490196%,37.254902%);fill-opacity:1;" d="M 91.347656 12.21875 L 82.898438 32.46875 L 80.769531 32.46875 L 83.011719 26.765625 L 77.308594 12.21875 L 79.472656 12.21875 L 84.238281 24.167969 L 89.273438 12.21875 Z M 91.347656 12.21875 "/>
</g>
</svg>
