<svg width="11" height="11" viewBox="0 0 11 11" fill="none" xmlns="http://www.w3.org/2000/svg">
<path d="M5.55131 5.83061C4.8685 5.83061 4.28398 5.58749 3.79774 5.10125C3.3115 4.61501 3.06838 4.03048 3.06838 3.34768C3.06838 2.66487 3.3115 2.08035 3.79774 1.59411C4.28398 1.10787 4.8685 0.864746 5.55131 0.864746C6.23412 0.864746 6.81864 1.10787 7.30488 1.59411C7.79112 2.08035 8.03424 2.66487 8.03424 3.34768C8.03424 4.03048 7.79112 4.61501 7.30488 5.10125C6.81864 5.58749 6.23412 5.83061 5.55131 5.83061ZM0.585449 10.7965V9.05842C0.585449 8.70667 0.675973 8.38337 0.85702 8.08852C1.03807 7.79367 1.2786 7.56866 1.57862 7.41348C2.22005 7.09276 2.87181 6.85223 3.53393 6.69187C4.19604 6.53152 4.8685 6.45134 5.55131 6.45134C6.23412 6.45134 6.90658 6.53152 7.56869 6.69187C8.23081 6.85223 8.88258 7.09276 9.524 7.41348C9.82402 7.56866 10.0646 7.79367 10.2456 8.08852C10.4266 8.38337 10.5172 8.70667 10.5172 9.05842V10.7965H0.585449Z" fill="#4E4E4E"/>
</svg>
